<svg width="40" height="57" viewBox="0 0 40 57" fill="none" xmlns="http://www.w3.org/2000/svg">
<rect x="7" y="29.5273" width="5" height="7" fill="#F58B82"/>
<rect x="14" y="26.5273" width="5" height="10" fill="#F58B82"/>
<rect x="21" y="22.5273" width="5" height="14" fill="#F58B82"/>
<rect x="28" y="18.5273" width="5" height="18" fill="#F58B82"/>
<path fill-rule="evenodd" clip-rule="evenodd" d="M0.999089 34.8662C0.968152 34.8208 0.905964 34.8096 0.861123 34.8414C0.837436 34.8581 0.822376 34.8845 0.820074 34.9135C0.798426 35.1858 0.782167 35.4597 0.77141 35.7351C0.345975 46.6287 8.68682 55.7988 19.4012 56.2173C30.1156 56.6357 39.1462 48.144 39.5717 37.2504C39.632 35.7056 39.516 34.1955 39.242 32.7401C39.2345 32.7001 39.1794 32.6957 39.1654 32.7339C39.1578 32.7547 39.1347 32.7655 39.1138 32.7578L35.1414 31.305C35.0029 31.2543 34.8481 31.3119 34.7763 31.4407L32.2093 36.0494L32.0711 36.2976C31.9701 36.4789 31.7199 36.5054 31.5832 36.3491L31.3962 36.1353L28.5967 32.9353C28.4721 32.793 28.2486 32.7999 28.1332 32.9498L25.8876 35.8659L25.6855 36.1284C25.5478 36.3072 25.2693 36.2756 25.1751 36.0704L25.037 35.7693L23.0662 31.4735C22.9756 31.2761 22.7118 31.2373 22.5683 31.4004L20.7962 33.4138L20.6556 33.5736C20.5413 33.7035 20.3411 33.71 20.2185 33.5878L20.0678 33.4375L15.963 29.3437C15.8338 29.2149 15.6205 29.2302 15.5111 29.3763L11.0862 35.2824L10.8846 35.5515C10.7482 35.7336 10.4667 35.7035 10.3719 35.4968L10.2316 35.1911L8.14198 30.6362C8.06454 30.4674 7.85392 30.4088 7.70043 30.5133L1.20971 34.9339C1.14763 34.9761 1.06303 34.9601 1.02075 34.898L0.999089 34.8662Z" fill="#2C3E50"/>
<path fill-rule="evenodd" clip-rule="evenodd" d="M3.84407 20.7353C3.85278 20.9917 4.16037 21.111 4.34324 20.931L9.56315 15.7925L9.73802 15.6203C9.87343 15.487 10.0971 15.5116 10.2003 15.6711L10.3337 15.8771L12.6635 19.4767C12.7896 19.6715 13.0797 19.6555 13.1836 19.4479L16.0871 13.6462L16.1944 13.4319C16.2781 13.2646 16.493 13.2139 16.6427 13.3263L16.8344 13.4701L21.1875 16.7367C21.3296 16.8434 21.5329 16.8038 21.6245 16.6515L23.0798 14.2339L23.245 13.9594C23.3594 13.7694 23.6333 13.7649 23.7538 13.9511L23.9279 14.22L26.2691 17.8372C26.3943 18.0306 26.6817 18.0166 26.7875 17.8119L28.1841 15.1098L28.3005 14.8847C28.3895 14.7124 28.6161 14.6686 28.763 14.7953L28.9549 14.9608L31.7982 17.4135C31.9589 17.552 32.2087 17.4846 32.2778 17.284L33.746 13.0233L33.8033 12.8572C33.8524 12.7148 33.9995 12.6308 34.1471 12.6611L34.3192 12.6964L37.7693 13.4037C38.0051 13.452 38.1976 13.2171 38.099 12.9976C34.846 5.75063 27.4862 1.12803 19.5892 2.09063C10.31 3.2217 3.51639 11.0792 3.84407 20.7353Z" fill="#2C3E50"/>
</svg>
