<svg width="23" height="24" viewBox="0 0 23 24" fill="none" xmlns="http://www.w3.org/2000/svg">
<path fill-rule="evenodd" clip-rule="evenodd" d="M11.2252 0.978516C16.9658 0.978516 21.6353 5.648 21.6353 11.3886C21.6353 14.097 20.5959 16.5673 18.895 18.4212L22.2418 21.761C22.5551 22.0742 22.5561 22.581 22.2429 22.8942C22.0868 23.0524 21.8805 23.1304 21.6753 23.1304C21.4711 23.1304 21.2658 23.0524 21.1087 22.8963L17.7214 19.5185C15.9396 20.9455 13.6804 21.7998 11.2252 21.7998C5.48452 21.7998 0.813965 17.1293 0.813965 11.3886C0.813965 5.648 5.48452 0.978516 11.2252 0.978516ZM11.2252 2.58205C6.3686 2.58205 2.4175 6.53208 2.4175 11.3886C2.4175 16.2452 6.3686 20.1963 11.2252 20.1963C16.0806 20.1963 20.0317 16.2452 20.0317 11.3886C20.0317 6.53208 16.0806 2.58205 11.2252 2.58205Z" fill="#2C3E50"/>
</svg>
