<svg width="1440" height="736" viewBox="0 0 1440 736" fill="none" xmlns="http://www.w3.org/2000/svg">
<path opacity="0.8" d="M0 701.271L13.3591 711.915C26.7183 722.559 53.4365 743.846 80.1548 726.315C106.873 708.783 133.591 652.432 160.31 582.154C187.028 511.876 213.746 427.67 240.464 374.437C267.183 321.203 293.901 298.942 320.619 371.269C347.338 443.597 374.056 610.514 400.774 605.651C427.492 600.789 454.211 424.148 480.929 405.195C507.647 386.243 534.365 524.978 561.084 578.806C587.802 632.633 614.52 601.551 641.239 541.942C667.957 482.333 694.675 394.196 721.393 371.065C748.112 347.935 774.83 389.811 801.548 445.239C828.266 500.667 854.985 569.647 881.703 588.241C908.421 606.835 935.14 575.044 961.858 528.572C988.576 482.1 1015.29 420.947 1042.01 405.254C1068.73 389.56 1095.45 419.325 1122.17 375.969C1148.89 332.612 1175.6 216.133 1202.32 150.651C1229.04 85.169 1255.76 70.6833 1282.48 62.3356C1309.2 53.9878 1335.91 51.7781 1362.63 106.982C1389.35 162.186 1416.07 274.803 1442.79 266.708C1469.51 258.613 1496.22 129.807 1509.58 65.4033L1522.94 1" stroke="#F7CAC9" stroke-width="6"/>
<path opacity="0.8" d="M0 580.835L13.3684 586.593C26.7368 592.351 53.4737 603.868 80.2105 594.383C106.947 584.899 133.684 554.414 160.421 516.395C187.158 478.375 213.895 432.822 240.632 404.023C267.368 375.225 294.105 363.182 320.842 402.31C347.579 441.438 374.316 531.737 401.053 529.106C427.789 526.476 454.526 430.916 481.263 420.663C508 410.41 534.737 485.464 561.474 514.583C588.211 543.703 614.947 526.888 641.684 494.641C668.421 462.393 695.158 414.712 721.895 402.199C748.632 389.686 775.368 412.34 802.105 442.326C828.842 472.312 855.579 509.629 882.316 519.688C909.053 529.747 935.789 512.548 962.526 487.408C989.263 462.267 1016 429.185 1042.74 420.695C1069.47 412.205 1096.21 428.307 1122.95 404.852C1149.68 381.397 1176.42 318.384 1203.16 282.959C1229.89 247.534 1256.63 239.698 1283.37 235.182C1310.11 230.666 1336.84 229.47 1363.58 259.334C1390.32 289.199 1417.05 350.123 1443.79 345.744C1470.53 341.365 1497.26 271.682 1510.63 236.841L1524 202" stroke="#B4C7DD" stroke-width="2"/>
</svg>
