<svg width="100" height="111" viewBox="0 0 176 111" fill="none" xmlns="http://www.w3.org/2000/svg">
<g filter="url(#filter0_d_111_526)">
<rect x="5" width="166" height="100" rx="6" fill="#57687C"/>
<path d="M46.224 51.072H61.744V54.112H46.224V51.072ZM45.744 56.544H62.256V59.68H45.744V56.544ZM55.344 52.032H58.704V66.304H55.344V52.032ZM49.104 52.16H52.368V58.304C52.368 60.352 51.504 64.576 48.144 66.88C47.632 66.208 46.48 65.184 45.68 64.672C48.4 63.008 49.104 59.904 49.104 58.272V52.16ZM42.416 42.432H50.48V44.928H42.416V42.432ZM57.264 42.432H65.36V44.928H57.264V42.432ZM63.856 38.048H67.632V62.432C67.632 64.352 67.28 65.44 66.128 66.08C64.944 66.72 63.28 66.816 60.816 66.784C60.72 65.76 60.208 63.968 59.696 62.976C61.104 63.04 62.704 63.04 63.184 63.04C63.696 63.04 63.856 62.848 63.856 62.368V38.048ZM42.768 38.048H52.912V49.44H42.768V46.688H49.296V40.8H42.768V38.048ZM65.808 38.048V40.8H58.64V46.752H65.808V49.504H54.992V38.048H65.808ZM40.496 38.048H44.272V66.88H40.496V38.048ZM79.408 53.568H96.944V57.12H79.408V53.568ZM79.76 45.312H99.216V58.72H95.344V48.864H79.76V45.312ZM95.472 36.864L98.512 39.776C92.816 41.344 85.008 42.4 78.288 42.912C78.16 42.048 77.68 40.576 77.296 39.808C83.792 39.232 91.12 38.176 95.472 36.864ZM77.296 39.808H81.168V49.152C81.168 54.496 80.4 62.368 75.728 67.072C75.12 66.336 73.552 64.928 72.72 64.448C76.912 60.192 77.296 53.856 77.296 49.152V39.808ZM109.712 41.248H134.192V45.088H109.712V41.248ZM107.248 49.632H136.496V53.504H107.248V49.632ZM119.76 36.8H123.856V51.648H119.76V36.8ZM124.752 56L128.304 54.432C131.088 57.632 134.032 61.888 135.472 64.8L131.696 66.752C130.448 63.808 127.44 59.264 124.752 56ZM110.288 66.08C110.064 65.312 109.456 63.36 108.976 62.304C109.808 62.08 110.48 61.44 111.44 60.352C112.432 59.36 115.568 55.328 117.392 51.392L121.712 52.64C119.088 57.024 115.6 61.248 112.56 64.064V64.16C112.56 64.16 110.288 65.376 110.288 66.08ZM110.288 66.08L110.192 62.912L112.688 61.536L130.544 60.448C130.704 61.568 131.088 63.168 131.312 64C114.224 65.344 111.952 65.44 110.288 66.08Z" fill="white"/>
</g>
<defs>
<filter id="filter0_d_111_526" x="0" y="0" width="176" height="111" filterUnits="userSpaceOnUse" color-interpolation-filters="sRGB">
<feFlood flood-opacity="0" result="BackgroundImageFix"/>
<feColorMatrix in="SourceAlpha" type="matrix" values="0 0 0 0 0 0 0 0 0 0 0 0 0 0 0 0 0 0 127 0" result="hardAlpha"/>
<feOffset dy="6"/>
<feGaussianBlur stdDeviation="2.5"/>
<feComposite in2="hardAlpha" operator="out"/>
<feColorMatrix type="matrix" values="0 0 0 0 0 0 0 0 0 0 0 0 0 0 0 0 0 0 0.25 0"/>
<feBlend mode="normal" in2="BackgroundImageFix" result="effect1_dropShadow_111_526"/>
<feBlend mode="normal" in="SourceGraphic" in2="effect1_dropShadow_111_526" result="shape"/>
</filter>
</defs>
</svg>
