<svg width="316" height="385" viewBox="0 0 316 385" fill="none" xmlns="http://www.w3.org/2000/svg">
<path d="M105.678 191.152L109.566 187.696C114.894 189.328 121.134 191.488 124.83 192.928L119.742 196.576C116.526 195.04 111.006 192.88 105.678 191.152ZM82.8775 154.48H121.998V158.8H82.8775V154.48ZM80.3815 166.288H124.302V171.136H80.3815V166.288ZM99.1975 168.16H104.91V186.784H99.1975V168.16ZM91.3735 182.512V184.816H113.262V182.512H91.3735ZM91.3735 176.656V178.912H113.262V176.656H91.3735ZM85.8055 172.768H119.07V188.704H85.8055V172.768ZM93.9655 187.696L98.7175 191.008C94.7815 193.264 88.5415 195.52 83.6935 196.672C82.7335 195.568 80.9575 193.84 79.6615 192.832C84.7015 191.728 90.8455 189.568 93.9655 187.696ZM91.2295 151.456H96.7975V160.912H107.838V151.456H113.742V164.752H91.2295V151.456ZM150.318 159.184H175.662V165.328H150.318V159.184ZM147.678 187.552H177.534V193.696H147.678V187.552ZM139.038 165.616L144.75 159.904L144.846 160V196.48H139.038V165.616ZM143.838 151.696L149.55 153.52C146.19 161.92 140.814 170.8 135.198 176.368C134.622 174.928 132.894 171.712 131.838 170.272C136.59 165.808 141.15 158.848 143.838 151.696ZM186.798 177.76H209.55V181.12H186.798V177.76ZM185.55 158.896H210.846V162.544H185.55V158.896ZM195.63 155.2H200.478V165.856H195.63V155.2ZM185.55 183.28C191.79 183.136 201.342 182.848 210.462 182.512L210.366 186.208C201.534 186.64 192.27 187.072 185.838 187.36L185.55 183.28ZM206.478 151.6L209.646 155.248C203.502 156.64 194.574 157.312 187.182 157.456C187.038 156.4 186.51 154.72 186.03 153.664C193.182 153.424 201.582 152.752 206.478 151.6ZM210.51 162.88H225.774V168.112H210.51V162.88ZM223.854 162.88H228.99C228.99 162.88 228.942 164.656 228.942 165.28C228.606 185.056 228.27 192.064 226.83 194.08C225.87 195.616 224.862 196.096 223.422 196.384C222.126 196.624 220.158 196.624 218.046 196.528C217.95 195.04 217.422 192.88 216.606 191.488C218.334 191.632 219.87 191.632 220.734 191.632C221.406 191.632 221.79 191.488 222.222 190.816C223.182 189.424 223.566 182.896 223.854 164.08V162.88ZM215.262 151.888H220.542C220.446 171.232 220.302 187.264 211.326 196.72C210.51 195.424 208.686 193.6 207.342 192.736C215.55 184.384 215.214 169.936 215.262 151.888ZM191.55 167.44V172.816H204.846V167.44H191.55ZM187.422 164.08H209.214V176.224H187.422V164.08ZM191.55 168.928L193.902 167.872C194.766 168.88 195.534 170.416 195.774 171.424L193.182 172.672C192.99 171.616 192.318 170.08 191.55 168.928ZM193.614 188.176L197.31 187.552C197.982 189.856 198.318 192.88 198.366 194.848L194.478 195.568C194.526 193.552 194.19 190.528 193.614 188.176ZM198.558 188.128L201.918 187.12C202.878 189.04 203.742 191.584 204.03 193.312L200.526 194.464C200.286 192.736 199.422 190.096 198.558 188.128ZM203.502 187.888L206.766 186.4C208.11 188.032 209.406 190.192 209.982 191.68L206.478 193.408C205.998 191.92 204.75 189.568 203.502 187.888ZM189.006 187.36L193.086 188.704C192.366 191.824 191.214 194.8 188.718 196.624L184.974 194.176C187.086 192.64 188.43 190.048 189.006 187.36ZM202.398 167.728L205.086 169.024C204.078 170.416 203.214 171.664 202.494 172.576L200.382 171.52C201.006 170.464 201.918 168.736 202.398 167.728ZM196.11 164.656H199.95V174.304H200.478V184.432H195.63V174.304H196.11V164.656Z" fill="#2C3E50"/>
<path d="M143.098 379.216L144.526 377.872C147.634 378.88 151.05 380.14 153.15 381.092L151.302 382.492C149.426 381.54 146.234 380.252 143.098 379.216ZM129.098 358.86H151.638V360.54H129.098V358.86ZM127.698 365.468H152.87V367.316H127.698V365.468ZM139.122 366.14H141.222V377.2H139.122V366.14ZM132.962 374.12V376.416H147.774V374.12H132.962ZM132.962 370.368V372.636H147.774V370.368H132.962ZM130.946 368.828H149.874V377.984H130.946V368.828ZM135.65 377.872L137.526 379.076C135.23 380.448 131.674 381.82 128.846 382.548C128.51 382.156 127.838 381.484 127.362 381.092C130.246 380.364 133.83 379.048 135.65 377.872ZM134.334 356.704H136.35V362.528H144.246V356.704H146.374V364.068H134.334V356.704ZM167.934 361.492H182.494V363.704H167.934V361.492ZM166.31 378.264H183.726V380.476H166.31V378.264ZM162.25 364.376L164.322 362.276L164.35 362.332V382.436H162.25V364.376ZM165.302 356.816L167.374 357.46C165.442 362.304 162.474 367.176 159.338 370.368C159.114 369.864 158.442 368.744 158.022 368.24C160.934 365.468 163.65 361.212 165.302 356.816ZM189.774 371.796H202.654V373.196H189.774V371.796ZM189.046 360.988H203.522V362.472H189.046V360.988ZM195.234 358.552H197.054V364.6H195.234V358.552ZM189.074 375.212C192.546 375.072 197.866 374.82 203.074 374.512L203.046 375.996C197.978 376.332 192.742 376.668 189.186 376.864L189.074 375.212ZM201.422 356.844L202.71 358.244C199.35 359.056 194.142 359.532 189.83 359.728C189.774 359.308 189.55 358.664 189.354 358.244C193.554 358.048 198.65 357.544 201.422 356.844ZM203.242 363.452H212.706V365.384H203.242V363.452ZM211.978 363.452H213.882C213.882 363.452 213.854 364.208 213.854 364.46C213.63 376.36 213.378 380.28 212.538 381.428C212.062 382.128 211.53 382.352 210.746 382.436C209.99 382.52 208.758 382.492 207.498 382.436C207.442 381.876 207.274 381.064 206.938 380.56C208.226 380.644 209.374 380.644 209.906 380.644C210.326 380.672 210.55 380.588 210.802 380.224C211.474 379.384 211.754 375.436 211.978 363.928V363.452ZM206.658 356.872H208.618C208.562 367.316 208.506 377.2 202.598 382.548C202.29 382.1 201.562 381.428 201.058 381.12C206.686 376.248 206.63 366.756 206.658 356.872ZM191.762 365.244V369.024H200.722V365.244H191.762ZM190.138 363.872H202.402V370.424H190.138V363.872ZM192.266 366.196L193.274 365.748C193.862 366.448 194.394 367.484 194.562 368.184L193.442 368.716C193.302 368.016 192.826 366.98 192.266 366.196ZM193.722 377.536L195.178 377.256C195.542 378.6 195.738 380.364 195.766 381.512L194.198 381.792C194.226 380.644 194.058 378.908 193.722 377.536ZM196.494 377.452L197.81 377.004C198.426 378.152 198.986 379.664 199.182 380.672L197.782 381.148C197.614 380.14 197.054 378.6 196.494 377.452ZM199.378 377.2L200.638 376.584C201.422 377.452 202.234 378.628 202.598 379.44L201.198 380.168C200.89 379.356 200.106 378.096 199.378 377.2ZM191.202 377.144L192.77 377.62C192.406 379.552 191.79 381.428 190.362 382.52L188.934 381.568C190.222 380.616 190.922 378.908 191.202 377.144ZM199.014 365.664L200.162 366.224C199.602 367.176 199.014 368.1 198.538 368.716L197.614 368.268C198.062 367.54 198.706 366.392 199.014 365.664ZM195.374 364.152H196.914V369.64H197.054V375.52H195.234V369.64H195.374V364.152Z" fill="#57687C"/>
<path d="M259.806 15.56H259.678C259.358 16.456 258.974 17.5227 258.526 18.76C258.099 19.9973 257.651 21.2773 257.182 22.6C256.734 23.9013 256.307 25.1173 255.902 26.248L255.742 26.728C255.614 27.112 255.454 27.592 255.262 28.168C255.07 28.744 254.867 29.352 254.654 29.992C254.44 30.6107 254.238 31.1973 254.046 31.752C253.854 32.2853 253.704 32.7227 253.598 33.064C253.448 33.128 253.288 33.1707 253.118 33.192C252.968 33.2347 252.776 33.256 252.542 33.256C252.2 33.256 251.891 33.1707 251.614 33C251.358 32.808 251.23 32.5093 251.23 32.104C251.23 31.912 251.262 31.72 251.326 31.528C251.39 31.3147 251.464 31.0907 251.55 30.856C251.806 30.1307 252.115 29.2453 252.478 28.2C252.862 27.1547 253.278 26.0133 253.726 24.776C254.174 23.5387 254.643 22.2693 255.134 20.968C255.624 19.6667 256.104 18.3973 256.574 17.16C257.043 15.9227 257.48 14.792 257.886 13.768C258.056 13.6827 258.312 13.5973 258.654 13.512C258.995 13.4267 259.347 13.384 259.71 13.384C260.136 13.384 260.542 13.448 260.926 13.576C261.331 13.704 261.587 13.9173 261.694 14.216C262.206 15.4533 262.75 16.8613 263.326 18.44C263.923 19.9973 264.52 21.6293 265.118 23.336C265.715 25.0213 266.28 26.664 266.814 28.264C267.368 29.864 267.859 31.3147 268.286 32.616C268.136 32.808 267.934 32.9573 267.678 33.064C267.443 33.192 267.176 33.256 266.878 33.256C266.472 33.256 266.163 33.1707 265.95 33C265.736 32.808 265.555 32.4987 265.406 32.072L263.646 26.856L263.39 25.96C262.963 24.6587 262.515 23.3467 262.046 22.024C261.598 20.7013 261.171 19.4747 260.766 18.344C260.382 17.2133 260.062 16.2853 259.806 15.56ZM254.494 27.816L255.326 25.672H264.254L264.766 27.816H254.494ZM275.287 21.384H277.879V32.936C277.772 32.9787 277.612 33.0213 277.399 33.064C277.186 33.128 276.951 33.16 276.695 33.16C276.226 33.16 275.874 33.064 275.639 32.872C275.404 32.68 275.287 32.3813 275.287 31.976V21.384ZM277.879 23.528H275.287V13.608C275.394 13.5653 275.554 13.5227 275.767 13.48C276.002 13.416 276.247 13.384 276.503 13.384C276.972 13.384 277.314 13.48 277.527 13.672C277.762 13.8427 277.879 14.1413 277.879 14.568V23.528Z" fill="#B4C7DD"/>
<path d="M19.8055 306.204H19.6775C19.3575 307.1 18.9735 308.166 18.5255 309.404C18.0989 310.641 17.6509 311.921 17.1815 313.244C16.7335 314.545 16.3069 315.761 15.9015 316.892L15.7415 317.372C15.6135 317.756 15.4535 318.236 15.2615 318.812C15.0695 319.388 14.8669 319.996 14.6535 320.636C14.4402 321.254 14.2375 321.841 14.0455 322.396C13.8535 322.929 13.7042 323.366 13.5975 323.708C13.4482 323.772 13.2882 323.814 13.1175 323.836C12.9682 323.878 12.7762 323.9 12.5415 323.9C12.2002 323.9 11.8909 323.814 11.6135 323.644C11.3575 323.452 11.2295 323.153 11.2295 322.748C11.2295 322.556 11.2615 322.364 11.3255 322.172C11.3895 321.958 11.4642 321.734 11.5495 321.5C11.8055 320.774 12.1149 319.889 12.4775 318.844C12.8615 317.798 13.2775 316.657 13.7255 315.42C14.1735 314.182 14.6429 312.913 15.1335 311.612C15.6242 310.31 16.1042 309.041 16.5735 307.804C17.0429 306.566 17.4802 305.436 17.8855 304.412C18.0562 304.326 18.3122 304.241 18.6535 304.156C18.9949 304.07 19.3469 304.028 19.7095 304.028C20.1362 304.028 20.5415 304.092 20.9255 304.22C21.3309 304.348 21.5869 304.561 21.6935 304.86C22.2055 306.097 22.7495 307.505 23.3255 309.084C23.9229 310.641 24.5202 312.273 25.1175 313.98C25.7149 315.665 26.2802 317.308 26.8135 318.908C27.3682 320.508 27.8589 321.958 28.2855 323.26C28.1362 323.452 27.9335 323.601 27.6775 323.708C27.4429 323.836 27.1762 323.9 26.8775 323.9C26.4722 323.9 26.1629 323.814 25.9495 323.644C25.7362 323.452 25.5549 323.142 25.4055 322.716L23.6455 317.5L23.3895 316.604C22.9629 315.302 22.5149 313.99 22.0455 312.668C21.5975 311.345 21.1709 310.118 20.7655 308.988C20.3815 307.857 20.0615 306.929 19.8055 306.204ZM14.4935 318.46L15.3255 316.316H24.2535L24.7655 318.46H14.4935ZM35.287 312.028H37.879V323.58C37.7724 323.622 37.6124 323.665 37.399 323.708C37.1857 323.772 36.951 323.804 36.695 323.804C36.2257 323.804 35.8737 323.708 35.639 323.516C35.4044 323.324 35.287 323.025 35.287 322.62V312.028ZM37.879 314.172H35.287V304.252C35.3937 304.209 35.5537 304.166 35.767 304.124C36.0017 304.06 36.247 304.028 36.503 304.028C36.9724 304.028 37.3137 304.124 37.527 304.316C37.7617 304.486 37.879 304.785 37.879 305.212V314.172Z" fill="#B4C7DD"/>
<path d="M234.806 339.263H234.678C234.358 340.159 233.974 341.226 233.526 342.463C233.099 343.7 232.651 344.98 232.182 346.303C231.734 347.604 231.307 348.82 230.902 349.951L230.742 350.431C230.614 350.815 230.454 351.295 230.262 351.871C230.07 352.447 229.867 353.055 229.654 353.695C229.44 354.314 229.238 354.9 229.046 355.455C228.854 355.988 228.704 356.426 228.598 356.767C228.448 356.831 228.288 356.874 228.118 356.895C227.968 356.938 227.776 356.959 227.542 356.959C227.2 356.959 226.891 356.874 226.614 356.703C226.358 356.511 226.23 356.212 226.23 355.807C226.23 355.615 226.262 355.423 226.326 355.231C226.39 355.018 226.464 354.794 226.55 354.559C226.806 353.834 227.115 352.948 227.478 351.903C227.862 350.858 228.278 349.716 228.726 348.479C229.174 347.242 229.643 345.972 230.134 344.671C230.624 343.37 231.104 342.1 231.574 340.863C232.043 339.626 232.48 338.495 232.886 337.471C233.056 337.386 233.312 337.3 233.654 337.215C233.995 337.13 234.347 337.087 234.71 337.087C235.136 337.087 235.542 337.151 235.926 337.279C236.331 337.407 236.587 337.62 236.694 337.919C237.206 339.156 237.75 340.564 238.326 342.143C238.923 343.7 239.52 345.332 240.118 347.039C240.715 348.724 241.28 350.367 241.814 351.967C242.368 353.567 242.859 355.018 243.286 356.319C243.136 356.511 242.934 356.66 242.678 356.767C242.443 356.895 242.176 356.959 241.878 356.959C241.472 356.959 241.163 356.874 240.95 356.703C240.736 356.511 240.555 356.202 240.406 355.775L238.646 350.559L238.39 349.663C237.963 348.362 237.515 347.05 237.046 345.727C236.598 344.404 236.171 343.178 235.766 342.047C235.382 340.916 235.062 339.988 234.806 339.263ZM229.494 351.519L230.326 349.375H239.254L239.766 351.519H229.494ZM250.287 345.087H252.879V356.639C252.772 356.682 252.612 356.724 252.399 356.767C252.186 356.831 251.951 356.863 251.695 356.863C251.226 356.863 250.874 356.767 250.639 356.575C250.404 356.383 250.287 356.084 250.287 355.679V345.087ZM252.879 347.231H250.287V337.311C250.394 337.268 250.554 337.226 250.767 337.183C251.002 337.119 251.247 337.087 251.503 337.087C251.972 337.087 252.314 337.183 252.527 337.375C252.762 337.546 252.879 337.844 252.879 338.271V347.231Z" fill="#B4C7DD"/>
<path d="M188.83 229.942H209.278V232.498H188.83V229.942ZM188.866 225.442H211.762V236.998H188.866V234.082H207.478V228.322H188.866V225.442ZM196.822 227.026H200.962V237.106C200.962 238.438 201.358 238.654 203.554 238.654C204.562 238.654 209.098 238.654 210.394 238.654C212.194 238.654 212.554 238.078 212.77 235.018C213.67 235.63 215.29 236.17 216.406 236.386C215.902 240.778 214.678 241.93 210.754 241.93C209.602 241.93 204.238 241.93 203.158 241.93C198.19 241.93 196.822 240.886 196.822 237.106V227.026ZM186.706 225.442H190.846V238.582H186.706V225.442ZM185.842 209.53H212.554V212.698H185.842V209.53ZM188.614 218.134H195.742V220.474H188.614V218.134ZM187.93 221.734H195.742V224.074H187.93V221.734ZM202.618 221.734H210.502V224.074H202.618V221.734ZM202.618 218.134H209.674V220.474H202.618V218.134ZM197.038 210.79H201.25V224.47H197.038V210.79ZM183.394 214.03H215.182V221.41H211.186V216.91H187.21V221.41H183.394V214.03ZM222.958 231.526H239.77V234.586H222.958V231.526ZM222.13 214.39H240.13V217.522H222.13V214.39ZM229.294 211.834H233.182V237.646H229.294V211.834ZM221.95 237.25C226.414 236.926 233.29 236.422 239.77 235.846L239.806 239.122C233.686 239.77 227.134 240.418 222.454 240.85L221.95 237.25ZM226.522 225.766V227.422H236.026V225.766H226.522ZM226.522 221.626V223.246H236.026V221.626H226.522ZM223.066 218.926H239.59V230.122H223.066V218.926ZM237.826 208.414L239.734 211.654C235.126 212.59 228.574 213.13 223.174 213.238C223.03 212.374 222.634 211.006 222.238 210.178C227.602 209.926 233.866 209.278 237.826 208.414ZM240.13 216.37H252.586V220.33H240.13V216.37ZM250.858 216.37H254.998C254.998 216.37 254.962 217.774 254.962 218.278C254.638 233.11 254.35 238.366 253.162 239.986C252.37 241.21 251.542 241.606 250.354 241.822C249.238 242.038 247.546 242.038 245.854 241.966C245.746 240.778 245.278 239.014 244.594 237.862C246.142 238.006 247.51 238.006 248.23 238.006C248.77 238.006 249.13 237.898 249.454 237.394C250.282 236.314 250.57 231.238 250.858 217.306V216.37ZM243.586 208.846H247.726C247.69 224.218 247.654 235.774 239.338 242.326C238.726 241.282 237.322 239.806 236.35 239.086C243.946 233.29 243.55 223.21 243.586 208.846ZM262.954 211.186H293.914V215.11H262.954V211.186ZM262.09 233.326H294.994V237.214H262.09V233.326ZM276.094 208.234H280.558V242.074H276.094V208.234ZM269.83 225.694V227.926H286.858V225.694H269.83ZM269.83 220.294V222.49H286.858V220.294H269.83ZM265.69 216.838H291.214V231.382H265.69V216.838Z" fill="#2C3E50"/>
<path d="M6.38953 207.105H34.3095V241.745H29.1495V211.945H11.3495V241.785H6.38953V207.105ZM9.78953 220.545H31.3095V225.305H9.78953V220.545ZM9.74953 234.345H31.3095V239.185H9.74953V234.345ZM55.0295 206.585H75.0295V211.265H55.0295V206.585ZM55.0695 216.145H75.2295V220.705H55.0695V216.145ZM54.8695 225.625H74.9495V230.265H54.8695V225.625ZM51.7495 206.585H56.6695V219.825C56.6695 226.785 55.5895 236.585 48.8295 242.265C48.1095 241.265 46.1495 239.465 45.1095 238.825C51.1895 233.665 51.7495 225.945 51.7495 219.825V206.585ZM72.7895 206.585H77.8695V236.185C77.8695 239.025 77.1895 240.465 75.3495 241.265C73.4295 242.105 70.5895 242.185 66.4295 242.185C66.1495 240.745 65.2295 238.425 64.4295 237.145C67.2695 237.305 70.5895 237.265 71.5495 237.265C72.4695 237.225 72.7895 236.945 72.7895 236.105V206.585ZM110.87 222.985H115.71V235.985C115.71 237.425 115.91 237.625 117.23 237.625C117.83 237.625 120.19 237.625 120.91 237.625C122.23 237.625 122.43 236.745 122.63 231.265C123.63 232.065 125.75 232.905 126.99 233.225C126.51 240.225 125.31 242.145 121.31 242.145C120.43 242.145 117.35 242.145 116.51 242.145C111.99 242.145 110.87 240.625 110.87 235.985V222.985ZM100.07 223.185H105.19C104.55 231.945 102.91 238.705 92.1095 242.305C91.5895 241.065 90.2295 239.105 89.1895 238.105C98.7095 235.265 99.5495 230.105 100.07 223.185ZM93.1095 208.025L97.4295 206.425C99.2695 209.425 101.23 213.425 101.91 216.105L97.2295 217.985C96.6695 215.345 94.8695 211.185 93.1095 208.025ZM118.99 206.105L124.11 207.865C122.35 211.425 120.27 215.265 118.59 217.745L114.39 216.145C116.03 213.505 117.99 209.305 118.99 206.105ZM90.2295 219.385H126.39V223.905H90.2295V219.385ZM105.67 204.705H110.55V221.225H105.67V204.705Z" fill="#2C3E50"/>
<path d="M150.39 105.173H178.31V139.813H173.15V110.013H155.35V139.853H150.39V105.173ZM153.79 118.613H175.31V123.373H153.79V118.613ZM153.75 132.413H175.31V137.253H153.75V132.413ZM199.03 104.653H219.03V109.333H199.03V104.653ZM199.07 114.213H219.23V118.773H199.07V114.213ZM198.87 123.693H218.95V128.333H198.87V123.693ZM195.75 104.653H200.67V117.893C200.67 124.853 199.59 134.653 192.83 140.333C192.11 139.333 190.15 137.533 189.11 136.893C195.19 131.733 195.75 124.013 195.75 117.893V104.653ZM216.79 104.653H221.87V134.253C221.87 137.093 221.19 138.533 219.35 139.333C217.43 140.173 214.59 140.253 210.43 140.253C210.15 138.813 209.23 136.493 208.43 135.213C211.27 135.373 214.59 135.333 215.55 135.333C216.47 135.293 216.79 135.013 216.79 134.173V104.653ZM254.87 121.053H259.71V134.053C259.71 135.493 259.91 135.693 261.23 135.693C261.83 135.693 264.19 135.693 264.91 135.693C266.23 135.693 266.43 134.813 266.63 129.333C267.63 130.133 269.75 130.973 270.99 131.293C270.51 138.293 269.31 140.213 265.31 140.213C264.43 140.213 261.35 140.213 260.51 140.213C255.99 140.213 254.87 138.693 254.87 134.053V121.053ZM244.07 121.253H249.19C248.55 130.013 246.91 136.773 236.11 140.373C235.59 139.133 234.23 137.173 233.19 136.173C242.71 133.333 243.55 128.173 244.07 121.253ZM237.11 106.093L241.43 104.493C243.27 107.493 245.23 111.493 245.91 114.173L241.23 116.053C240.67 113.413 238.87 109.253 237.11 106.093ZM262.99 104.173L268.11 105.933C266.35 109.493 264.27 113.333 262.59 115.813L258.39 114.213C260.03 111.573 261.99 107.373 262.99 104.173ZM234.23 117.453H270.39V121.973H234.23V117.453ZM249.67 102.773H254.55V119.293H249.67V102.773Z" fill="#2C3E50"/>
<path d="M54.1935 356.839C54.1935 357.082 54.1095 357.306 53.9415 357.511C53.7922 357.698 53.6149 357.838 53.4095 357.931C52.9429 357.595 52.3735 357.278 51.7015 356.979C51.0482 356.681 50.1989 356.531 49.1535 356.531C48.0149 356.531 46.9882 356.793 46.0735 357.315C45.1775 357.838 44.4589 358.622 43.9175 359.667C43.3949 360.694 43.1335 361.973 43.1335 363.503C43.1335 365.799 43.6935 367.526 44.8135 368.683C45.9522 369.841 47.4269 370.419 49.2375 370.419C50.2082 370.419 51.0575 370.279 51.7855 369.999C52.5135 369.719 53.1109 369.402 53.5775 369.047C53.7642 369.122 53.9415 369.262 54.1095 369.467C54.2775 369.654 54.3615 369.878 54.3615 370.139C54.3615 370.326 54.3055 370.513 54.1935 370.699C54.1002 370.867 53.9322 371.035 53.6895 371.203C53.2602 371.502 52.6722 371.763 51.9255 371.987C51.1789 372.23 50.2269 372.351 49.0695 372.351C47.5202 372.351 46.1109 372.025 44.8415 371.371C43.5909 370.699 42.6015 369.71 41.8735 368.403C41.1455 367.097 40.7815 365.463 40.7815 363.503C40.7815 361.543 41.1549 359.901 41.9015 358.575C42.6669 357.25 43.6655 356.261 44.8975 355.607C46.1482 354.935 47.5109 354.599 48.9855 354.599C50.0122 354.599 50.9175 354.711 51.7015 354.935C52.4855 355.159 53.0922 355.449 53.5215 355.803C53.9695 356.139 54.1935 356.485 54.1935 356.839ZM63.2905 364.007H66.0065C67.4998 364.007 68.6571 363.699 69.4785 363.083C70.2998 362.449 70.7105 361.497 70.7105 360.227C70.7105 358.958 70.3091 358.034 69.5065 357.455C68.7225 356.858 67.5931 356.559 66.1185 356.559C65.6145 356.559 65.1105 356.587 64.6065 356.643C64.1211 356.681 63.6825 356.737 63.2905 356.811V364.007ZM66.1465 365.911H61.0225V356.195C61.0225 355.897 61.0971 355.673 61.2465 355.523C61.4145 355.355 61.6478 355.225 61.9465 355.131C62.4878 354.963 63.1411 354.842 63.9065 354.767C64.6905 354.693 65.4465 354.655 66.1745 354.655C68.5451 354.655 70.2718 355.159 71.3545 356.167C72.4558 357.157 73.0065 358.501 73.0065 360.199C73.0065 361.357 72.7545 362.365 72.2505 363.223C71.7651 364.082 71.0185 364.745 70.0105 365.211C69.0025 365.678 67.7145 365.911 66.1465 365.911ZM61.0225 364.819H63.3185V371.931C63.2065 371.969 63.0571 372.006 62.8705 372.043C62.6838 372.099 62.4785 372.127 62.2545 372.127C61.8438 372.127 61.5358 372.043 61.3305 371.875C61.1251 371.707 61.0225 371.446 61.0225 371.091V364.819ZM86.2892 372.351C84.8892 372.351 83.6945 372.099 82.7052 371.595C81.7159 371.073 80.9599 370.345 80.4372 369.411C79.9332 368.459 79.6812 367.358 79.6812 366.107V363.811H81.9492V365.911C81.9492 367.405 82.3599 368.534 83.1812 369.299C84.0212 370.046 85.0572 370.419 86.2892 370.419C87.5212 370.419 88.5479 370.046 89.3692 369.299C90.2092 368.534 90.6292 367.405 90.6292 365.911V363.811H92.9252V366.107C92.9252 367.358 92.6639 368.459 92.1412 369.411C91.6372 370.345 90.8905 371.073 89.9012 371.595C88.9119 372.099 87.7079 372.351 86.2892 372.351ZM81.9492 364.959H79.6812V355.019C79.7745 354.982 79.9145 354.945 80.1012 354.907C80.3065 354.851 80.5212 354.823 80.7452 354.823C81.1559 354.823 81.4545 354.907 81.6412 355.075C81.8465 355.225 81.9492 355.486 81.9492 355.859V364.959ZM92.9252 364.959H90.6292V355.019C90.7225 354.982 90.8625 354.945 91.0492 354.907C91.2545 354.851 91.4692 354.823 91.6932 354.823C92.1039 354.823 92.4119 354.907 92.6172 355.075C92.8225 355.225 92.9252 355.486 92.9252 355.859V364.959Z" fill="#B4C7DD"/>
<path d="M257.194 365.104C257.194 365.347 257.11 365.571 256.942 365.776C256.792 365.963 256.615 366.103 256.41 366.196C255.943 365.86 255.374 365.543 254.702 365.244C254.048 364.945 253.199 364.796 252.154 364.796C251.015 364.796 249.988 365.057 249.074 365.58C248.178 366.103 247.459 366.887 246.918 367.932C246.395 368.959 246.134 370.237 246.134 371.768C246.134 374.064 246.694 375.791 247.814 376.948C248.952 378.105 250.427 378.684 252.238 378.684C253.208 378.684 254.058 378.544 254.786 378.264C255.514 377.984 256.111 377.667 256.578 377.312C256.764 377.387 256.942 377.527 257.11 377.732C257.278 377.919 257.362 378.143 257.362 378.404C257.362 378.591 257.306 378.777 257.194 378.964C257.1 379.132 256.932 379.3 256.69 379.468C256.26 379.767 255.672 380.028 254.926 380.252C254.179 380.495 253.227 380.616 252.07 380.616C250.52 380.616 249.111 380.289 247.842 379.636C246.591 378.964 245.602 377.975 244.874 376.668C244.146 375.361 243.782 373.728 243.782 371.768C243.782 369.808 244.155 368.165 244.902 366.84C245.667 365.515 246.666 364.525 247.898 363.872C249.148 363.2 250.511 362.864 251.986 362.864C253.012 362.864 253.918 362.976 254.702 363.2C255.486 363.424 256.092 363.713 256.522 364.068C256.97 364.404 257.194 364.749 257.194 365.104ZM266.29 372.272H269.006C270.5 372.272 271.657 371.964 272.478 371.348C273.3 370.713 273.71 369.761 273.71 368.492C273.71 367.223 273.309 366.299 272.506 365.72C271.722 365.123 270.593 364.824 269.118 364.824C268.614 364.824 268.11 364.852 267.606 364.908C267.121 364.945 266.682 365.001 266.29 365.076V372.272ZM269.146 374.176H264.022V364.46C264.022 364.161 264.097 363.937 264.246 363.788C264.414 363.62 264.648 363.489 264.946 363.396C265.488 363.228 266.141 363.107 266.906 363.032C267.69 362.957 268.446 362.92 269.174 362.92C271.545 362.92 273.272 363.424 274.354 364.432C275.456 365.421 276.006 366.765 276.006 368.464C276.006 369.621 275.754 370.629 275.25 371.488C274.765 372.347 274.018 373.009 273.01 373.476C272.002 373.943 270.714 374.176 269.146 374.176ZM264.022 373.084H266.318V380.196C266.206 380.233 266.057 380.271 265.87 380.308C265.684 380.364 265.478 380.392 265.254 380.392C264.844 380.392 264.536 380.308 264.33 380.14C264.125 379.972 264.022 379.711 264.022 379.356V373.084ZM289.289 380.616C287.889 380.616 286.695 380.364 285.705 379.86C284.716 379.337 283.96 378.609 283.437 377.676C282.933 376.724 282.681 375.623 282.681 374.372V372.076H284.949V374.176C284.949 375.669 285.36 376.799 286.181 377.564C287.021 378.311 288.057 378.684 289.289 378.684C290.521 378.684 291.548 378.311 292.369 377.564C293.209 376.799 293.629 375.669 293.629 374.176V372.076H295.925V374.372C295.925 375.623 295.664 376.724 295.141 377.676C294.637 378.609 293.891 379.337 292.901 379.86C291.912 380.364 290.708 380.616 289.289 380.616ZM284.949 373.224H282.681V363.284C282.775 363.247 282.915 363.209 283.101 363.172C283.307 363.116 283.521 363.088 283.745 363.088C284.156 363.088 284.455 363.172 284.641 363.34C284.847 363.489 284.949 363.751 284.949 364.124V373.224ZM295.925 373.224H293.629V363.284C293.723 363.247 293.863 363.209 294.049 363.172C294.255 363.116 294.469 363.088 294.693 363.088C295.104 363.088 295.412 363.172 295.617 363.34C295.823 363.489 295.925 363.751 295.925 364.124V373.224Z" fill="#B4C7DD"/>
<path d="M35.1935 18.6733C35.1935 18.916 35.1095 19.14 34.9415 19.3453C34.7922 19.532 34.6149 19.672 34.4095 19.7653C33.9429 19.4293 33.3735 19.112 32.7015 18.8133C32.0482 18.5146 31.1989 18.3653 30.1535 18.3653C29.0149 18.3653 27.9882 18.6266 27.0735 19.1493C26.1775 19.672 25.4589 20.456 24.9175 21.5013C24.3949 22.528 24.1335 23.8066 24.1335 25.3373C24.1335 27.6333 24.6935 29.36 25.8135 30.5173C26.9522 31.6746 28.4269 32.2533 30.2375 32.2533C31.2082 32.2533 32.0575 32.1133 32.7855 31.8333C33.5135 31.5533 34.1109 31.236 34.5775 30.8813C34.7642 30.956 34.9415 31.096 35.1095 31.3013C35.2775 31.488 35.3615 31.712 35.3615 31.9733C35.3615 32.16 35.3055 32.3466 35.1935 32.5333C35.1002 32.7013 34.9322 32.8693 34.6895 33.0373C34.2602 33.336 33.6722 33.5973 32.9255 33.8213C32.1789 34.064 31.2269 34.1853 30.0695 34.1853C28.5202 34.1853 27.1109 33.8586 25.8415 33.2053C24.5909 32.5333 23.6015 31.544 22.8735 30.2373C22.1455 28.9306 21.7815 27.2973 21.7815 25.3373C21.7815 23.3773 22.1549 21.7346 22.9015 20.4093C23.6669 19.084 24.6655 18.0946 25.8975 17.4413C27.1482 16.7693 28.5109 16.4333 29.9855 16.4333C31.0122 16.4333 31.9175 16.5453 32.7015 16.7693C33.4855 16.9933 34.0922 17.2826 34.5215 17.6373C34.9695 17.9733 35.1935 18.3186 35.1935 18.6733ZM44.2905 25.8413H47.0065C48.4998 25.8413 49.6571 25.5333 50.4785 24.9173C51.2998 24.2826 51.7105 23.3306 51.7105 22.0613C51.7105 20.792 51.3091 19.868 50.5065 19.2893C49.7225 18.692 48.5931 18.3933 47.1185 18.3933C46.6145 18.3933 46.1105 18.4213 45.6065 18.4773C45.1211 18.5146 44.6825 18.5706 44.2905 18.6453V25.8413ZM47.1465 27.7453H42.0225V18.0293C42.0225 17.7306 42.0971 17.5066 42.2465 17.3573C42.4145 17.1893 42.6478 17.0586 42.9465 16.9653C43.4878 16.7973 44.1411 16.676 44.9065 16.6013C45.6905 16.5266 46.4465 16.4893 47.1745 16.4893C49.5451 16.4893 51.2718 16.9933 52.3545 18.0013C53.4558 18.9906 54.0065 20.3346 54.0065 22.0333C54.0065 23.1906 53.7545 24.1986 53.2505 25.0573C52.7651 25.916 52.0185 26.5786 51.0105 27.0453C50.0025 27.512 48.7145 27.7453 47.1465 27.7453ZM42.0225 26.6533H44.3185V33.7653C44.2065 33.8026 44.0571 33.84 43.8705 33.8773C43.6838 33.9333 43.4785 33.9613 43.2545 33.9613C42.8438 33.9613 42.5358 33.8773 42.3305 33.7093C42.1251 33.5413 42.0225 33.28 42.0225 32.9253V26.6533ZM67.2892 34.1853C65.8892 34.1853 64.6945 33.9333 63.7052 33.4293C62.7159 32.9066 61.9599 32.1786 61.4372 31.2453C60.9332 30.2933 60.6812 29.192 60.6812 27.9413V25.6453H62.9492V27.7453C62.9492 29.2386 63.3599 30.368 64.1812 31.1333C65.0212 31.88 66.0572 32.2533 67.2892 32.2533C68.5212 32.2533 69.5479 31.88 70.3692 31.1333C71.2092 30.368 71.6292 29.2386 71.6292 27.7453V25.6453H73.9252V27.9413C73.9252 29.192 73.6639 30.2933 73.1412 31.2453C72.6372 32.1786 71.8905 32.9066 70.9012 33.4293C69.9119 33.9333 68.7079 34.1853 67.2892 34.1853ZM62.9492 26.7933H60.6812V16.8533C60.7745 16.816 60.9145 16.7786 61.1012 16.7413C61.3065 16.6853 61.5212 16.6573 61.7452 16.6573C62.1559 16.6573 62.4545 16.7413 62.6412 16.9093C62.8465 17.0586 62.9492 17.32 62.9492 17.6933V26.7933ZM73.9252 26.7933H71.6292V16.8533C71.7225 16.816 71.8625 16.7786 72.0492 16.7413C72.2545 16.6853 72.4692 16.6573 72.6932 16.6573C73.1039 16.6573 73.4119 16.7413 73.6172 16.9093C73.8225 17.0586 73.9252 17.32 73.9252 17.6933V26.7933Z" fill="#B4C7DD"/>
<path d="M78.1415 57.1535H110.434V59.4935H78.1415V57.1535ZM78.5375 68.5295H110.074V70.9055H78.5375V68.5295ZM80.6975 51.3575H108.094V53.6615H80.6975V51.3575ZM80.1575 63.1295H108.706V65.3975H80.1575V63.1295ZM92.7935 52.2215H95.4575V75.7655H92.7935V52.2215ZM84.6935 52.4015H87.2135V64.2455H84.6935V52.4015ZM101.326 52.4015H103.882V64.2455H101.326V52.4015ZM86.6015 42.6095H89.2655V50.3495H86.6015V42.6095ZM99.0215 42.6095H101.686V50.3495H99.0215V42.6095ZM78.4655 45.1655H110.11V47.5775H78.4655V45.1655ZM139.486 42.6455H142.078V49.5215H139.486V42.6455ZM131.674 48.3335H150.358V50.7455H131.674V48.3335ZM136.138 54.6695H144.814V57.0815H136.138V54.6695ZM134.77 54.6695H137.326V62.7335C137.326 66.8015 136.75 72.1655 133.222 75.6575C132.754 75.2255 131.71 74.4335 131.134 74.1455C134.41 70.8695 134.77 66.2975 134.77 62.6615V54.6695ZM124.006 61.5815H125.77V70.1495H124.006V61.5815ZM120.838 47.4695H128.974V49.6655H120.838V47.4695ZM128.218 47.4695H130.486V72.8495C130.486 74.1455 130.198 74.8295 129.406 75.2255C128.542 75.5855 127.246 75.6215 125.05 75.6215C124.978 75.0095 124.618 74.0375 124.294 73.4255C125.842 73.4615 127.246 73.4615 127.642 73.4255C128.074 73.4255 128.218 73.2815 128.218 72.8495V47.4695ZM119.794 47.4695H122.026V60.5735C122.026 65.2535 121.63 71.6255 119.038 75.6935C118.642 75.2975 117.67 74.7215 117.13 74.4695C119.578 70.5455 119.794 64.9655 119.794 60.5735V47.4695ZM117.202 58.8455C121.054 58.6295 126.886 58.2335 132.574 57.8375L132.61 59.9975C127.138 60.4295 121.486 60.8615 117.49 61.1495L117.202 58.8455ZM123.142 51.8975L124.834 51.2135C125.842 52.7255 126.706 54.7775 126.994 56.1455L125.158 56.9015C124.87 55.5335 124.042 53.4455 123.142 51.8975ZM124.186 42.5735L127.03 43.1135C126.382 45.0575 125.626 47.1815 125.05 48.5495L122.674 48.0455C123.25 46.5335 123.898 44.1575 124.186 42.5735ZM143.374 54.6695H145.93V71.0495C145.93 71.9495 146.002 72.4895 146.11 72.6335C146.254 72.7415 146.434 72.8135 146.686 72.8135C146.902 72.8135 147.334 72.8135 147.622 72.8135C147.91 72.8135 148.198 72.7415 148.342 72.5975C148.522 72.4895 148.594 72.1655 148.666 71.5895C148.774 70.9415 148.81 69.5735 148.81 67.7375C149.314 68.1695 150.106 68.5655 150.718 68.7815C150.718 70.4015 150.61 72.4535 150.43 73.1375C150.25 73.8935 149.926 74.3615 149.458 74.6855C149.062 74.9735 148.378 75.1175 147.73 75.1175C147.298 75.1175 146.434 75.1175 146.038 75.1175C145.354 75.1175 144.598 74.9375 144.058 74.4695C143.554 73.9655 143.374 73.3535 143.374 70.9055V54.6695Z" fill="#57687C"/>
<path d="M138.854 268.018H171.65V271.654H138.854V268.018ZM139.358 279.538H171.254V283.246H139.358V279.538ZM141.626 262.366H169.13V265.93H141.626V262.366ZM141.23 273.922H169.562V277.45H141.23V273.922ZM152.966 263.77H157.25V287.494H152.966V263.77ZM145.262 264.202H149.258V275.614H145.262V264.202ZM161.21 264.202H165.206V275.614H161.21V264.202ZM146.774 253.69H151.022V261.574H146.774V253.69ZM159.266 253.69H163.514V261.574H159.266V253.69ZM139.25 255.706H171.29V259.522H139.25V255.706ZM200.018 253.69H204.194V260.926H200.018V253.69ZM193.034 259.126H211.61V262.906H193.034V259.126ZM197.894 265.75H205.814V269.494H197.894V265.75ZM195.734 265.75H199.766V273.922C199.766 278.242 199.19 284.002 195.698 287.53C194.978 286.846 193.25 285.586 192.314 285.154C195.446 281.95 195.734 277.45 195.734 273.85V265.75ZM184.754 273.202H187.238V281.482H184.754V273.202ZM181.982 258.55H189.578V261.898H181.982V258.55ZM188.678 258.55H192.17V283.606C192.17 285.262 191.882 286.234 190.874 286.846C189.866 287.422 188.462 287.494 186.41 287.494C186.302 286.522 185.798 284.974 185.366 284.11C186.554 284.146 187.778 284.146 188.138 284.11C188.57 284.11 188.678 283.966 188.678 283.57V258.55ZM180.29 258.55H183.674V271.726C183.674 276.622 183.278 283.318 180.686 287.458C180.074 286.882 178.562 285.946 177.734 285.586C180.11 281.734 180.29 276.154 180.29 271.726V258.55ZM177.806 269.854C181.91 269.566 188.066 269.026 193.898 268.486L194.006 271.762C188.39 272.302 182.486 272.878 178.238 273.31L177.806 269.854ZM183.998 263.734L186.518 262.726C187.382 264.094 188.138 266.002 188.354 267.262L185.654 268.378C185.438 267.118 184.79 265.174 183.998 263.734ZM184.538 253.654L189.11 254.374C188.426 256.498 187.706 258.622 187.166 259.99L183.35 259.306C183.854 257.686 184.358 255.346 184.538 253.654ZM203.582 265.75H207.65V281.842C207.65 282.634 207.686 283.066 207.758 283.21C207.83 283.318 207.938 283.39 208.118 283.39C208.226 283.39 208.478 283.39 208.622 283.39C208.802 283.39 208.982 283.354 209.09 283.21C209.198 283.102 209.234 282.778 209.306 282.166C209.378 281.482 209.414 280.078 209.414 278.278C210.134 278.89 211.358 279.538 212.294 279.862C212.258 281.59 212.114 283.75 211.898 284.578C211.682 285.478 211.322 286.054 210.746 286.45C210.242 286.846 209.45 286.99 208.73 286.99C208.154 286.99 207.362 286.99 206.894 286.99C206.03 286.99 205.058 286.738 204.446 286.09C203.834 285.442 203.582 284.614 203.582 281.95V265.75Z" fill="#2C3E50"/>
<path d="M24.1415 123.272H56.4335V125.612H24.1415V123.272ZM24.5375 134.648H56.0735V137.024H24.5375V134.648ZM26.6975 117.476H54.0935V119.78H26.6975V117.476ZM26.1575 129.248H54.7055V131.516H26.1575V129.248ZM38.7935 118.34H41.4575V141.884H38.7935V118.34ZM30.6935 118.52H33.2135V130.364H30.6935V118.52ZM47.3255 118.52H49.8815V130.364H47.3255V118.52ZM32.6015 108.728H35.2655V116.468H32.6015V108.728ZM45.0215 108.728H47.6855V116.468H45.0215V108.728ZM24.4655 111.284H56.1095V113.696H24.4655V111.284ZM85.4855 108.764H88.0775V115.64H85.4855V108.764ZM77.6735 114.452H96.3575V116.864H77.6735V114.452ZM82.1375 120.788H90.8135V123.2H82.1375V120.788ZM80.7695 120.788H83.3255V128.852C83.3255 132.92 82.7495 138.284 79.2215 141.776C78.7535 141.344 77.7095 140.552 77.1335 140.264C80.4095 136.988 80.7695 132.416 80.7695 128.78V120.788ZM70.0055 127.7H71.7695V136.268H70.0055V127.7ZM66.8375 113.588H74.9735V115.784H66.8375V113.588ZM74.2175 113.588H76.4855V138.968C76.4855 140.264 76.1975 140.948 75.4055 141.344C74.5415 141.704 73.2455 141.74 71.0495 141.74C70.9775 141.128 70.6175 140.156 70.2935 139.544C71.8415 139.58 73.2455 139.58 73.6415 139.544C74.0735 139.544 74.2175 139.4 74.2175 138.968V113.588ZM65.7935 113.588H68.0255V126.692C68.0255 131.372 67.6295 137.744 65.0375 141.812C64.6415 141.416 63.6695 140.84 63.1295 140.588C65.5775 136.664 65.7935 131.084 65.7935 126.692V113.588ZM63.2015 124.964C67.0535 124.748 72.8855 124.352 78.5735 123.956L78.6095 126.116C73.1375 126.548 67.4855 126.98 63.4895 127.268L63.2015 124.964ZM69.1415 118.016L70.8335 117.332C71.8415 118.844 72.7055 120.896 72.9935 122.264L71.1575 123.02C70.8695 121.652 70.0415 119.564 69.1415 118.016ZM70.1855 108.692L73.0295 109.232C72.3815 111.176 71.6255 113.3 71.0495 114.668L68.6735 114.164C69.2495 112.652 69.8975 110.276 70.1855 108.692ZM89.3735 120.788H91.9295V137.168C91.9295 138.068 92.0015 138.608 92.1095 138.752C92.2535 138.86 92.4335 138.932 92.6855 138.932C92.9015 138.932 93.3335 138.932 93.6215 138.932C93.9095 138.932 94.1975 138.86 94.3415 138.716C94.5215 138.608 94.5935 138.284 94.6655 137.708C94.7735 137.06 94.8095 135.692 94.8095 133.856C95.3135 134.288 96.1055 134.684 96.7175 134.9C96.7175 136.52 96.6095 138.572 96.4295 139.256C96.2495 140.012 95.9255 140.48 95.4575 140.804C95.0615 141.092 94.3775 141.236 93.7295 141.236C93.2975 141.236 92.4335 141.236 92.0375 141.236C91.3535 141.236 90.5975 141.056 90.0575 140.588C89.5535 140.084 89.3735 139.472 89.3735 137.024V120.788Z" fill="#57687C"/>
<path d="M22.6135 269.462H33.9175V270.998H22.6135V269.462ZM22.2295 273.854H33.9415V275.414H22.2295V273.854ZM24.8695 280.118H31.6615V281.486H24.8695V280.118ZM24.8695 283.214H31.6615V284.606H24.8695V283.214ZM25.0375 266.774H26.6935V274.814H25.0375V266.774ZM29.7895 266.774H31.4455V274.814H29.7895V266.774ZM23.9335 276.998H31.7575V278.438H25.6135V288.638H23.9335V276.998ZM30.8695 276.998H32.5735V286.766C32.5735 287.63 32.3815 288.086 31.7815 288.35C31.2055 288.59 30.2455 288.614 28.7575 288.614C28.7095 288.182 28.4695 287.534 28.2535 287.102C29.2855 287.15 30.2215 287.126 30.5095 287.126C30.7975 287.102 30.8695 287.006 30.8695 286.742V276.998ZM35.7655 271.046H44.3095V272.726H35.7655V271.046ZM36.3655 266.558L38.1175 266.822C37.3975 271.358 36.1735 275.774 34.2535 278.654C34.0135 278.294 33.3655 277.526 32.9815 277.19C34.7095 274.622 35.7655 270.614 36.3655 266.558ZM41.0215 271.958L42.7975 272.126C41.7175 280.286 39.3655 285.494 33.7255 288.71C33.5335 288.302 33.0055 287.51 32.6455 287.15C37.9975 284.39 40.1095 279.446 41.0215 271.958ZM36.7015 272.462C37.7815 279.062 40.0375 284.75 44.5015 287.126C44.0695 287.486 43.4935 288.182 43.2055 288.662C38.6215 285.878 36.4135 279.95 35.2375 272.702L36.7015 272.462ZM50.0455 268.31H58.7815V269.63H50.0455V268.31ZM60.0295 269.99H67.4455V271.598H60.0295V269.99ZM49.1335 271.43H59.5735V272.798H49.1335V271.43ZM53.5735 266.678H55.2055V272.078H53.5735V266.678ZM53.5735 275.63H55.2055V281.63H53.5735V275.63ZM49.7335 277.358H58.9495V278.75H49.7335V277.358ZM48.8935 281.342C51.5575 281.15 55.6135 280.766 59.5495 280.358V281.774C55.7575 282.182 51.8215 282.614 49.0615 282.878L48.8935 281.342ZM55.2775 272.198H56.6695V274.358C56.6695 274.718 56.7175 274.766 57.0775 274.766C57.2215 274.766 57.9415 274.766 58.1335 274.766C58.4935 274.766 58.5415 274.646 58.6135 273.566C58.8775 273.806 59.4295 273.95 59.8135 274.046C59.6935 275.582 59.2855 275.99 58.3495 275.99C58.1095 275.99 57.1255 275.99 56.8855 275.99C55.5895 275.99 55.2775 275.678 55.2775 274.358V272.198ZM62.7895 266.558H64.4215C64.3255 274.454 64.0615 280.022 59.9335 283.19C59.6695 282.806 59.1655 282.254 58.7575 282.014C62.5735 279.134 62.7175 273.974 62.7895 266.558ZM59.8375 274.91L60.6295 273.614C62.5975 274.79 65.1175 276.542 66.3175 277.766L65.4775 279.254C64.3015 277.982 61.8055 276.134 59.8375 274.91ZM66.6055 269.99H68.2615V280.094C68.2615 280.694 68.2615 281.078 68.3575 281.198C68.4295 281.27 68.5255 281.294 68.6455 281.294C68.7655 281.294 68.9815 281.294 69.1255 281.294C69.2935 281.294 69.4375 281.27 69.5095 281.15C69.6055 281.054 69.6535 280.814 69.7015 280.382C69.7495 279.878 69.7735 278.846 69.7735 277.454C70.0855 277.766 70.5895 278.006 71.0215 278.126C70.9975 279.374 70.9015 280.886 70.8055 281.39C70.7095 281.942 70.5175 282.278 70.2295 282.47C69.9655 282.662 69.5815 282.758 69.1735 282.758C68.9095 282.758 68.4775 282.758 68.2375 282.758C67.8295 282.758 67.3495 282.638 67.0135 282.326C66.7015 282.014 66.6055 281.63 66.6055 279.974V269.99ZM55.8775 284.366L57.5335 284.222C57.8455 285.542 58.0855 287.198 58.1095 288.206L56.3095 288.446C56.3095 287.39 56.1415 285.686 55.8775 284.366ZM60.7975 284.318L62.4775 284.03C63.0775 285.302 63.6775 287.006 63.8935 288.038L62.1175 288.422C61.9255 287.342 61.3735 285.638 60.7975 284.318ZM65.7655 284.246L67.4695 283.694C68.5975 285.014 69.9415 286.838 70.5415 288.038L68.7655 288.686C68.1895 287.486 66.8935 285.614 65.7655 284.246ZM51.7975 283.766L53.5015 284.222C52.8295 285.83 51.7255 287.606 50.5015 288.662L48.8455 287.966C50.0215 287.006 51.1495 285.35 51.7975 283.766ZM51.9895 272.366H53.4535C53.1895 274.67 52.3015 275.99 49.5175 276.71C49.3735 276.374 48.9895 275.846 48.7015 275.606C51.0775 275.054 51.7975 274.118 51.9895 272.366Z" fill="#B4C7DD"/>
<path d="M148.614 15.3202H159.918V16.8562H148.614V15.3202ZM148.23 19.7122H159.942V21.2722H148.23V19.7122ZM150.87 25.9762H157.662V27.3442H150.87V25.9762ZM150.87 29.0722H157.662V30.4642H150.87V29.0722ZM151.038 12.6322H152.694V20.6722H151.038V12.6322ZM155.79 12.6322H157.446V20.6722H155.79V12.6322ZM149.934 22.8562H157.758V24.2962H151.614V34.4962H149.934V22.8562ZM156.87 22.8562H158.574V32.6242C158.574 33.4882 158.382 33.9442 157.782 34.2082C157.206 34.4482 156.246 34.4722 154.758 34.4722C154.71 34.0402 154.47 33.3922 154.254 32.9602C155.286 33.0082 156.222 32.9842 156.51 32.9842C156.798 32.9602 156.87 32.8642 156.87 32.6002V22.8562ZM161.766 16.9042H170.31V18.5842H161.766V16.9042ZM162.366 12.4162L164.118 12.6802C163.398 17.2162 162.174 21.6322 160.254 24.5122C160.014 24.1522 159.366 23.3842 158.982 23.0482C160.71 20.4802 161.766 16.4722 162.366 12.4162ZM167.022 17.8162L168.798 17.9842C167.718 26.1442 165.366 31.3522 159.726 34.5682C159.534 34.1602 159.006 33.3682 158.646 33.0082C163.998 30.2482 166.11 25.3042 167.022 17.8162ZM162.702 18.3202C163.782 24.9202 166.038 30.6082 170.502 32.9842C170.07 33.3442 169.494 34.0402 169.206 34.5202C164.622 31.7362 162.414 25.8082 161.238 18.5602L162.702 18.3202ZM176.046 14.1682H184.782V15.4882H176.046V14.1682ZM186.03 15.8482H193.446V17.4562H186.03V15.8482ZM175.134 17.2882H185.574V18.6562H175.134V17.2882ZM179.574 12.5362H181.206V17.9362H179.574V12.5362ZM179.574 21.4882H181.206V27.4882H179.574V21.4882ZM175.734 23.2162H184.95V24.6082H175.734V23.2162ZM174.894 27.2002C177.558 27.0082 181.614 26.6242 185.55 26.2162V27.6322C181.758 28.0402 177.822 28.4722 175.062 28.7362L174.894 27.2002ZM181.278 18.0562H182.67V20.2162C182.67 20.5762 182.718 20.6242 183.078 20.6242C183.222 20.6242 183.942 20.6242 184.134 20.6242C184.494 20.6242 184.542 20.5042 184.614 19.4242C184.878 19.6642 185.43 19.8082 185.814 19.9042C185.694 21.4402 185.286 21.8482 184.35 21.8482C184.11 21.8482 183.126 21.8482 182.886 21.8482C181.59 21.8482 181.278 21.5362 181.278 20.2162V18.0562ZM188.79 12.4162H190.422C190.326 20.3122 190.062 25.8802 185.934 29.0482C185.67 28.6642 185.166 28.1122 184.758 27.8722C188.574 24.9922 188.718 19.8322 188.79 12.4162ZM185.838 20.7682L186.63 19.4722C188.598 20.6482 191.118 22.4002 192.318 23.6242L191.478 25.1122C190.302 23.8402 187.806 21.9922 185.838 20.7682ZM192.606 15.8482H194.262V25.9522C194.262 26.5522 194.262 26.9362 194.358 27.0562C194.43 27.1282 194.526 27.1522 194.646 27.1522C194.766 27.1522 194.982 27.1522 195.126 27.1522C195.294 27.1522 195.438 27.1282 195.51 27.0082C195.606 26.9122 195.654 26.6722 195.702 26.2402C195.75 25.7362 195.774 24.7042 195.774 23.3122C196.086 23.6242 196.59 23.8642 197.022 23.9842C196.998 25.2322 196.902 26.7442 196.806 27.2482C196.71 27.8002 196.518 28.1362 196.23 28.3282C195.966 28.5202 195.582 28.6162 195.174 28.6162C194.91 28.6162 194.478 28.6162 194.238 28.6162C193.83 28.6162 193.35 28.4962 193.014 28.1842C192.702 27.8722 192.606 27.4882 192.606 25.8322V15.8482ZM181.878 30.2242L183.534 30.0802C183.846 31.4002 184.086 33.0562 184.11 34.0642L182.31 34.3042C182.31 33.2482 182.142 31.5442 181.878 30.2242ZM186.798 30.1762L188.478 29.8882C189.078 31.1602 189.678 32.8642 189.894 33.8962L188.118 34.2802C187.926 33.2002 187.374 31.4962 186.798 30.1762ZM191.766 30.1042L193.47 29.5522C194.598 30.8722 195.942 32.6962 196.542 33.8962L194.766 34.5442C194.19 33.3442 192.894 31.4722 191.766 30.1042ZM177.798 29.6242L179.502 30.0802C178.83 31.6882 177.726 33.4642 176.502 34.5202L174.846 33.8242C176.022 32.8642 177.15 31.2082 177.798 29.6242ZM177.99 18.2242H179.454C179.19 20.5282 178.302 21.8482 175.518 22.5682C175.374 22.2322 174.99 21.7042 174.702 21.4642C177.078 20.9122 177.798 19.9762 177.99 18.2242Z" fill="#B4C7DD"/>
<path d="M16.6135 74.5506H27.9175V76.0866H16.6135V74.5506ZM16.2295 78.9426H27.9415V80.5026H16.2295V78.9426ZM18.8695 85.2066H25.6615V86.5746H18.8695V85.2066ZM18.8695 88.3026H25.6615V89.6946H18.8695V88.3026ZM19.0375 71.8626H20.6935V79.9026H19.0375V71.8626ZM23.7895 71.8626H25.4455V79.9026H23.7895V71.8626ZM17.9335 82.0866H25.7575V83.5266H19.6135V93.7266H17.9335V82.0866ZM24.8695 82.0866H26.5735V91.8546C26.5735 92.7186 26.3815 93.1746 25.7815 93.4386C25.2055 93.6786 24.2455 93.7026 22.7575 93.7026C22.7095 93.2706 22.4695 92.6226 22.2535 92.1906C23.2855 92.2386 24.2215 92.2146 24.5095 92.2146C24.7975 92.1906 24.8695 92.0946 24.8695 91.8306V82.0866ZM29.7655 76.1346H38.3095V77.8146H29.7655V76.1346ZM30.3655 71.6466L32.1175 71.9106C31.3975 76.4466 30.1735 80.8626 28.2535 83.7426C28.0135 83.3826 27.3655 82.6146 26.9815 82.2786C28.7095 79.7106 29.7655 75.7026 30.3655 71.6466ZM35.0215 77.0466L36.7975 77.2146C35.7175 85.3746 33.3655 90.5826 27.7255 93.7986C27.5335 93.3906 27.0055 92.5986 26.6455 92.2386C31.9975 89.4786 34.1095 84.5346 35.0215 77.0466ZM30.7015 77.5506C31.7815 84.1506 34.0375 89.8386 38.5015 92.2146C38.0695 92.5746 37.4935 93.2706 37.2055 93.7506C32.6215 90.9666 30.4135 85.0386 29.2375 77.7906L30.7015 77.5506ZM44.0455 73.3986H52.7815V74.7186H44.0455V73.3986ZM54.0295 75.0786H61.4455V76.6866H54.0295V75.0786ZM43.1335 76.5186H53.5735V77.8866H43.1335V76.5186ZM47.5735 71.7666H49.2055V77.1666H47.5735V71.7666ZM47.5735 80.7186H49.2055V86.7186H47.5735V80.7186ZM43.7335 82.4466H52.9495V83.8386H43.7335V82.4466ZM42.8935 86.4306C45.5575 86.2386 49.6135 85.8546 53.5495 85.4466V86.8626C49.7575 87.2706 45.8215 87.7026 43.0615 87.9666L42.8935 86.4306ZM49.2775 77.2866H50.6695V79.4466C50.6695 79.8066 50.7175 79.8546 51.0775 79.8546C51.2215 79.8546 51.9415 79.8546 52.1335 79.8546C52.4935 79.8546 52.5415 79.7346 52.6135 78.6546C52.8775 78.8946 53.4295 79.0386 53.8135 79.1346C53.6935 80.6706 53.2855 81.0786 52.3495 81.0786C52.1095 81.0786 51.1255 81.0786 50.8855 81.0786C49.5895 81.0786 49.2775 80.7666 49.2775 79.4466V77.2866ZM56.7895 71.6466H58.4215C58.3255 79.5426 58.0615 85.1106 53.9335 88.2786C53.6695 87.8946 53.1655 87.3426 52.7575 87.1026C56.5735 84.2226 56.7175 79.0626 56.7895 71.6466ZM53.8375 79.9986L54.6295 78.7026C56.5975 79.8786 59.1175 81.6306 60.3175 82.8546L59.4775 84.3426C58.3015 83.0706 55.8055 81.2226 53.8375 79.9986ZM60.6055 75.0786H62.2615V85.1826C62.2615 85.7826 62.2615 86.1666 62.3575 86.2866C62.4295 86.3586 62.5255 86.3826 62.6455 86.3826C62.7655 86.3826 62.9815 86.3826 63.1255 86.3826C63.2935 86.3826 63.4375 86.3586 63.5095 86.2386C63.6055 86.1426 63.6535 85.9026 63.7015 85.4706C63.7495 84.9666 63.7735 83.9346 63.7735 82.5426C64.0855 82.8546 64.5895 83.0946 65.0215 83.2146C64.9975 84.4626 64.9015 85.9746 64.8055 86.4786C64.7095 87.0306 64.5175 87.3666 64.2295 87.5586C63.9655 87.7506 63.5815 87.8466 63.1735 87.8466C62.9095 87.8466 62.4775 87.8466 62.2375 87.8466C61.8295 87.8466 61.3495 87.7266 61.0135 87.4146C60.7015 87.1026 60.6055 86.7186 60.6055 85.0626V75.0786ZM49.8775 89.4546L51.5335 89.3106C51.8455 90.6306 52.0855 92.2866 52.1095 93.2946L50.3095 93.5346C50.3095 92.4786 50.1415 90.7746 49.8775 89.4546ZM54.7975 89.4066L56.4775 89.1186C57.0775 90.3906 57.6775 92.0946 57.8935 93.1266L56.1175 93.5106C55.9255 92.4306 55.3735 90.7266 54.7975 89.4066ZM59.7655 89.3346L61.4695 88.7826C62.5975 90.1026 63.9415 91.9266 64.5415 93.1266L62.7655 93.7746C62.1895 92.5746 60.8935 90.7026 59.7655 89.3346ZM45.7975 88.8546L47.5015 89.3106C46.8295 90.9186 45.7255 92.6946 44.5015 93.7506L42.8455 93.0546C44.0215 92.0946 45.1495 90.4386 45.7975 88.8546ZM45.9895 77.4546H47.4535C47.1895 79.7586 46.3015 81.0786 43.5175 81.7986C43.3735 81.4626 42.9895 80.9346 42.7015 80.6946C45.0775 80.1426 45.7975 79.2066 45.9895 77.4546Z" fill="#B4C7DD"/>
<path d="M81.3095 314.019H94.4615V316.419H81.3095V314.019ZM67.9015 329.187H96.6375V331.587H67.9015V329.187ZM79.9335 304.131H82.4615V330.467H79.9335V304.131ZM116.094 303.523H118.622V309.507H116.094V303.523ZM116.126 310.275H118.59V333.187H116.126V310.275ZM103.07 308.099H131.902V310.435H103.07V308.099ZM106.366 314.819H127.39V317.155H108.766V329.123H106.366V314.819ZM126.462 314.819H128.926V326.083C128.926 327.459 128.606 328.195 127.55 328.611C126.43 328.995 124.638 329.027 121.886 329.027C121.79 328.291 121.406 327.331 121.054 326.659C123.23 326.723 125.182 326.723 125.726 326.691C126.302 326.659 126.462 326.531 126.462 326.083V314.819ZM149.886 329.763H167.454V331.747H149.886V329.763ZM151.742 314.051H167.134V315.491H151.742V314.051ZM158.366 307.299H160.414V314.723H158.366V307.299ZM148.606 304.963H167.134V306.851H150.814V333.091H148.606V304.963ZM155.198 309.891V311.491H163.646V309.891H155.198ZM153.31 308.675H165.566V312.707H153.31V308.675ZM160.766 326.659L162.206 325.603C163.806 326.339 165.886 327.523 166.942 328.387L165.47 329.571C164.414 328.771 162.398 327.523 160.766 326.659ZM155.294 320.515V321.859H163.678V320.515H155.294ZM155.294 323.107V324.483H163.678V323.107H155.294ZM155.294 317.955V319.267H163.678V317.955H155.294ZM153.214 316.675H165.854V325.795H153.214V316.675ZM156.67 325.539L158.43 326.595C156.926 327.715 154.814 328.899 153.246 329.603C152.958 329.219 152.318 328.643 151.902 328.291C153.502 327.619 155.582 326.467 156.67 325.539ZM138.302 310.595H147.902V312.835H138.302V310.595ZM142.366 303.651H144.542V333.059H142.366V303.651ZM142.27 311.939L143.742 312.387C142.846 317.443 140.926 323.779 138.814 327.011C138.558 326.403 138.014 325.475 137.63 324.963C139.582 322.051 141.502 316.483 142.27 311.939ZM144.382 315.043C145.054 315.939 147.614 319.971 148.158 320.899L146.91 322.659C146.27 321.059 144.158 317.219 143.39 315.971L144.382 315.043Z" fill="#57687C"/>
<path d="M184.31 64.0105H197.462V66.4105H184.31V64.0105ZM170.902 79.1785H199.638V81.5785H170.902V79.1785ZM182.934 54.1225H185.462V80.4585H182.934V54.1225ZM219.094 53.5145H221.622V59.4985H219.094V53.5145ZM219.126 60.2665H221.59V83.1785H219.126V60.2665ZM206.07 58.0905H234.902V60.4265H206.07V58.0905ZM209.366 64.8105H230.39V67.1465H211.766V79.1145H209.366V64.8105ZM229.462 64.8105H231.926V76.0745C231.926 77.4505 231.606 78.1865 230.55 78.6025C229.43 78.9865 227.638 79.0185 224.886 79.0185C224.79 78.2825 224.406 77.3225 224.054 76.6505C226.23 76.7145 228.182 76.7145 228.726 76.6825C229.302 76.6505 229.462 76.5225 229.462 76.0745V64.8105ZM252.886 79.7545H270.454V81.7385H252.886V79.7545ZM254.742 64.0425H270.134V65.4825H254.742V64.0425ZM261.366 57.2905H263.414V64.7145H261.366V57.2905ZM251.606 54.9545H270.134V56.8425H253.814V83.0825H251.606V54.9545ZM258.198 59.8825V61.4825H266.646V59.8825H258.198ZM256.31 58.6665H268.566V62.6985H256.31V58.6665ZM263.766 76.6505L265.206 75.5945C266.806 76.3305 268.886 77.5145 269.942 78.3785L268.47 79.5625C267.414 78.7625 265.398 77.5145 263.766 76.6505ZM258.294 70.5065V71.8505H266.678V70.5065H258.294ZM258.294 73.0985V74.4745H266.678V73.0985H258.294ZM258.294 67.9465V69.2585H266.678V67.9465H258.294ZM256.214 66.6665H268.854V75.7865H256.214V66.6665ZM259.67 75.5305L261.43 76.5865C259.926 77.7065 257.814 78.8905 256.246 79.5945C255.958 79.2105 255.318 78.6345 254.902 78.2825C256.502 77.6105 258.582 76.4585 259.67 75.5305ZM241.302 60.5865H250.902V62.8265H241.302V60.5865ZM245.366 53.6425H247.542V83.0505H245.366V53.6425ZM245.27 61.9305L246.742 62.3785C245.846 67.4345 243.926 73.7705 241.814 77.0025C241.558 76.3945 241.014 75.4665 240.63 74.9545C242.582 72.0425 244.502 66.4745 245.27 61.9305ZM247.382 65.0345C248.054 65.9305 250.614 69.9625 251.158 70.8905L249.91 72.6505C249.27 71.0505 247.158 67.2105 246.39 65.9625L247.382 65.0345Z" fill="#57687C"/>
<path d="M210.31 303.688H223.462V306.088H210.31V303.688ZM196.902 318.856H225.638V321.256H196.902V318.856ZM208.934 293.8H211.462V320.136H208.934V293.8ZM245.094 293.192H247.622V299.176H245.094V293.192ZM245.126 299.944H247.59V322.856H245.126V299.944ZM232.07 297.768H260.902V300.104H232.07V297.768ZM235.366 304.488H256.39V306.824H237.766V318.792H235.366V304.488ZM255.462 304.488H257.926V315.752C257.926 317.128 257.606 317.864 256.55 318.28C255.43 318.664 253.638 318.696 250.886 318.696C250.79 317.96 250.406 317 250.054 316.328C252.23 316.392 254.182 316.392 254.726 316.36C255.302 316.328 255.462 316.2 255.462 315.752V304.488ZM278.886 319.432H296.454V321.416H278.886V319.432ZM280.742 303.72H296.134V305.16H280.742V303.72ZM287.366 296.968H289.414V304.392H287.366V296.968ZM277.606 294.632H296.134V296.52H279.814V322.76H277.606V294.632ZM284.198 299.56V301.16H292.646V299.56H284.198ZM282.31 298.344H294.566V302.376H282.31V298.344ZM289.766 316.328L291.206 315.272C292.806 316.008 294.886 317.192 295.942 318.056L294.47 319.24C293.414 318.44 291.398 317.192 289.766 316.328ZM284.294 310.184V311.528H292.678V310.184H284.294ZM284.294 312.776V314.152H292.678V312.776H284.294ZM284.294 307.624V308.936H292.678V307.624H284.294ZM282.214 306.344H294.854V315.464H282.214V306.344ZM285.67 315.208L287.43 316.264C285.926 317.384 283.814 318.568 282.246 319.272C281.958 318.888 281.318 318.312 280.902 317.96C282.502 317.288 284.582 316.136 285.67 315.208ZM267.302 300.264H276.902V302.504H267.302V300.264ZM271.366 293.32H273.542V322.728H271.366V293.32ZM271.27 301.608L272.742 302.056C271.846 307.112 269.926 313.448 267.814 316.68C267.558 316.072 267.014 315.144 266.63 314.632C268.582 311.72 270.502 306.152 271.27 301.608ZM273.382 304.712C274.054 305.608 276.614 309.64 277.158 310.568L275.91 312.328C275.27 310.728 273.158 306.888 272.39 305.64L273.382 304.712Z" fill="#57687C"/>
</svg>
