<svg width="1440" height="736" viewBox="0 0 1440 736" fill="none" xmlns="http://www.w3.org/2000/svg">
<path opacity="0.8" d="M-99 701.271L-85.4014 711.915C-71.8028 722.559 -44.6056 743.846 -17.4084 726.315C9.78878 708.783 36.986 652.432 64.1832 582.154C91.3804 511.876 118.578 427.67 145.775 374.437C172.972 321.203 200.169 298.942 227.366 371.269C254.564 443.597 281.761 610.514 308.958 605.651C336.155 600.789 363.352 424.148 390.55 405.195C417.747 386.243 444.944 524.978 472.141 578.806C499.338 632.633 526.535 601.551 553.733 541.942C580.93 482.333 608.127 394.196 635.324 371.065C662.521 347.935 689.719 389.811 716.916 445.239C744.113 500.667 771.31 569.647 798.507 588.241C825.705 606.835 852.902 575.044 880.099 528.572C907.296 482.1 934.493 420.947 961.691 405.254C988.888 389.56 1016.09 419.325 1043.28 375.969C1070.48 332.612 1097.68 216.133 1124.87 150.651C1152.07 85.169 1179.27 70.6833 1206.47 62.3356C1233.66 53.9878 1260.86 51.7781 1288.06 106.982C1315.25 162.186 1342.45 274.803 1369.65 266.708C1396.85 258.613 1424.04 129.807 1437.64 65.4033L1451.24 1" stroke="#F58B82" stroke-width="6"/>
<path opacity="0.8" d="M-57 613.835L-44.3091 619.593C-31.6183 625.351 -6.2366 636.868 19.1451 627.383C44.5268 617.899 69.9085 587.414 95.2902 549.395C120.672 511.375 146.054 465.822 171.435 437.023C196.817 408.225 222.199 396.182 247.58 435.31C272.962 474.438 298.344 564.737 323.726 562.106C349.107 559.476 374.489 463.916 399.871 453.663C425.252 443.41 450.634 518.464 476.016 547.583C501.397 576.703 526.779 559.888 552.161 527.641C577.543 495.393 602.924 447.712 628.306 435.199C653.688 422.686 679.069 445.34 704.451 475.326C729.833 505.312 755.214 542.629 780.596 552.688C805.978 562.747 831.36 545.548 856.741 520.408C882.123 495.267 907.505 462.185 932.886 453.695C958.268 445.205 983.65 461.307 1009.03 437.852C1034.41 414.397 1059.79 351.384 1085.18 315.959C1110.56 280.534 1135.94 272.698 1161.32 268.182C1186.7 263.666 1212.09 262.47 1237.47 292.334C1262.85 322.199 1288.23 383.123 1313.61 378.744C1338.99 374.365 1364.38 304.682 1377.07 269.841L1389.76 235" stroke="#57687C" stroke-width="2"/>
</svg>
