<svg width="40" height="57" viewBox="0 0 40 57" fill="none" xmlns="http://www.w3.org/2000/svg">
<rect x="7" y="29.5273" width="5" height="7" fill="#F58B82"/>
<rect x="14" y="26.5273" width="5" height="10" fill="#F58B82"/>
<rect x="21" y="22.5273" width="5" height="14" fill="#F58B82"/>
<rect x="28" y="18.5273" width="5" height="18" fill="#F58B82"/>
<path fill-rule="evenodd" clip-rule="evenodd" d="M0.998112 34.8662C0.967175 34.8208 0.904987 34.8096 0.860147 34.8414C0.836459 34.8581 0.821399 34.8845 0.819098 34.9135C0.797449 35.1858 0.781191 35.4597 0.770434 35.7351C0.344999 46.6287 8.68585 55.7988 19.4002 56.2173C30.1146 56.6357 39.1452 48.144 39.5707 37.2504C39.631 35.7056 39.5151 34.1955 39.2411 32.7401C39.2335 32.7001 39.1784 32.6957 39.1644 32.7339C39.1568 32.7547 39.1337 32.7655 39.1129 32.7578L35.1404 31.305C35.0019 31.2543 34.8471 31.3119 34.7753 31.4407L32.2083 36.0494L32.0701 36.2976C31.9691 36.4789 31.7189 36.5054 31.5822 36.3491L31.3952 36.1353L28.5957 32.9353C28.4712 32.793 28.2476 32.7999 28.1322 32.9498L25.8866 35.8659L25.6845 36.1284C25.5468 36.3072 25.2683 36.2756 25.1741 36.0704L25.036 35.7693L23.0652 31.4735C22.9747 31.2761 22.7109 31.2373 22.5674 31.4004L20.7952 33.4138L20.6546 33.5736C20.5403 33.7035 20.3401 33.71 20.2176 33.5878L20.0668 33.4375L15.9621 29.3437C15.8329 29.2149 15.6195 29.2302 15.5101 29.3763L11.0853 35.2824L10.8836 35.5515C10.7472 35.7336 10.4657 35.7035 10.3709 35.4968L10.2307 35.1911L8.141 30.6362C8.06357 30.4674 7.85294 30.4088 7.69945 30.5133L1.20873 34.9339C1.14665 34.9761 1.06206 34.9601 1.01978 34.898L0.998112 34.8662Z" fill="#EEEEEE"/>
<path fill-rule="evenodd" clip-rule="evenodd" d="M3.84407 20.7353C3.85278 20.9917 4.16037 21.111 4.34324 20.931L9.56315 15.7925L9.73802 15.6203C9.87343 15.487 10.0971 15.5116 10.2003 15.6711L10.3337 15.8771L12.6635 19.4767C12.7896 19.6715 13.0797 19.6555 13.1836 19.4479L16.0871 13.6462L16.1944 13.4319C16.2781 13.2646 16.493 13.2139 16.6427 13.3263L16.8344 13.4701L21.1875 16.7367C21.3296 16.8434 21.5329 16.8038 21.6245 16.6515L23.0798 14.2339L23.245 13.9594C23.3594 13.7694 23.6333 13.7649 23.7538 13.9511L23.9279 14.22L26.2691 17.8372C26.3943 18.0306 26.6817 18.0166 26.7875 17.8119L28.1841 15.1098L28.3005 14.8847C28.3895 14.7124 28.6161 14.6686 28.763 14.7953L28.9549 14.9608L31.7982 17.4135C31.9589 17.552 32.2087 17.4846 32.2778 17.284L33.746 13.0233L33.8033 12.8572C33.8524 12.7148 33.9995 12.6308 34.1471 12.6611L34.3192 12.6964L37.7693 13.4037C38.0051 13.452 38.1976 13.2171 38.099 12.9976C34.846 5.75063 27.4862 1.12803 19.5892 2.09063C10.31 3.2217 3.51639 11.0792 3.84407 20.7353Z" fill="#EEEEEE"/>
</svg>
