<svg width="1440" height="736" viewBox="0 0 1440 736" fill="none" xmlns="http://www.w3.org/2000/svg">
<path opacity="0.8" d="M-103 701.271L-89.4014 711.915C-75.8028 722.559 -48.6056 743.846 -21.4084 726.315C5.78878 708.783 32.986 652.432 60.1832 582.154C87.3804 511.876 114.578 427.67 141.775 374.437C168.972 321.203 196.169 298.942 223.366 371.269C250.564 443.597 277.761 610.514 304.958 605.651C332.155 600.789 359.352 424.148 386.55 405.195C413.747 386.243 440.944 524.978 468.141 578.806C495.338 632.633 522.535 601.551 549.733 541.942C576.93 482.333 604.127 394.196 631.324 371.065C658.521 347.935 685.719 389.811 712.916 445.239C740.113 500.667 767.31 569.647 794.507 588.241C821.705 606.835 848.902 575.044 876.099 528.572C903.296 482.1 930.493 420.947 957.691 405.254C984.888 389.56 1012.09 419.325 1039.28 375.969C1066.48 332.612 1093.68 216.133 1120.87 150.651C1148.07 85.169 1175.27 70.6833 1202.47 62.3356C1229.66 53.9878 1256.86 51.7781 1284.06 106.982C1311.25 162.186 1338.45 274.803 1365.65 266.708C1392.85 258.613 1420.04 129.807 1433.64 65.4033L1447.24 1" stroke="#F58B82" stroke-width="6"/>
<path opacity="0.8" d="M-10.5703 580.835L2.12054 586.593C14.8114 592.351 40.1931 603.868 65.5748 594.383C90.9565 584.899 116.338 554.414 141.72 516.395C167.102 478.375 192.483 432.822 217.865 404.023C243.247 375.225 268.628 363.182 294.01 402.31C319.392 441.438 344.774 531.737 370.155 529.106C395.537 526.476 420.919 430.916 446.3 420.663C471.682 410.41 497.064 485.464 522.445 514.583C547.827 543.703 573.209 526.888 598.591 494.641C623.972 462.393 649.354 414.712 674.736 402.199C700.117 389.686 725.499 412.34 750.881 442.326C776.262 472.312 801.644 509.629 827.026 519.688C852.407 529.747 877.789 512.548 903.171 487.408C928.553 462.267 953.934 429.185 979.316 420.695C1004.7 412.205 1030.08 428.307 1055.46 404.852C1080.84 381.397 1106.22 318.384 1131.61 282.959C1156.99 247.534 1182.37 239.698 1207.75 235.182C1233.13 230.666 1258.51 229.47 1283.9 259.334C1309.28 289.199 1334.66 350.123 1360.04 345.744C1385.42 341.365 1410.8 271.682 1423.5 236.841L1436.19 202" stroke="#57687C" stroke-width="2"/>
</svg>


