<svg width="972" height="527" viewBox="0 0 972 527" fill="none" xmlns="http://www.w3.org/2000/svg">
<g clip-path="url(#clip0_599_5747)">
<path fill-rule="evenodd" clip-rule="evenodd" d="M859.446 135.676L934.884 177.832C937.098 178.938 938.961 180.639 940.262 182.744C941.563 184.85 942.252 187.276 942.25 189.751V202.531C942.25 208.655 937.28 213.625 931.156 213.625H924.5V284.625H933.375C935.729 284.625 937.986 285.56 939.651 287.224C941.315 288.889 942.25 291.146 942.25 293.5C942.25 295.854 941.315 298.111 939.651 299.775C937.986 301.44 935.729 302.375 933.375 302.375H773.625C771.271 302.375 769.014 301.44 767.349 299.775C765.685 298.111 764.75 295.854 764.75 293.5C764.75 291.146 765.685 288.889 767.349 287.224C769.014 285.56 771.271 284.625 773.625 284.625H782.5V213.625H775.844C769.72 213.625 764.75 208.655 764.75 202.531V189.751C764.75 185.118 767.146 180.858 771.016 178.444L847.545 135.676C849.394 134.751 851.433 134.27 853.5 134.27C855.567 134.27 857.597 134.751 859.446 135.676ZM897.875 213.625H809.125V284.625H826.875V231.375H844.625V284.625H862.375V231.375H880.125V284.625H897.875V213.625ZM853.5 169.25C851.146 169.25 848.889 170.185 847.224 171.849C845.56 173.514 844.625 175.771 844.625 178.125C844.625 180.479 845.56 182.736 847.224 184.4C848.889 186.065 851.146 187 853.5 187C855.854 187 858.111 186.065 859.776 184.4C861.44 182.736 862.375 180.479 862.375 178.125C862.375 175.771 861.44 173.514 859.776 171.849C858.111 170.185 855.854 169.25 853.5 169.25Z" fill="#2C3E50"/>
</g>
<path d="M754.46 330.955H763.235V333.655H754.46V330.955ZM759.5 342.115H772.145V344.815H759.5V342.115ZM753.245 366.28H778.94V369.25H753.245V366.28ZM774.395 330.505L776.33 332.35C774.53 333.79 772.46 335.185 770.84 336.175L769.4 334.735C770.93 333.655 773.18 331.72 774.395 330.505ZM777.14 335.185L779.12 337.165C777.275 338.605 775.16 340.09 773.495 341.08L772.055 339.505C773.585 338.425 775.925 336.49 777.14 335.185ZM770.345 358.315L773.54 359.08C772.595 361.555 771.56 364.3 770.66 366.145L767.96 365.38C768.77 363.445 769.895 360.385 770.345 358.315ZM758.42 359.08L761.3 358.36C762.38 360.475 763.37 363.355 763.685 365.29L760.67 366.19C760.4 364.255 759.455 361.33 758.42 359.08ZM759.455 350.395V355.3H772.1V350.395H759.455ZM756.35 347.695H775.34V358H756.35V347.695ZM753.785 337.03L755.675 335.14C757.43 336.355 759.455 338.155 760.4 339.46L758.375 341.62C757.475 340.27 755.495 338.335 753.785 337.03ZM762.02 330.955H762.56L763.1 330.82L765.035 331.585C763.145 339.37 758.735 345.22 753.65 348.235C753.245 347.47 752.39 346.3 751.715 345.67C756.305 343.285 760.535 337.84 762.02 331.495V330.955ZM769.04 329.335C770.795 336.13 774.485 342.25 779.75 344.905C778.985 345.49 778.04 346.705 777.545 347.515C771.92 344.275 768.185 337.705 766.205 329.965L769.04 329.335ZM739.745 342.835H751.895V345.535H739.745V342.835ZM739.97 330.82H751.715V333.52H739.97V330.82ZM739.745 348.865H751.895V351.565H739.745V348.865ZM737.81 336.715H753.2V339.505H737.81V336.715ZM741.32 354.94H751.895V368.035H741.32V365.245H749.06V357.73H741.32V354.94ZM739.655 354.94H742.535V370.15H739.655V354.94ZM786.185 345.805H826.325V348.91H786.185V345.805ZM789.065 337.66H823.67V340.675H789.065V337.66ZM793.97 353.815H815.66V356.92H793.97V353.815ZM811.475 338.83C814.31 346.48 820.115 353.14 827.225 356.11C826.46 356.74 825.425 358.045 824.975 358.9C817.505 355.345 811.7 348.28 808.505 339.685L811.475 338.83ZM791.9 331.135L794.78 330.055C796.445 332.125 798.2 335.005 798.92 336.895L795.86 338.11C795.23 336.22 793.52 333.295 791.9 331.135ZM816.785 329.92L820.07 331.045C818.63 333.565 816.83 336.31 815.345 338.155L812.465 337.075C813.905 335.14 815.75 332.08 816.785 329.92ZM814.715 353.815H818.135C818.135 353.815 818.09 354.805 818.045 355.3C817.415 364.345 816.785 367.945 815.525 369.25C814.715 370.15 813.86 370.42 812.51 370.555C811.295 370.645 808.91 370.6 806.435 370.465C806.39 369.52 805.985 368.17 805.445 367.315C807.83 367.54 810.17 367.54 811.025 367.54C811.835 367.54 812.285 367.495 812.69 367.09C813.59 366.235 814.175 362.905 814.715 354.31V353.815ZM802.115 354.76H805.625C804.545 362.5 801.8 367.945 791.315 370.735C791 369.88 790.055 368.53 789.38 367.855C799.01 365.65 801.215 361.06 802.115 354.76ZM804.005 329.155L807.56 329.785C804.68 342.115 799.235 353.095 787.445 359.08C786.95 358.315 786.005 357.055 785.285 356.38C796.535 350.89 801.755 340.54 804.005 329.155ZM860.48 347.515L864.08 348.505C859.13 361.06 849.23 367.315 835.415 370.78C835.055 369.925 833.975 368.395 833.255 367.585C846.89 364.75 856.34 358.9 860.48 347.515ZM845.81 339.775L849.23 341.08C846.035 345.4 840.995 349.63 836.63 352.375C836.045 351.655 834.74 350.305 833.885 349.675C838.295 347.335 843.065 343.6 845.81 339.775ZM847.61 347.74C851.795 358.405 860.93 365.11 874.88 367.405C874.115 368.17 873.125 369.7 872.63 370.645C858.275 367.9 849.23 360.7 844.415 348.73L847.61 347.74ZM834.245 335.095H873.755V338.38H834.245V335.095ZM852.155 329.155H855.62V337.21H852.155V329.155ZM859.265 341.665L862.055 339.595C866.285 342.43 871.595 346.615 874.16 349.585L871.235 351.925C868.805 348.955 863.585 344.59 859.265 341.665ZM890.855 341.26V345.715H913.085V341.26H890.855ZM890.855 334.105V338.56H913.085V334.105H890.855ZM887.525 331.315H916.505V348.55H887.525V331.315ZM890.045 352.42H917.045V355.435H890.045V352.42ZM916.19 352.42H919.61C919.61 352.42 919.52 353.455 919.43 353.905C918.575 364.03 917.72 367.945 916.325 369.385C915.47 370.24 914.57 370.555 913.265 370.6C912.095 370.735 909.935 370.69 907.685 370.555C907.595 369.7 907.28 368.44 906.74 367.63C908.945 367.855 911.06 367.855 911.87 367.855C912.635 367.855 913.085 367.81 913.49 367.36C914.57 366.37 915.425 362.545 916.19 352.96V352.42ZM893.465 347.155L896.705 348.19C893.465 353.455 888.38 358.27 883.565 361.375C883.025 360.745 881.72 359.485 880.91 358.945C885.86 356.2 890.63 351.835 893.465 347.155ZM898.37 353.32L901.565 354.31C898.235 360.655 892.79 366.145 887.345 369.7C886.805 369.07 885.5 367.855 884.735 367.27C890.315 364.165 895.4 359.035 898.37 353.32ZM907.685 353.545L910.88 354.31C908.54 361.15 904.535 367.045 899.945 370.87C899.36 370.285 898.01 369.25 897.245 368.755C901.88 365.29 905.615 359.755 907.685 353.545ZM929.645 331.72H949.04V334.825H929.645V331.72ZM952.235 344.545H970.325V347.785H952.235V344.545ZM962 346.66H965.33V370.645H962V346.66ZM950.93 333.655L955.16 334.78C955.115 335.095 954.89 335.275 954.26 335.365V345.67C954.26 352.96 953.315 363.265 946.565 370.51C946.07 369.79 944.855 368.665 944.045 368.26C950.3 361.6 950.93 352.555 950.93 345.67V333.655ZM931.31 339.505H934.505V351.655C934.505 357.415 933.965 365.38 930.5 370.69C929.96 370.06 928.565 369.025 927.845 368.62C930.995 363.76 931.31 356.83 931.31 351.655V339.505ZM966.455 329.74L969.425 332.305C964.97 334.465 958.445 336.31 952.82 337.615C952.64 336.85 952.1 335.635 951.65 334.87C957.005 333.61 963.08 331.675 966.455 329.74ZM933.155 339.505H947.915V353.545H933.155V350.485H944.63V342.61H933.155V339.505Z" fill="black"/>
<path d="M194 81C172.638 81 130 95.74 130 125V147H258V125C258 95.74 215.362 81 194 81Z" fill="#2C3E50"/>
<path d="M194 69C213.882 69 230 53.5538 230 34.5C230 15.4462 213.882 0 194 0C174.118 0 158 15.4462 158 34.5C158 53.5538 174.118 69 194 69Z" fill="#2C3E50"/>
<path d="M166.221 107.99H175.146V110.475H166.221V107.99ZM181.516 102.635H184.211V134.73H181.516V102.635ZM162.406 116.775L163.771 114.85C166.711 116.46 170.316 118.945 172.031 120.73L170.561 122.9C168.881 121.08 165.346 118.455 162.406 116.775ZM167.236 102.6L169.861 103.125C168.006 109.985 164.926 116.075 161.006 120.03C160.551 119.575 159.431 118.735 158.801 118.315C162.686 114.745 165.591 108.935 167.236 102.6ZM177.911 110.93C180.886 116.425 186.696 121.85 192.366 124.405C191.736 124.93 190.931 125.91 190.476 126.61C184.771 123.67 178.996 117.86 175.706 111.77L177.911 110.93ZM174.411 107.99H174.901L175.391 107.885L177.071 108.445C174.971 122.06 169.196 130.425 161.706 134.625C161.251 134.03 160.236 133.085 159.606 132.665C167.061 128.745 172.591 121.045 174.411 108.585V107.99ZM198.351 105.19L199.506 103.405C201.921 104.035 205.176 105.225 206.856 106.1L205.701 108.13C204.056 107.22 200.801 105.96 198.351 105.19ZM196.601 112.575C199.121 111.98 202.831 110.93 206.471 109.915L206.751 111.98C203.566 112.995 200.276 114.08 197.616 114.885L196.601 112.575ZM211.616 105.19H225.686V107.185H210.076L211.616 105.19ZM224.986 105.19H225.406L225.861 105.085L227.611 105.61C226.631 107.43 225.336 109.39 224.076 110.615L221.976 109.88C223.096 108.795 224.286 107.045 224.986 105.575V105.19ZM215.956 105.89H218.371C217.636 110.86 215.396 113.59 208.256 115.025C208.011 114.465 207.451 113.59 206.996 113.135C213.471 112.05 215.361 109.88 215.956 105.89ZM218.266 106.52C218.966 109.495 220.681 112.365 228.451 113.485C227.961 114.01 227.366 114.955 227.086 115.62C218.791 114.185 217.041 110.405 216.131 106.73L218.266 106.52ZM212.176 102.6L214.556 102.985C213.366 105.54 211.581 108.13 208.851 110.23C208.396 109.74 207.486 109.18 206.856 108.9C209.481 107.115 211.266 104.7 212.176 102.6ZM203.846 120.905V123.285H221.486V120.905H203.846ZM203.846 125V127.45H221.486V125H203.846ZM203.846 116.81V119.19H221.486V116.81H203.846ZM201.291 115.06H224.111V129.2H201.291V115.06ZM215.396 130.985L217.531 129.655C221.381 130.845 225.616 132.385 228.136 133.575L225.231 134.905C223.026 133.75 219.211 132.245 215.396 130.985ZM207.171 129.585L209.551 130.67C206.716 132.35 202.271 133.96 198.771 134.94C198.351 134.415 197.441 133.4 196.846 132.945C200.451 132.175 204.651 130.95 207.171 129.585Z" fill="#F2F2F2"/>
<path d="M194 267C172.638 267 130 281.74 130 311V333H258V311C258 281.74 215.362 267 194 267Z" fill="#2C3E50"/>
<path d="M194 255C213.882 255 230 239.554 230 220.5C230 201.446 213.882 186 194 186C174.118 186 158 201.446 158 220.5C158 239.554 174.118 255 194 255Z" fill="#2C3E50"/>
<path d="M174.586 290H177.071V293.57C177.071 296.65 176.196 300.5 172.311 303.055C171.961 302.53 171.051 301.515 170.526 301.165C174.026 298.96 174.586 295.95 174.586 293.535V290ZM175.881 290H184.841V292.45H175.881V290ZM183.651 290H186.171V298.435C186.171 299.205 186.276 299.31 186.906 299.31C187.186 299.31 188.446 299.31 188.831 299.31C189.461 299.31 189.601 298.82 189.671 295.18C190.196 295.635 191.211 295.985 191.911 296.195C191.701 300.465 191.071 301.585 189.111 301.585C188.621 301.585 186.941 301.585 186.486 301.585C184.281 301.585 183.651 300.92 183.651 298.435V290ZM172.486 303.755H187.431V306.17H172.486V303.755ZM186.661 303.755H187.186L187.676 303.65L189.356 304.385C186.486 313.695 179.101 318.665 170.736 320.87C170.491 320.17 169.861 319.05 169.371 318.49C177.176 316.74 184.211 312.085 186.661 304.21V303.755ZM176.021 306.03C178.611 312.365 184.141 316.81 191.981 318.455C191.421 319.015 190.651 320.1 190.266 320.8C182.181 318.84 176.616 314.01 173.676 306.765L176.021 306.03ZM159.011 307.395C161.951 306.625 166.396 305.26 170.736 303.93L171.051 306.205C167.131 307.605 163.036 309.04 159.886 310.125L159.011 307.395ZM159.466 295.53H171.086V297.98H159.466V295.53ZM164.576 288.635H167.131V317.72C167.131 319.19 166.781 319.925 165.871 320.31C164.961 320.73 163.561 320.8 161.216 320.765C161.111 320.135 160.726 319.05 160.411 318.385C161.986 318.42 163.456 318.42 163.911 318.385C164.366 318.385 164.576 318.245 164.576 317.72V288.635ZM209.131 290.28H225.336V292.415H209.131V290.28ZM208.711 299.975H225.966V302.145H208.711V299.975ZM208.711 304.84H225.896V307.01H208.711V304.84ZM209.726 316.985H224.916V319.155H209.726V316.985ZM205.841 295.11H228.626V297.315H205.841V295.11ZM208.361 309.705H226.281V320.695H223.656V311.84H210.881V320.8H208.361V309.705ZM204.651 288.705L207.136 289.475C204.756 295.39 201.011 301.27 197.126 305.155C196.881 304.56 196.146 303.195 195.656 302.565C199.191 299.24 202.621 294.025 204.651 288.705ZM201.011 297.735L203.496 295.25L203.531 295.285V320.73H201.011V297.735Z" fill="#F2F2F2"/>
<path d="M194 453C172.638 453 130 467.74 130 497V519H258V497C258 467.74 215.362 453 194 453Z" fill="#2C3E50"/>
<path d="M194 441C213.882 441 230 425.554 230 406.5C230 387.446 213.882 372 194 372C174.118 372 158 387.446 158 406.5C158 425.554 174.118 441 194 441Z" fill="#2C3E50"/>
<path d="M146.855 491.165H167.19V493.615H146.855V491.165ZM146.855 498.76H167.19V501.21H146.855V498.76ZM146.855 506.425H167.19V508.875H146.855V506.425ZM145.07 483.395H169.22V510.66H166.49V485.915H147.73V510.835H145.07V483.395ZM155.325 478.565L158.37 478.95C157.6 481.05 156.69 483.325 155.92 484.83L153.575 484.375C154.205 482.73 154.975 480.28 155.325 478.565ZM192.74 499.46L195.61 499.915C195.015 501.385 194.42 502.82 193.965 503.835L191.69 503.38C192.075 502.19 192.53 500.58 192.74 499.46ZM187.035 496.03V498.795H200.965V496.03H187.035ZM184.585 494.21H203.555V500.58H184.585V494.21ZM182.275 502.715H206.46V510.8H203.87V504.675H184.76V510.835H182.275V502.715ZM183.815 507.86H204.955V509.855H183.815V507.86ZM179.405 489.94H208.7V496.31H206.04V492.075H181.925V496.31H179.405V489.94ZM191.375 480.315L193.545 481.12C192.495 482.45 191.34 483.78 190.395 484.655L188.82 483.92C189.695 482.905 190.78 481.33 191.375 480.315ZM184.9 485.46L186.475 484.025C188.435 485.11 191.06 486.755 192.425 487.77L190.815 489.45C189.485 488.4 186.895 486.685 184.9 485.46ZM185.67 478.6H188.015C187.63 484.97 186.125 488.155 179.37 489.94C179.16 489.345 178.53 488.47 178.04 488.015C184.2 486.615 185.355 484.095 185.67 478.6ZM181.715 480.175L183.465 480.805C182.905 482.485 182.03 484.2 180.49 485.215L178.81 484.13C180.21 483.29 181.19 481.68 181.715 480.175ZM206.775 480.21L209.05 481.085C207.895 482.45 206.6 483.815 205.62 484.76L203.94 483.99C204.92 482.94 206.145 481.295 206.775 480.21ZM199.775 485.46L201.28 483.885C203.835 485.145 207.3 487.07 209.085 488.33L207.51 490.185C205.795 488.89 202.365 486.86 199.775 485.46ZM200.475 478.6H202.89C202.505 484.76 201 487.98 194.35 489.695C194.14 489.135 193.51 488.19 192.985 487.735C198.97 486.335 200.16 483.85 200.475 478.6ZM196.38 480.21L198.165 480.875C197.535 482.485 196.625 484.13 195.155 485.215L193.44 484.095C194.805 483.22 195.855 481.645 196.38 480.21ZM215.98 481.925H246.255V484.34H215.98V481.925ZM229.63 478.635H232.325V483.325H229.63V478.635ZM217.485 488.05H243.91V490.395H219.97V510.765H217.485V488.05ZM242.51 488.05H245.03V507.58C245.03 509.12 244.68 509.96 243.56 510.38C242.405 510.765 240.48 510.835 237.575 510.835C237.47 510.135 237.05 508.945 236.7 508.245C238.975 508.35 241.075 508.315 241.705 508.28C242.335 508.28 242.51 508.105 242.51 507.58V488.05ZM226.305 489.765H228.685C228.335 494.35 226.865 496.73 221.475 498.025C221.23 497.465 220.635 496.555 220.18 496.135C224.905 495.19 226.025 493.44 226.305 489.765ZM232.815 489.765H235.125V493.86C235.125 494.525 235.265 494.595 236.14 494.595C236.595 494.595 238.66 494.595 239.22 494.595C239.955 494.595 240.095 494.385 240.2 492.285C240.655 492.635 241.6 492.95 242.23 493.09C242.02 495.925 241.39 496.625 239.535 496.625C239.01 496.625 236.385 496.625 235.895 496.625C233.375 496.625 232.815 496.065 232.815 493.895V489.765ZM224.59 498.445H226.935V509.19H224.59V498.445ZM225.99 498.445H237.89V507.055H225.99V504.99H235.51V500.51H225.99V498.445ZM222.7 484.34L225.255 483.815C226.06 485.145 226.865 486.93 227.215 488.085L224.555 488.715C224.24 487.525 223.47 485.705 222.7 484.34ZM236.805 483.71L239.675 484.235C238.835 485.915 237.96 487.56 237.225 488.715L234.67 488.19C235.405 486.965 236.315 485.005 236.805 483.71Z" fill="#F2F2F2"/>
<rect width="86" height="527" fill="#B4C7DD"/>
<path d="M24.904 140.384H61.192V143.984H24.904V140.384ZM27.976 156.08H57.4V159.68H27.976V156.08ZM22.12 172.736H63.784V176.384H22.12V172.736ZM21.976 206.504H64.168V210.152H21.976V206.504ZM45.352 207.944C48.472 219.56 55 229.256 64.984 233.384C64.072 234.2 62.872 235.736 62.248 236.744C51.88 231.848 45.352 221.72 41.752 208.808L45.352 207.944ZM41.128 192.728H45.016C44.824 205.304 44.728 227.192 23.752 236.792C23.176 235.832 22.024 234.536 21.016 233.816C41.416 224.936 41.032 204.248 41.128 192.728ZM33.736 269.888H64.6V273.296H33.736V269.888ZM36.184 257.552H62.344V261.008H36.184V257.552ZM47.176 249.728H50.872V272.336H47.176V249.728ZM33.784 287.984C40.312 287.696 50.776 287.12 60.712 286.544V289.808C51.16 290.528 41.128 291.2 34.312 291.632L33.784 287.984ZM53.128 279.776L56.2 278.192C59.848 282.464 63.832 288.176 65.416 292.064L62.056 293.936C60.568 290.144 56.728 284.144 53.128 279.776ZM43.96 272.144L47.848 273.248C45.736 278.816 42.856 285.68 40.456 290.048L37.288 288.944C39.64 284.48 42.472 277.28 43.96 272.144ZM23.368 252.704L25.384 250.016C28.648 251.216 32.776 253.28 34.84 254.96L32.776 257.984C30.76 256.256 26.728 254 23.368 252.704ZM20.824 265.952L22.696 263.168C25.96 264.224 30.184 266.096 32.344 267.632L30.376 270.656C28.312 269.12 24.184 267.104 20.824 265.952ZM22.504 290.912C24.952 287.216 28.552 280.88 31.192 275.456L33.88 277.712C31.48 282.8 28.312 288.8 25.624 293.264L22.504 290.912ZM40.504 308.168H44.488C44.104 315.704 43.384 339.656 23.512 350.456C22.888 349.544 21.688 348.44 20.584 347.624C40.168 337.64 40.168 314.552 40.504 308.168ZM44.344 309.128C44.488 312.872 45.88 338.36 65.656 347.432C64.6 348.248 63.496 349.448 62.92 350.456C42.568 340.712 41.224 313.88 40.888 309.464L44.344 309.128Z" fill="#333333"/>
<path d="M353.699 30.8742C353.699 30.8742 351.989 25.4354 356.402 16.3867C360.814 7.33791 368.921 5.27166 373.557 7.55165C375 8.24349 376.186 9.34397 376.953 10.7036C377.72 12.0633 378.032 13.6163 377.846 15.1517C377.846 15.1517 386.598 13.3467 387.912 20.0917C389.226 26.8367 384.813 29.3304 379.136 29.5917C375.913 29.6826 372.816 30.8028 370.334 32.7742L353.699 30.8742Z" fill="#F0D5A8"/>
<path d="M377.846 15.2478C378.032 13.7125 377.72 12.1595 376.953 10.7998C376.185 9.44015 375 8.33967 373.557 7.64784C369.02 5.41534 360.988 7.64784 356.674 15.9366C359.698 13.1816 363.219 11.4003 366.59 12.3266C372.417 13.9653 372.02 17.1953 372.02 17.1953C375.644 16.3814 379.457 16.9703 382.631 18.8341C385.103 20.2931 386.882 22.6198 387.589 25.3178C388.237 23.6795 388.358 21.8926 387.936 20.1878C386.597 13.4428 377.846 15.2478 377.846 15.2478Z" fill="#F7E5C6"/>
<path d="M353.699 30.8742C353.699 30.8742 351.989 25.4354 356.402 16.3867C360.814 7.33791 368.921 5.27166 373.557 7.55165C375 8.24349 376.186 9.34397 376.953 10.7036C377.72 12.0633 378.032 13.6163 377.846 15.1517C377.846 15.1517 386.598 13.3467 387.912 20.0917C389.226 26.8367 384.813 29.3304 379.136 29.5917C375.913 29.6826 372.816 30.8028 370.334 32.7742L353.699 30.8742Z" stroke="#45413C" stroke-linecap="round" stroke-linejoin="round"/>
<path d="M375.739 34.7946C375.739 38.7371 369.814 43.8196 362.5 43.8196C355.187 43.8196 349.262 38.7371 349.262 34.7946C349.262 30.8521 355.187 29.4746 362.5 29.4746C369.814 29.4746 375.739 30.8759 375.739 34.7946Z" fill="#BF8256" stroke="#45413C" stroke-linecap="round" stroke-linejoin="round"/>
<path opacity="0.15" d="M322.361 107.018C322.361 108.24 326.59 109.412 334.117 110.276C341.645 111.14 351.854 111.625 362.499 111.625C373.144 111.625 383.353 111.14 390.881 110.276C398.408 109.412 402.637 108.24 402.637 107.018C402.637 105.796 398.408 104.624 390.881 103.76C383.353 102.896 373.144 102.41 362.499 102.41C351.854 102.41 341.645 102.896 334.117 103.76C326.59 104.624 322.361 105.796 322.361 107.018Z" fill="#45413C"/>
<path d="M395.274 102.125C396.347 101.827 397.29 101.202 397.961 100.345C398.632 99.4884 398.994 98.4461 398.993 97.3752L397.431 66.0727C396.613 49.5427 381.217 36.6465 362.499 36.6465C343.781 36.6465 328.411 49.5427 327.593 65.8827L326.006 97.1852C326.006 98.2592 326.372 99.3038 327.047 100.161C327.723 101.018 328.671 101.641 329.749 101.935C351.022 108.622 373.959 108.689 395.274 102.125Z" fill="#F0D5A8"/>
<path d="M397.803 73.3402L397.431 65.8827C396.613 49.5427 381.217 36.6465 362.499 36.6465C343.782 36.6465 328.411 49.5427 327.593 65.8827L327.221 73.3402C329.452 58.2352 344.798 46.6927 362.499 46.6927C380.2 46.6927 395.571 58.2352 397.803 73.3402Z" fill="#F7E5C6"/>
<path d="M395.274 102.125C396.347 101.827 397.29 101.202 397.961 100.345C398.632 99.4884 398.994 98.4461 398.993 97.3752L397.431 66.0727C396.613 49.5427 381.217 36.6465 362.499 36.6465C343.781 36.6465 328.411 49.5427 327.593 65.8827L326.006 97.1852C326.006 98.2592 326.372 99.3038 327.047 100.161C327.723 101.018 328.671 101.641 329.749 101.935C351.022 108.622 373.959 108.689 395.274 102.125Z" stroke="#45413C" stroke-linecap="round" stroke-linejoin="round"/>
<path d="M353.08 48.949C353.08 42.1565 357.295 36.6465 362.501 36.6465C367.707 36.6465 371.947 42.1565 371.947 48.949" stroke="#45413C" stroke-linecap="round" stroke-linejoin="round"/>
<path d="M377.846 15.248C373.701 15.9277 369.899 17.8779 367.012 20.8055Z" fill="#FF87AF"/>
<path d="M377.846 15.248C373.701 15.9277 369.899 17.8779 367.012 20.8055" stroke="#45413C" stroke-linecap="round" stroke-linejoin="round"/>
<path d="M360.888 87.0435V78.8973L357.219 77.7573C355.883 77.3448 354.614 76.7531 353.451 75.9998C352.413 75.3073 351.563 74.3872 350.972 73.316C350.288 72.0483 349.955 70.6336 350.005 69.2073C349.977 67.3483 350.465 65.5156 351.419 63.8965C352.373 62.2774 353.758 60.9301 355.434 59.9923C357.122 59.0283 359.008 58.4286 360.963 58.2348V55.456C360.975 55.3025 361.019 55.1529 361.094 55.0168C361.17 54.8806 361.273 54.7608 361.399 54.6649C361.525 54.569 361.67 54.499 361.825 54.4594C361.98 54.4198 362.143 54.4114 362.301 54.4348C362.921 54.4348 363.293 54.6248 363.442 54.981C363.625 55.5495 363.7 56.1447 363.665 56.7385V58.2348C365.74 58.2923 367.784 58.7276 369.689 59.5173C370.325 59.6854 370.906 60.0045 371.378 60.4449C371.851 60.8853 372.199 61.4328 372.392 62.0367C372.585 62.6406 372.616 63.2814 372.481 63.8996C372.347 64.5179 372.052 65.0936 371.623 65.5735C371.324 65.9232 370.945 66.2018 370.515 66.3872C370.085 66.5727 369.615 66.66 369.144 66.6423C368.221 66.5876 367.315 66.3786 366.466 66.0248C365.558 65.6779 364.609 65.4386 363.64 65.3123V71.8198C365.637 72.3417 367.593 73.0005 369.491 73.791C371.089 74.4992 372.471 75.5865 373.507 76.9498C374.73 78.6385 375.332 80.6688 375.218 82.721C375.236 84.2286 374.932 85.7237 374.325 87.1148C373.762 88.4173 372.917 89.5909 371.846 90.5585C370.771 91.5637 369.51 92.369 368.128 92.9335C366.712 93.5198 365.203 93.8731 363.665 93.9785V96.7335C363.624 97.024 363.495 97.2966 363.293 97.5173C363.167 97.6283 363.018 97.7131 362.856 97.7663C362.694 97.8194 362.522 97.8398 362.351 97.826C361.731 97.826 361.359 97.636 361.186 97.256C361.015 96.7014 360.94 96.1238 360.963 95.546V94.026C359.297 93.9809 357.638 93.7981 356.004 93.4798C354.458 93.2035 352.989 92.6211 351.691 91.7698C351.137 91.4419 350.68 90.984 350.364 90.4395C350.047 89.8949 349.881 89.2819 349.881 88.6585C349.88 87.7829 350.215 86.9374 350.823 86.2835C351.134 85.9522 351.517 85.691 351.946 85.5185C352.374 85.346 352.838 85.2666 353.302 85.286C354.571 85.3933 355.816 85.6814 356.996 86.141C358.259 86.5643 359.563 86.8666 360.888 87.0435ZM360.888 70.9885V65.4073C360.148 65.5867 359.477 65.9659 358.955 66.4998C358.451 67.0044 358.175 67.6783 358.186 68.376C358.175 68.6574 358.229 68.9375 358.345 69.1963C358.461 69.4551 358.635 69.686 358.855 69.8723C359.464 70.3498 360.151 70.727 360.888 70.9885ZM363.64 79.7048V86.8298C364.615 86.6459 365.491 86.1419 366.119 85.4048C366.712 84.6899 367.028 83.8001 367.012 82.8873C366.938 81.486 365.847 80.4173 363.64 79.7048Z" fill="#45413C"/>
<path d="M290.64 127.21H308.22V128.92H290.64V127.21ZM303.15 124.75L304.2 123.67C305.37 124.18 306.75 125.02 307.47 125.71L306.39 126.91C305.67 126.19 304.29 125.32 303.15 124.75ZM305.13 130.3L306.96 130.66C305.46 136.33 302.46 140.53 298.32 143.2C298.05 142.84 297.39 142.09 297 141.76C301.08 139.39 303.84 135.49 305.13 130.3ZM290.34 139.48C292.65 139.09 296.01 138.52 299.4 137.89L299.46 139.48C296.34 140.08 293.13 140.74 290.64 141.19L290.34 139.48ZM293.31 132.22V135.25H296.73V132.22H293.31ZM291.69 130.81H298.38V136.63H291.69V130.81ZM299.52 124H301.44C301.83 132.49 303.15 140.41 306.06 140.86C306.48 140.95 306.78 139.69 306.99 137.74C307.35 138.1 308.04 138.58 308.46 138.76C308.07 142.06 307.02 143.26 305.43 142.69C301.29 141.79 300.06 133.27 299.52 124ZM286.86 121.21H311.94V147.52H309.69V123.25H288.99V147.52H286.86V121.21ZM288.18 144.07H310.95V146.11H288.18V144.07ZM323.34 124.42H330.99V126.55H323.34V124.42ZM336.45 119.83H338.76V147.34H336.45V119.83ZM320.07 131.95L321.24 130.3C323.76 131.68 326.85 133.81 328.32 135.34L327.06 137.2C325.62 135.64 322.59 133.39 320.07 131.95ZM324.21 119.8L326.46 120.25C324.87 126.13 322.23 131.35 318.87 134.74C318.48 134.35 317.52 133.63 316.98 133.27C320.31 130.21 322.8 125.23 324.21 119.8ZM333.36 126.94C335.91 131.65 340.89 136.3 345.75 138.49C345.21 138.94 344.52 139.78 344.13 140.38C339.24 137.86 334.29 132.88 331.47 127.66L333.36 126.94ZM330.36 124.42H330.78L331.2 124.33L332.64 124.81C330.84 136.48 325.89 143.65 319.47 147.25C319.08 146.74 318.21 145.93 317.67 145.57C324.06 142.21 328.8 135.61 330.36 124.93V124.42ZM350.16 124H376.05V126.19H350.16V124ZM361.74 119.83H364.08V147.4H361.74V119.83ZM362.01 133.15L363.9 133.9C360.96 139.03 355.77 143.68 350.7 146.05C350.34 145.48 349.62 144.58 349.11 144.13C354.12 142.09 359.31 137.71 362.01 133.15ZM363.96 133.21C366.6 137.8 371.73 142.12 376.92 144.1C376.35 144.58 375.63 145.48 375.24 146.11C370.08 143.8 364.98 139.12 362.07 133.99L363.96 133.21ZM354.15 131.59L355.65 130.21C357.06 131.41 358.92 133.12 359.85 134.2L358.32 135.73C357.39 134.65 355.59 132.85 354.15 131.59ZM355.41 126.91L357.6 127.3C356.55 131.68 354.45 135.25 351.66 137.56C351.3 137.17 350.43 136.45 349.89 136.09C352.62 134.05 354.51 130.78 355.41 126.91ZM368.58 131.65L370.08 130.33C372.09 131.86 374.85 134.11 376.2 135.49L374.61 137.05C373.32 135.61 370.62 133.3 368.58 131.65ZM369.63 126.91L371.79 127.27C371.01 131.05 369.39 134.2 367.26 136.3C366.84 135.94 365.88 135.31 365.34 135.04C367.53 133.21 368.97 130.27 369.63 126.91ZM383.73 124.63H392.85V144.25H383.73V142.21H390.75V126.64H383.73V124.63ZM382.38 124.63H384.48V146.65H382.38V124.63ZM383.58 132.97H391.86V134.98H383.58V132.97ZM386.97 119.74L389.4 120.19C388.8 122.05 388.05 124.12 387.45 125.47L385.65 125.02C386.16 123.58 386.73 121.3 386.97 119.74ZM397.11 124.54H406.32V126.64H397.11V124.54ZM405.54 124.54H407.64C407.64 124.54 407.64 125.38 407.64 125.71C407.16 139.48 406.74 144.13 405.54 145.6C404.88 146.47 404.19 146.74 403.14 146.83C402.12 146.95 400.35 146.89 398.67 146.8C398.61 146.14 398.34 145.21 397.92 144.61C399.87 144.76 401.67 144.79 402.36 144.79C402.96 144.79 403.32 144.7 403.65 144.31C404.64 143.23 405.12 138.25 405.54 125.02V124.54ZM397.74 119.68L399.9 120.19C398.79 124.66 397.02 129.07 394.95 131.92C394.56 131.56 393.63 130.93 393.09 130.63C395.13 127.99 396.78 123.85 397.74 119.68ZM396.36 132.34L398.1 131.32C399.81 133.45 401.88 136.36 402.84 138.13L400.92 139.33C400.02 137.5 398.01 134.53 396.36 132.34ZM424.92 124.09L439.68 122.65L439.86 124.48L425.13 125.92L424.92 124.09ZM424.56 137.44L440.07 135.97L440.28 137.8L424.71 139.3L424.56 137.44ZM428.07 119.8H430.11C430.62 126.28 434.79 131.35 437.67 131.32C438.39 131.32 438.6 130.66 438.72 128.77C439.17 129.16 439.8 129.49 440.34 129.67C439.98 132.52 439.23 133.3 437.55 133.3C433.38 133.3 428.67 127.33 428.07 119.8ZM428.19 133.12H430.26C430.68 140.11 434.46 145.45 437.7 145.39C438.48 145.39 438.69 144.67 438.84 142.6C439.29 143.02 439.95 143.38 440.49 143.56C440.13 146.59 439.38 147.4 437.58 147.4C432.93 147.4 428.7 141.13 428.19 133.12ZM436.02 125.38L437.91 126.1C435.27 129.37 430.26 131.59 425.67 132.94C425.4 132.52 424.74 131.65 424.32 131.26C428.91 130.18 433.68 128.2 436.02 125.38ZM436.47 138.67L438.48 139.39C435.57 143.26 430.02 145.75 424.71 147.22C424.47 146.77 423.81 145.81 423.39 145.39C428.67 144.22 433.95 142.03 436.47 138.67ZM432.78 121.06L433.83 119.89C435.15 120.31 436.86 121.09 437.73 121.72L436.68 123.07C435.84 122.38 434.13 121.57 432.78 121.06ZM432.33 133.9L433.53 132.73C434.91 133.27 436.62 134.14 437.49 134.86L436.23 136.15C435.39 135.43 433.71 134.47 432.33 133.9ZM414.84 127.24H423.27V129.19H414.84V127.24ZM413.22 132.37H424.2V134.35H413.22V132.37ZM413.91 136.33L415.47 135.94C416.07 137.77 416.55 140.08 416.67 141.64L414.99 142.06C414.96 140.5 414.48 138.16 413.91 136.33ZM412.95 144.4C415.86 143.92 420.24 143.05 424.47 142.18L424.62 144.07C420.66 144.94 416.52 145.84 413.4 146.5L412.95 144.4ZM422.25 135.67L423.99 136.12C423.48 137.95 422.97 140.11 422.46 141.52L420.99 141.1C421.44 139.63 421.98 137.26 422.25 135.67ZM417.93 127.96H419.91V144.31L417.93 144.64V127.96ZM417.84 119.83H419.01V120.31H419.67V120.88C418.5 123.19 416.55 126.37 413.58 128.98C413.25 128.53 412.59 127.87 412.17 127.57C414.9 125.29 416.82 122.23 417.84 119.83ZM418.2 119.83H419.88C421.65 121.42 423.87 123.73 424.92 125.23L423.42 126.94C422.4 125.41 420.36 122.92 418.62 121.42H418.2V119.83Z" fill="#2C3E50"/>
<path d="M353.699 220.874C353.699 220.874 351.989 215.435 356.402 206.387C360.814 197.338 368.921 195.272 373.557 197.552C375 198.243 376.186 199.344 376.953 200.704C377.72 202.063 378.032 203.616 377.846 205.152C377.846 205.152 386.598 203.347 387.912 210.092C389.226 216.837 384.813 219.33 379.136 219.592C375.913 219.683 372.816 220.803 370.334 222.774L353.699 220.874Z" fill="#F0D5A8"/>
<path d="M377.846 205.248C378.032 203.712 377.72 202.16 376.953 200.8C376.185 199.44 375 198.34 373.557 197.648C369.02 195.415 360.988 197.648 356.674 205.937C359.698 203.182 363.219 201.4 366.59 202.327C372.417 203.965 372.02 207.195 372.02 207.195C375.644 206.381 379.457 206.97 382.631 208.834C385.103 210.293 386.882 212.62 387.589 215.318C388.237 213.68 388.358 211.893 387.936 210.188C386.597 203.443 377.846 205.248 377.846 205.248Z" fill="#F7E5C6"/>
<path d="M353.699 220.874C353.699 220.874 351.989 215.435 356.402 206.387C360.814 197.338 368.921 195.272 373.557 197.552C375 198.243 376.186 199.344 376.953 200.704C377.72 202.063 378.032 203.616 377.846 205.152C377.846 205.152 386.598 203.347 387.912 210.092C389.226 216.837 384.813 219.33 379.136 219.592C375.913 219.683 372.816 220.803 370.334 222.774L353.699 220.874Z" stroke="#45413C" stroke-linecap="round" stroke-linejoin="round"/>
<path d="M375.739 224.795C375.739 228.737 369.814 233.82 362.5 233.82C355.187 233.82 349.262 228.737 349.262 224.795C349.262 220.852 355.187 219.475 362.5 219.475C369.814 219.475 375.739 220.876 375.739 224.795Z" fill="#BF8256" stroke="#45413C" stroke-linecap="round" stroke-linejoin="round"/>
<path opacity="0.15" d="M322.361 297.018C322.361 298.24 326.59 299.412 334.117 300.276C341.645 301.14 351.854 301.625 362.499 301.625C373.144 301.625 383.353 301.14 390.881 300.276C398.408 299.412 402.637 298.24 402.637 297.018C402.637 295.796 398.408 294.624 390.881 293.76C383.353 292.896 373.144 292.41 362.499 292.41C351.854 292.41 341.645 292.896 334.117 293.76C326.59 294.624 322.361 295.796 322.361 297.018Z" fill="#45413C"/>
<path d="M395.274 292.125C396.347 291.827 397.29 291.202 397.961 290.345C398.632 289.488 398.994 288.446 398.993 287.375L397.431 256.073C396.613 239.543 381.217 226.646 362.499 226.646C343.781 226.646 328.411 239.543 327.593 255.883L326.006 287.185C326.006 288.259 326.372 289.304 327.047 290.161C327.723 291.018 328.671 291.641 329.749 291.935C351.022 298.622 373.959 298.689 395.274 292.125Z" fill="#F0D5A8"/>
<path d="M397.803 263.34L397.431 255.883C396.613 239.543 381.217 226.646 362.499 226.646C343.782 226.646 328.411 239.543 327.593 255.883L327.221 263.34C329.452 248.235 344.798 236.693 362.499 236.693C380.2 236.693 395.571 248.235 397.803 263.34Z" fill="#F7E5C6"/>
<path d="M395.274 292.125C396.347 291.827 397.29 291.202 397.961 290.345C398.632 289.488 398.994 288.446 398.993 287.375L397.431 256.073C396.613 239.543 381.217 226.646 362.499 226.646C343.781 226.646 328.411 239.543 327.593 255.883L326.006 287.185C326.006 288.259 326.372 289.304 327.047 290.161C327.723 291.018 328.671 291.641 329.749 291.935C351.022 298.622 373.959 298.689 395.274 292.125Z" stroke="#45413C" stroke-linecap="round" stroke-linejoin="round"/>
<path d="M353.08 238.949C353.08 232.156 357.295 226.646 362.501 226.646C367.707 226.646 371.947 232.156 371.947 238.949" stroke="#45413C" stroke-linecap="round" stroke-linejoin="round"/>
<path d="M377.846 205.248C373.701 205.928 369.899 207.878 367.012 210.806Z" fill="#FF87AF"/>
<path d="M377.846 205.248C373.701 205.928 369.899 207.878 367.012 210.806" stroke="#45413C" stroke-linecap="round" stroke-linejoin="round"/>
<path d="M360.888 277.044V268.897L357.219 267.757C355.883 267.345 354.614 266.753 353.451 266C352.413 265.307 351.563 264.387 350.972 263.316C350.288 262.048 349.955 260.634 350.005 259.207C349.977 257.348 350.465 255.516 351.419 253.896C352.373 252.277 353.758 250.93 355.434 249.992C357.122 249.028 359.008 248.429 360.963 248.235V245.456C360.975 245.302 361.019 245.153 361.094 245.017C361.17 244.881 361.273 244.761 361.399 244.665C361.525 244.569 361.67 244.499 361.825 244.459C361.98 244.42 362.143 244.411 362.301 244.435C362.921 244.435 363.293 244.625 363.442 244.981C363.625 245.55 363.7 246.145 363.665 246.739V248.235C365.74 248.292 367.784 248.728 369.689 249.517C370.325 249.685 370.906 250.004 371.378 250.445C371.851 250.885 372.199 251.433 372.392 252.037C372.585 252.641 372.616 253.281 372.481 253.9C372.347 254.518 372.052 255.094 371.623 255.574C371.324 255.923 370.945 256.202 370.515 256.387C370.085 256.573 369.615 256.66 369.144 256.642C368.221 256.588 367.315 256.379 366.466 256.025C365.558 255.678 364.609 255.439 363.64 255.312V261.82C365.637 262.342 367.593 263 369.491 263.791C371.089 264.499 372.471 265.586 373.507 266.95C374.73 268.638 375.332 270.669 375.218 272.721C375.236 274.229 374.932 275.724 374.325 277.115C373.762 278.417 372.917 279.591 371.846 280.559C370.771 281.564 369.51 282.369 368.128 282.934C366.712 283.52 365.203 283.873 363.665 283.979V286.734C363.624 287.024 363.495 287.297 363.293 287.517C363.167 287.628 363.018 287.713 362.856 287.766C362.694 287.819 362.522 287.84 362.351 287.826C361.731 287.826 361.359 287.636 361.186 287.256C361.015 286.701 360.94 286.124 360.963 285.546V284.026C359.297 283.981 357.638 283.798 356.004 283.48C354.458 283.204 352.989 282.621 351.691 281.77C351.137 281.442 350.68 280.984 350.364 280.439C350.047 279.895 349.881 279.282 349.881 278.659C349.88 277.783 350.215 276.937 350.823 276.284C351.134 275.952 351.517 275.691 351.946 275.518C352.374 275.346 352.838 275.267 353.302 275.286C354.571 275.393 355.816 275.681 356.996 276.141C358.259 276.564 359.563 276.867 360.888 277.044ZM360.888 260.989V255.407C360.148 255.587 359.477 255.966 358.955 256.5C358.451 257.004 358.175 257.678 358.186 258.376C358.175 258.657 358.229 258.938 358.345 259.196C358.461 259.455 358.635 259.686 358.855 259.872C359.464 260.35 360.151 260.727 360.888 260.989ZM363.64 269.705V276.83C364.615 276.646 365.491 276.142 366.119 275.405C366.712 274.69 367.028 273.8 367.012 272.887C366.938 271.486 365.847 270.417 363.64 269.705Z" fill="#45413C"/>
<path d="M298.71 311H300.84V314.06C300.84 316.7 300.09 320 296.76 322.19C296.46 321.74 295.68 320.87 295.23 320.57C298.23 318.68 298.71 316.1 298.71 314.03V311ZM299.82 311H307.5V313.1H299.82V311ZM306.48 311H308.64V318.23C308.64 318.89 308.73 318.98 309.27 318.98C309.51 318.98 310.59 318.98 310.92 318.98C311.46 318.98 311.58 318.56 311.64 315.44C312.09 315.83 312.96 316.13 313.56 316.31C313.38 319.97 312.84 320.93 311.16 320.93C310.74 320.93 309.3 320.93 308.91 320.93C307.02 320.93 306.48 320.36 306.48 318.23V311ZM296.91 322.79H309.72V324.86H296.91V322.79ZM309.06 322.79H309.51L309.93 322.7L311.37 323.33C308.91 331.31 302.58 335.57 295.41 337.46C295.2 336.86 294.66 335.9 294.24 335.42C300.93 333.92 306.96 329.93 309.06 323.18V322.79ZM299.94 324.74C302.16 330.17 306.9 333.98 313.62 335.39C313.14 335.87 312.48 336.8 312.15 337.4C305.22 335.72 300.45 331.58 297.93 325.37L299.94 324.74ZM285.36 325.91C287.88 325.25 291.69 324.08 295.41 322.94L295.68 324.89C292.32 326.09 288.81 327.32 286.11 328.25L285.36 325.91ZM285.75 315.74H295.71V317.84H285.75V315.74ZM290.13 309.83H292.32V334.76C292.32 336.02 292.02 336.65 291.24 336.98C290.46 337.34 289.26 337.4 287.25 337.37C287.16 336.83 286.83 335.9 286.56 335.33C287.91 335.36 289.17 335.36 289.56 335.33C289.95 335.33 290.13 335.21 290.13 334.76V309.83ZM319.08 312.02L320.07 310.49C322.14 311.03 324.93 312.05 326.37 312.8L325.38 314.54C323.97 313.76 321.18 312.68 319.08 312.02ZM317.58 318.35C319.74 317.84 322.92 316.94 326.04 316.07L326.28 317.84C323.55 318.71 320.73 319.64 318.45 320.33L317.58 318.35ZM330.45 312.02H342.51V313.73H329.13L330.45 312.02ZM341.91 312.02H342.27L342.66 311.93L344.16 312.38C343.32 313.94 342.21 315.62 341.13 316.67L339.33 316.04C340.29 315.11 341.31 313.61 341.91 312.35V312.02ZM334.17 312.62H336.24C335.61 316.88 333.69 319.22 327.57 320.45C327.36 319.97 326.88 319.22 326.49 318.83C332.04 317.9 333.66 316.04 334.17 312.62ZM336.15 313.16C336.75 315.71 338.22 318.17 344.88 319.13C344.46 319.58 343.95 320.39 343.71 320.96C336.6 319.73 335.1 316.49 334.32 313.34L336.15 313.16ZM330.93 309.8L332.97 310.13C331.95 312.32 330.42 314.54 328.08 316.34C327.69 315.92 326.91 315.44 326.37 315.2C328.62 313.67 330.15 311.6 330.93 309.8ZM323.79 325.49V327.53H338.91V325.49H323.79ZM323.79 329V331.1H338.91V329H323.79ZM323.79 321.98V324.02H338.91V321.98H323.79ZM321.6 320.48H341.16V332.6H321.6V320.48ZM333.69 334.13L335.52 332.99C338.82 334.01 342.45 335.33 344.61 336.35L342.12 337.49C340.23 336.5 336.96 335.21 333.69 334.13ZM326.64 332.93L328.68 333.86C326.25 335.3 322.44 336.68 319.44 337.52C319.08 337.07 318.3 336.2 317.79 335.81C320.88 335.15 324.48 334.1 326.64 332.93ZM361.44 310.73H363.93C363.69 315.44 363.24 330.41 350.82 337.16C350.43 336.59 349.68 335.9 348.99 335.39C361.23 329.15 361.23 314.72 361.44 310.73ZM363.84 311.33C363.93 313.67 364.8 329.6 377.16 335.27C376.5 335.78 375.81 336.53 375.45 337.16C362.73 331.07 361.89 314.3 361.68 311.54L363.84 311.33ZM383.73 314.63H392.85V334.25H383.73V332.21H390.75V316.64H383.73V314.63ZM382.38 314.63H384.48V336.65H382.38V314.63ZM383.58 322.97H391.86V324.98H383.58V322.97ZM386.97 309.74L389.4 310.19C388.8 312.05 388.05 314.12 387.45 315.47L385.65 315.02C386.16 313.58 386.73 311.3 386.97 309.74ZM397.11 314.54H406.32V316.64H397.11V314.54ZM405.54 314.54H407.64C407.64 314.54 407.64 315.38 407.64 315.71C407.16 329.48 406.74 334.13 405.54 335.6C404.88 336.47 404.19 336.74 403.14 336.83C402.12 336.95 400.35 336.89 398.67 336.8C398.61 336.14 398.34 335.21 397.92 334.61C399.87 334.76 401.67 334.79 402.36 334.79C402.96 334.79 403.32 334.7 403.65 334.31C404.64 333.23 405.12 328.25 405.54 315.02V314.54ZM397.74 309.68L399.9 310.19C398.79 314.66 397.02 319.07 394.95 321.92C394.56 321.56 393.63 320.93 393.09 320.63C395.13 317.99 396.78 313.85 397.74 309.68ZM396.36 322.34L398.1 321.32C399.81 323.45 401.88 326.36 402.84 328.13L400.92 329.33C400.02 327.5 398.01 324.53 396.36 322.34ZM424.92 314.09L439.68 312.65L439.86 314.48L425.13 315.92L424.92 314.09ZM424.56 327.44L440.07 325.97L440.28 327.8L424.71 329.3L424.56 327.44ZM428.07 309.8H430.11C430.62 316.28 434.79 321.35 437.67 321.32C438.39 321.32 438.6 320.66 438.72 318.77C439.17 319.16 439.8 319.49 440.34 319.67C439.98 322.52 439.23 323.3 437.55 323.3C433.38 323.3 428.67 317.33 428.07 309.8ZM428.19 323.12H430.26C430.68 330.11 434.46 335.45 437.7 335.39C438.48 335.39 438.69 334.67 438.84 332.6C439.29 333.02 439.95 333.38 440.49 333.56C440.13 336.59 439.38 337.4 437.58 337.4C432.93 337.4 428.7 331.13 428.19 323.12ZM436.02 315.38L437.91 316.1C435.27 319.37 430.26 321.59 425.67 322.94C425.4 322.52 424.74 321.65 424.32 321.26C428.91 320.18 433.68 318.2 436.02 315.38ZM436.47 328.67L438.48 329.39C435.57 333.26 430.02 335.75 424.71 337.22C424.47 336.77 423.81 335.81 423.39 335.39C428.67 334.22 433.95 332.03 436.47 328.67ZM432.78 311.06L433.83 309.89C435.15 310.31 436.86 311.09 437.73 311.72L436.68 313.07C435.84 312.38 434.13 311.57 432.78 311.06ZM432.33 323.9L433.53 322.73C434.91 323.27 436.62 324.14 437.49 324.86L436.23 326.15C435.39 325.43 433.71 324.47 432.33 323.9ZM414.84 317.24H423.27V319.19H414.84V317.24ZM413.22 322.37H424.2V324.35H413.22V322.37ZM413.91 326.33L415.47 325.94C416.07 327.77 416.55 330.08 416.67 331.64L414.99 332.06C414.96 330.5 414.48 328.16 413.91 326.33ZM412.95 334.4C415.86 333.92 420.24 333.05 424.47 332.18L424.62 334.07C420.66 334.94 416.52 335.84 413.4 336.5L412.95 334.4ZM422.25 325.67L423.99 326.12C423.48 327.95 422.97 330.11 422.46 331.52L420.99 331.1C421.44 329.63 421.98 327.26 422.25 325.67ZM417.93 317.96H419.91V334.31L417.93 334.64V317.96ZM417.84 309.83H419.01V310.31H419.67V310.88C418.5 313.19 416.55 316.37 413.58 318.98C413.25 318.53 412.59 317.87 412.17 317.57C414.9 315.29 416.82 312.23 417.84 309.83ZM418.2 309.83H419.88C421.65 311.42 423.87 313.73 424.92 315.23L423.42 316.94C422.4 315.41 420.36 312.92 418.62 311.42H418.2V309.83Z" fill="#2C3E50"/>
<path d="M356.699 402.874C356.699 402.874 354.989 397.435 359.402 388.387C363.814 379.338 371.921 377.272 376.557 379.552C378 380.243 379.186 381.344 379.953 382.704C380.72 384.063 381.032 385.616 380.846 387.152C380.846 387.152 389.598 385.347 390.912 392.092C392.226 398.837 387.813 401.33 382.136 401.592C378.913 401.683 375.816 402.803 373.334 404.774L356.699 402.874Z" fill="#F0D5A8"/>
<path d="M380.846 387.248C381.032 385.712 380.72 384.16 379.953 382.8C379.185 381.44 378 380.34 376.557 379.648C372.02 377.415 363.988 379.648 359.674 387.937C362.698 385.182 366.219 383.4 369.59 384.327C375.417 385.965 375.02 389.195 375.02 389.195C378.644 388.381 382.457 388.97 385.631 390.834C388.103 392.293 389.882 394.62 390.589 397.318C391.237 395.68 391.358 393.893 390.936 392.188C389.597 385.443 380.846 387.248 380.846 387.248Z" fill="#F7E5C6"/>
<path d="M356.699 402.874C356.699 402.874 354.989 397.435 359.402 388.387C363.814 379.338 371.921 377.272 376.557 379.552C378 380.243 379.186 381.344 379.953 382.704C380.72 384.063 381.032 385.616 380.846 387.152C380.846 387.152 389.598 385.347 390.912 392.092C392.226 398.837 387.813 401.33 382.136 401.592C378.913 401.683 375.816 402.803 373.334 404.774L356.699 402.874Z" stroke="#45413C" stroke-linecap="round" stroke-linejoin="round"/>
<path d="M378.739 406.795C378.739 410.737 372.814 415.82 365.5 415.82C358.187 415.82 352.262 410.737 352.262 406.795C352.262 402.852 358.187 401.475 365.5 401.475C372.814 401.475 378.739 402.876 378.739 406.795Z" fill="#BF8256" stroke="#45413C" stroke-linecap="round" stroke-linejoin="round"/>
<path opacity="0.15" d="M325.361 479.018C325.361 480.24 329.59 481.412 337.117 482.276C344.645 483.14 354.854 483.625 365.499 483.625C376.144 483.625 386.353 483.14 393.881 482.276C401.408 481.412 405.637 480.24 405.637 479.018C405.637 477.796 401.408 476.624 393.881 475.76C386.353 474.896 376.144 474.41 365.499 474.41C354.854 474.41 344.645 474.896 337.117 475.76C329.59 476.624 325.361 477.796 325.361 479.018Z" fill="#45413C"/>
<path d="M398.274 474.125C399.347 473.827 400.29 473.202 400.961 472.345C401.632 471.488 401.994 470.446 401.993 469.375L400.431 438.073C399.613 421.543 384.217 408.646 365.499 408.646C346.781 408.646 331.411 421.543 330.593 437.883L329.006 469.185C329.006 470.259 329.372 471.304 330.047 472.161C330.723 473.018 331.671 473.641 332.749 473.935C354.022 480.622 376.959 480.689 398.274 474.125Z" fill="#F0D5A8"/>
<path d="M400.803 445.34L400.431 437.883C399.613 421.543 384.217 408.646 365.499 408.646C346.782 408.646 331.411 421.543 330.593 437.883L330.221 445.34C332.452 430.235 347.798 418.693 365.499 418.693C383.2 418.693 398.571 430.235 400.803 445.34Z" fill="#F7E5C6"/>
<path d="M398.274 474.125C399.347 473.827 400.29 473.202 400.961 472.345C401.632 471.488 401.994 470.446 401.993 469.375L400.431 438.073C399.613 421.543 384.217 408.646 365.499 408.646C346.781 408.646 331.411 421.543 330.593 437.883L329.006 469.185C329.006 470.259 329.372 471.304 330.047 472.161C330.723 473.018 331.671 473.641 332.749 473.935C354.022 480.622 376.959 480.689 398.274 474.125Z" stroke="#45413C" stroke-linecap="round" stroke-linejoin="round"/>
<path d="M356.08 420.949C356.08 414.156 360.295 408.646 365.501 408.646C370.707 408.646 374.947 414.156 374.947 420.949" stroke="#45413C" stroke-linecap="round" stroke-linejoin="round"/>
<path d="M380.846 387.248C376.701 387.928 372.899 389.878 370.012 392.806Z" fill="#FF87AF"/>
<path d="M380.846 387.248C376.701 387.928 372.899 389.878 370.012 392.806" stroke="#45413C" stroke-linecap="round" stroke-linejoin="round"/>
<path d="M363.888 459.044V450.897L360.219 449.757C358.883 449.345 357.614 448.753 356.451 448C355.413 447.307 354.563 446.387 353.972 445.316C353.288 444.048 352.955 442.634 353.005 441.207C352.977 439.348 353.465 437.516 354.419 435.896C355.373 434.277 356.758 432.93 358.434 431.992C360.122 431.028 362.008 430.429 363.963 430.235V427.456C363.975 427.302 364.019 427.153 364.094 427.017C364.17 426.881 364.273 426.761 364.399 426.665C364.525 426.569 364.67 426.499 364.825 426.459C364.98 426.42 365.143 426.411 365.301 426.435C365.921 426.435 366.293 426.625 366.442 426.981C366.625 427.55 366.7 428.145 366.665 428.739V430.235C368.74 430.292 370.784 430.728 372.689 431.517C373.325 431.685 373.906 432.004 374.378 432.445C374.851 432.885 375.199 433.433 375.392 434.037C375.585 434.641 375.616 435.281 375.481 435.9C375.347 436.518 375.052 437.094 374.623 437.574C374.324 437.923 373.945 438.202 373.515 438.387C373.085 438.573 372.615 438.66 372.144 438.642C371.221 438.588 370.315 438.379 369.466 438.025C368.558 437.678 367.609 437.439 366.64 437.312V443.82C368.637 444.342 370.593 445 372.491 445.791C374.089 446.499 375.471 447.586 376.507 448.95C377.73 450.638 378.332 452.669 378.218 454.721C378.236 456.229 377.932 457.724 377.325 459.115C376.762 460.417 375.917 461.591 374.846 462.559C373.771 463.564 372.51 464.369 371.128 464.934C369.712 465.52 368.203 465.873 366.665 465.979V468.734C366.624 469.024 366.495 469.297 366.293 469.517C366.167 469.628 366.018 469.713 365.856 469.766C365.694 469.819 365.522 469.84 365.351 469.826C364.731 469.826 364.359 469.636 364.186 469.256C364.015 468.701 363.94 468.124 363.963 467.546V466.026C362.297 465.981 360.638 465.798 359.004 465.48C357.458 465.204 355.989 464.621 354.691 463.77C354.137 463.442 353.68 462.984 353.364 462.439C353.047 461.895 352.881 461.282 352.881 460.659C352.88 459.783 353.215 458.937 353.823 458.284C354.134 457.952 354.517 457.691 354.946 457.518C355.374 457.346 355.838 457.267 356.302 457.286C357.571 457.393 358.816 457.681 359.996 458.141C361.259 458.564 362.563 458.867 363.888 459.044ZM363.888 442.989V437.407C363.148 437.587 362.477 437.966 361.955 438.5C361.451 439.004 361.175 439.678 361.186 440.376C361.175 440.657 361.229 440.938 361.345 441.196C361.461 441.455 361.635 441.686 361.855 441.872C362.464 442.35 363.151 442.727 363.888 442.989ZM366.64 451.705V458.83C367.615 458.646 368.491 458.142 369.119 457.405C369.712 456.69 370.028 455.8 370.012 454.887C369.938 453.486 368.847 452.417 366.64 451.705Z" fill="#45413C"/>
<path d="M315.81 502.69L318.45 503.35C316.56 507.88 313.95 513.49 311.73 517.12L309.66 516.46C311.79 512.77 314.4 506.92 315.81 502.69ZM305.97 515.77C311.46 515.59 320.19 515.23 328.23 514.84L328.17 517C320.31 517.45 311.91 517.9 306.27 518.14L305.97 515.77ZM321.57 509.26L323.73 508.27C326.46 511.42 329.55 515.59 331.05 518.32L328.77 519.55C327.36 516.82 324.24 512.44 321.57 509.26ZM312.78 492.7L315.27 493.39C313.26 498.22 310.11 502.81 306.93 505.78C306.45 505.33 305.4 504.52 304.77 504.16C308.07 501.46 311.04 497.14 312.78 492.7ZM323.52 492.67C325.5 496.6 329.28 501.34 332.04 503.83C331.44 504.31 330.6 505.18 330.15 505.75C327.36 502.9 323.61 497.8 321.3 493.6L323.52 492.67ZM337.74 493.75H360.36V495.91H337.74V493.75ZM337.92 499.06H356.01V501.07H337.92V499.06ZM359.46 493.75H361.71V516.04C361.71 517.6 361.41 518.38 360.36 518.8C359.31 519.19 357.42 519.22 354.75 519.22C354.63 518.53 354.3 517.42 353.94 516.76C356.04 516.82 358.08 516.82 358.71 516.79C359.28 516.76 359.46 516.61 359.46 516.04V493.75ZM339.84 504.31H342.03V516.13H339.84V504.31ZM341.64 504.31H353.94V513.91H341.64V511.93H351.72V506.32H341.64V504.31ZM370.83 496.63H379.95V516.25H370.83V514.21H377.85V498.64H370.83V496.63ZM369.48 496.63H371.58V518.65H369.48V496.63ZM370.68 504.97H378.96V506.98H370.68V504.97ZM374.07 491.74L376.5 492.19C375.9 494.05 375.15 496.12 374.55 497.47L372.75 497.02C373.26 495.58 373.83 493.3 374.07 491.74ZM384.21 496.54H393.42V498.64H384.21V496.54ZM392.64 496.54H394.74C394.74 496.54 394.74 497.38 394.74 497.71C394.26 511.48 393.84 516.13 392.64 517.6C391.98 518.47 391.29 518.74 390.24 518.83C389.22 518.95 387.45 518.89 385.77 518.8C385.71 518.14 385.44 517.21 385.02 516.61C386.97 516.76 388.77 516.79 389.46 516.79C390.06 516.79 390.42 516.7 390.75 516.31C391.74 515.23 392.22 510.25 392.64 497.02V496.54ZM384.84 491.68L387 492.19C385.89 496.66 384.12 501.07 382.05 503.92C381.66 503.56 380.73 502.93 380.19 502.63C382.23 499.99 383.88 495.85 384.84 491.68ZM383.46 504.34L385.2 503.32C386.91 505.45 388.98 508.36 389.94 510.13L388.02 511.33C387.12 509.5 385.11 506.53 383.46 504.34ZM412.02 496.09L426.78 494.65L426.96 496.48L412.23 497.92L412.02 496.09ZM411.66 509.44L427.17 507.97L427.38 509.8L411.81 511.3L411.66 509.44ZM415.17 491.8H417.21C417.72 498.28 421.89 503.35 424.77 503.32C425.49 503.32 425.7 502.66 425.82 500.77C426.27 501.16 426.9 501.49 427.44 501.67C427.08 504.52 426.33 505.3 424.65 505.3C420.48 505.3 415.77 499.33 415.17 491.8ZM415.29 505.12H417.36C417.78 512.11 421.56 517.45 424.8 517.39C425.58 517.39 425.79 516.67 425.94 514.6C426.39 515.02 427.05 515.38 427.59 515.56C427.23 518.59 426.48 519.4 424.68 519.4C420.03 519.4 415.8 513.13 415.29 505.12ZM423.12 497.38L425.01 498.1C422.37 501.37 417.36 503.59 412.77 504.94C412.5 504.52 411.84 503.65 411.42 503.26C416.01 502.18 420.78 500.2 423.12 497.38ZM423.57 510.67L425.58 511.39C422.67 515.26 417.12 517.75 411.81 519.22C411.57 518.77 410.91 517.81 410.49 517.39C415.77 516.22 421.05 514.03 423.57 510.67ZM419.88 493.06L420.93 491.89C422.25 492.31 423.96 493.09 424.83 493.72L423.78 495.07C422.94 494.38 421.23 493.57 419.88 493.06ZM419.43 505.9L420.63 504.73C422.01 505.27 423.72 506.14 424.59 506.86L423.33 508.15C422.49 507.43 420.81 506.47 419.43 505.9ZM401.94 499.24H410.37V501.19H401.94V499.24ZM400.32 504.37H411.3V506.35H400.32V504.37ZM401.01 508.33L402.57 507.94C403.17 509.77 403.65 512.08 403.77 513.64L402.09 514.06C402.06 512.5 401.58 510.16 401.01 508.33ZM400.05 516.4C402.96 515.92 407.34 515.05 411.57 514.18L411.72 516.07C407.76 516.94 403.62 517.84 400.5 518.5L400.05 516.4ZM409.35 507.67L411.09 508.12C410.58 509.95 410.07 512.11 409.56 513.52L408.09 513.1C408.54 511.63 409.08 509.26 409.35 507.67ZM405.03 499.96H407.01V516.31L405.03 516.64V499.96ZM404.94 491.83H406.11V492.31H406.77V492.88C405.6 495.19 403.65 498.37 400.68 500.98C400.35 500.53 399.69 499.87 399.27 499.57C402 497.29 403.92 494.23 404.94 491.83ZM405.3 491.83H406.98C408.75 493.42 410.97 495.73 412.02 497.23L410.52 498.94C409.5 497.41 407.46 494.92 405.72 493.42H405.3V491.83Z" fill="#2C3E50"/>
<path d="M542.803 28.5174L513.946 46.5428H511.156C509.661 46.5428 508.438 47.7662 508.438 49.2615C508.438 50.7568 509.661 51.9803 511.154 51.9803V57.4178C509.658 57.4205 508.438 58.6412 508.438 60.1365C508.438 61.6318 509.661 62.8553 511.156 62.8553H513.875V90.0455C513.123 90.0743 512.411 90.3934 511.889 90.9358C511.367 91.4781 511.075 92.2017 511.075 92.9545V95.483H511.347C509.742 95.483 508.438 96.788 508.438 98.392V100.92H584.535V98.392C584.535 96.788 583.23 95.483 581.626 95.483H581.844V92.9545C581.844 92.2158 581.563 91.5047 581.058 90.9654C580.553 90.4262 579.862 90.0992 579.125 90.0509V62.8553H581.844C583.339 62.8553 584.562 61.6318 584.562 60.1365C584.562 58.6412 583.339 57.4178 581.844 57.4178L581.841 51.9803C583.336 51.9803 584.562 50.7568 584.562 49.2615C584.562 47.7662 583.339 46.5428 581.844 46.5428H579.163L550.306 28.5202C548.022 27.0792 545.086 27.0765 542.803 28.5174ZM545.141 50.784V49.3159C544.738 49.2616 544.344 49.1518 543.972 48.9896C543.21 48.7177 542.585 48.2284 542.096 47.5759C541.939 47.3542 541.862 47.0857 541.878 46.8146C541.878 46.7222 541.886 46.6325 541.905 46.5428C541.984 46.2079 542.189 45.916 542.476 45.7271C543.047 45.3737 543.672 45.4553 544.189 45.9718C544.461 46.2696 544.783 46.518 545.141 46.7059C545.154 46.7222 545.173 46.7276 545.195 46.7331L545.206 46.7385C545.648 46.9342 546.126 47.0352 546.609 47.0348C547.354 46.9995 547.623 46.763 547.723 46.5455C547.778 46.4177 547.778 46.2981 547.778 46.2192C547.778 45.9745 547.669 45.7842 547.424 45.6483C547.125 45.4852 546.609 45.2948 545.956 45.1317C545.682 45.0577 545.41 44.9761 545.141 44.887C545.048 44.8517 544.956 44.8218 544.869 44.7919C544.618 44.712 544.373 44.6166 544.135 44.5064C543.618 44.2889 543.183 43.9627 542.83 43.5005C542.449 43.0383 542.259 42.4402 542.259 41.6789C542.259 40.9992 542.449 40.4283 542.857 39.9117C543.21 39.4223 543.7 39.0689 544.325 38.797C544.597 38.6883 544.869 38.5795 545.141 38.5252V36.8939C545.141 36.2414 545.684 35.6705 546.364 35.6705H546.554C547.234 35.6705 547.778 36.2414 547.778 36.8939V38.6339C547.908 38.6529 548.023 38.6937 548.142 38.7345L548.24 38.7698C548.92 39.0417 549.491 39.4223 549.871 39.9389C550.089 40.1836 550.17 40.4827 550.17 40.7817C550.17 41.1623 550.034 41.4886 549.708 41.7333C549.219 42.1411 548.457 42.0867 548.022 41.6517C547.948 41.5718 547.866 41.499 547.778 41.4342C547.626 41.2768 547.44 41.156 547.234 41.0808C546.895 40.9202 546.521 40.8455 546.147 40.8633C545.548 40.8633 545.277 40.9992 545.141 41.1623C545.032 41.2983 545.032 41.4614 545.032 41.5702C545.032 41.7061 545.059 41.842 545.141 41.9508C545.141 41.978 545.168 42.0052 545.195 42.0323C545.358 42.1683 545.521 42.277 545.766 42.3586C546.011 42.4402 546.391 42.5489 546.881 42.6848C547.112 42.761 547.329 42.8235 547.533 42.8833L547.778 42.9567C548.104 43.0655 548.376 43.1742 548.621 43.283C549.11 43.5277 549.545 43.8539 549.871 44.3161C550.225 44.7783 550.415 45.3764 550.415 46.1377C550.42 46.79 550.199 47.424 549.79 47.932C549.393 48.4347 548.866 48.82 548.267 49.0467C548.104 49.1283 547.941 49.1827 547.778 49.2098V50.7867C547.778 51.3713 547.343 51.8661 546.761 51.9639H546.157C545.876 51.919 545.619 51.7759 545.433 51.5599C545.247 51.3439 545.143 51.0691 545.141 50.784ZM559.789 46.5428C560.278 44.1538 560.119 41.6777 559.33 39.3707L570.884 46.5455H559.792L559.789 46.5428ZM533.496 39.5637C532.759 41.8169 532.623 44.2236 533.102 46.5455H522.254L533.496 39.5637ZM524.75 90.0455H522.031V62.858H524.75V90.0455ZM538.344 90.0455H532.906V62.858H560.094V90.0455H554.656V72.7542C554.656 71.8027 553.868 71.0142 552.916 71.0142H540.057C539.105 71.0142 538.344 71.7755 538.344 72.727V90.0455ZM568.25 62.858H570.969V90.0455H568.25V62.858Z" fill="#2C3E50"/>
<path d="M512.44 112.97H518.29V114.77H512.44V112.97ZM515.8 120.41H524.23V122.21H515.8V120.41ZM511.63 136.52H528.76V138.5H511.63V136.52ZM525.73 112.67L527.02 113.9C525.82 114.86 524.44 115.79 523.36 116.45L522.4 115.49C523.42 114.77 524.92 113.48 525.73 112.67ZM527.56 115.79L528.88 117.11C527.65 118.07 526.24 119.06 525.13 119.72L524.17 118.67C525.19 117.95 526.75 116.66 527.56 115.79ZM523.03 131.21L525.16 131.72C524.53 133.37 523.84 135.2 523.24 136.43L521.44 135.92C521.98 134.63 522.73 132.59 523.03 131.21ZM515.08 131.72L517 131.24C517.72 132.65 518.38 134.57 518.59 135.86L516.58 136.46C516.4 135.17 515.77 133.22 515.08 131.72ZM515.77 125.93V129.2H524.2V125.93H515.77ZM513.7 124.13H526.36V131H513.7V124.13ZM511.99 117.02L513.25 115.76C514.42 116.57 515.77 117.77 516.4 118.64L515.05 120.08C514.45 119.18 513.13 117.89 511.99 117.02ZM517.48 112.97H517.84L518.2 112.88L519.49 113.39C518.23 118.58 515.29 122.48 511.9 124.49C511.63 123.98 511.06 123.2 510.61 122.78C513.67 121.19 516.49 117.56 517.48 113.33V112.97ZM522.16 111.89C523.33 116.42 525.79 120.5 529.3 122.27C528.79 122.66 528.16 123.47 527.83 124.01C524.08 121.85 521.59 117.47 520.27 112.31L522.16 111.89ZM502.63 120.89H510.73V122.69H502.63V120.89ZM502.78 112.88H510.61V114.68H502.78V112.88ZM502.63 124.91H510.73V126.71H502.63V124.91ZM501.34 116.81H511.6V118.67H501.34V116.81ZM503.68 128.96H510.73V137.69H503.68V135.83H508.84V130.82H503.68V128.96ZM502.57 128.96H504.49V139.1H502.57V128.96ZM533.59 122.87H560.35V124.94H533.59V122.87ZM535.51 117.44H558.58V119.45H535.51V117.44ZM538.78 128.21H553.24V130.28H538.78V128.21ZM550.45 118.22C552.34 123.32 556.21 127.76 560.95 129.74C560.44 130.16 559.75 131.03 559.45 131.6C554.47 129.23 550.6 124.52 548.47 118.79L550.45 118.22ZM537.4 113.09L539.32 112.37C540.43 113.75 541.6 115.67 542.08 116.93L540.04 117.74C539.62 116.48 538.48 114.53 537.4 113.09ZM553.99 112.28L556.18 113.03C555.22 114.71 554.02 116.54 553.03 117.77L551.11 117.05C552.07 115.76 553.3 113.72 553.99 112.28ZM552.61 128.21H554.89C554.89 128.21 554.86 128.87 554.83 129.2C554.41 135.23 553.99 137.63 553.15 138.5C552.61 139.1 552.04 139.28 551.14 139.37C550.33 139.43 548.74 139.4 547.09 139.31C547.06 138.68 546.79 137.78 546.43 137.21C548.02 137.36 549.58 137.36 550.15 137.36C550.69 137.36 550.99 137.33 551.26 137.06C551.86 136.49 552.25 134.27 552.61 128.54V128.21ZM544.21 128.84H546.55C545.83 134 544 137.63 537.01 139.49C536.8 138.92 536.17 138.02 535.72 137.57C542.14 136.1 543.61 133.04 544.21 128.84ZM545.47 111.77L547.84 112.19C545.92 120.41 542.29 127.73 534.43 131.72C534.1 131.21 533.47 130.37 532.99 129.92C540.49 126.26 543.97 119.36 545.47 111.77ZM565.84 114.65H591.79V116.72H565.84V114.65ZM577.54 111.83H579.85V115.85H577.54V111.83ZM567.13 119.9H589.78V121.91H569.26V139.37H567.13V119.9ZM588.58 119.9H590.74V136.64C590.74 137.96 590.44 138.68 589.48 139.04C588.49 139.37 586.84 139.43 584.35 139.43C584.26 138.83 583.9 137.81 583.6 137.21C585.55 137.3 587.35 137.27 587.89 137.24C588.43 137.24 588.58 137.09 588.58 136.64V119.9ZM574.69 121.37H576.73C576.43 125.3 575.17 127.34 570.55 128.45C570.34 127.97 569.83 127.19 569.44 126.83C573.49 126.02 574.45 124.52 574.69 121.37ZM580.27 121.37H582.25V124.88C582.25 125.45 582.37 125.51 583.12 125.51C583.51 125.51 585.28 125.51 585.76 125.51C586.39 125.51 586.51 125.33 586.6 123.53C586.99 123.83 587.8 124.1 588.34 124.22C588.16 126.65 587.62 127.25 586.03 127.25C585.58 127.25 583.33 127.25 582.91 127.25C580.75 127.25 580.27 126.77 580.27 124.91V121.37ZM573.22 128.81H575.23V138.02H573.22V128.81ZM574.42 128.81H584.62V136.19H574.42V134.42H582.58V130.58H574.42V128.81ZM571.6 116.72L573.79 116.27C574.48 117.41 575.17 118.94 575.47 119.93L573.19 120.47C572.92 119.45 572.26 117.89 571.6 116.72ZM583.69 116.18L586.15 116.63C585.43 118.07 584.68 119.48 584.05 120.47L581.86 120.02C582.49 118.97 583.27 117.29 583.69 116.18Z" fill="black"/>
<path d="M542.803 216.517L513.946 234.543H511.156C509.661 234.543 508.438 235.766 508.438 237.262C508.438 238.757 509.661 239.98 511.154 239.98V245.418C509.658 245.42 508.438 246.641 508.438 248.137C508.438 249.632 509.661 250.855 511.156 250.855H513.875V278.045C513.123 278.074 512.411 278.393 511.889 278.936C511.367 279.478 511.075 280.202 511.075 280.955V283.483H511.347C509.742 283.483 508.438 284.788 508.438 286.392V288.92H584.535V286.392C584.535 284.788 583.23 283.483 581.626 283.483H581.844V280.955C581.844 280.216 581.563 279.505 581.058 278.965C580.553 278.426 579.862 278.099 579.125 278.051V250.855H581.844C583.339 250.855 584.562 249.632 584.562 248.137C584.562 246.641 583.339 245.418 581.844 245.418L581.841 239.98C583.336 239.98 584.562 238.757 584.562 237.262C584.562 235.766 583.339 234.543 581.844 234.543H579.163L550.306 216.52C548.022 215.079 545.086 215.077 542.803 216.517ZM545.141 238.784V237.316C544.738 237.262 544.344 237.152 543.972 236.99C543.21 236.718 542.585 236.228 542.096 235.576C541.939 235.354 541.862 235.086 541.878 234.815C541.878 234.722 541.886 234.632 541.905 234.543C541.984 234.208 542.189 233.916 542.476 233.727C543.047 233.374 543.672 233.455 544.189 233.972C544.461 234.27 544.783 234.518 545.141 234.706C545.154 234.722 545.173 234.728 545.195 234.733L545.206 234.738C545.648 234.934 546.126 235.035 546.609 235.035C547.354 234.999 547.623 234.763 547.723 234.545C547.778 234.418 547.778 234.298 547.778 234.219C547.778 233.975 547.669 233.784 547.424 233.648C547.125 233.485 546.609 233.295 545.956 233.132C545.682 233.058 545.41 232.976 545.141 232.887C545.048 232.852 544.956 232.822 544.869 232.792C544.618 232.712 544.373 232.617 544.135 232.506C543.618 232.289 543.183 231.963 542.83 231.5C542.449 231.038 542.259 230.44 542.259 229.679C542.259 228.999 542.449 228.428 542.857 227.912C543.21 227.422 543.7 227.069 544.325 226.797C544.597 226.688 544.869 226.58 545.141 226.525V224.894C545.141 224.241 545.684 223.67 546.364 223.67H546.554C547.234 223.67 547.778 224.241 547.778 224.894V226.634C547.908 226.653 548.023 226.694 548.142 226.735L548.24 226.77C548.92 227.042 549.491 227.422 549.871 227.939C550.089 228.184 550.17 228.483 550.17 228.782C550.17 229.162 550.034 229.489 549.708 229.733C549.219 230.141 548.457 230.087 548.022 229.652C547.948 229.572 547.866 229.499 547.778 229.434C547.626 229.277 547.44 229.156 547.234 229.081C546.895 228.92 546.521 228.846 546.147 228.863C545.548 228.863 545.277 228.999 545.141 229.162C545.032 229.298 545.032 229.461 545.032 229.57C545.032 229.706 545.059 229.842 545.141 229.951C545.141 229.978 545.168 230.005 545.195 230.032C545.358 230.168 545.521 230.277 545.766 230.359C546.011 230.44 546.391 230.549 546.881 230.685C547.112 230.761 547.329 230.824 547.533 230.883L547.778 230.957C548.104 231.065 548.376 231.174 548.621 231.283C549.11 231.528 549.545 231.854 549.871 232.316C550.225 232.778 550.415 233.376 550.415 234.138C550.42 234.79 550.199 235.424 549.79 235.932C549.393 236.435 548.866 236.82 548.267 237.047C548.104 237.128 547.941 237.183 547.778 237.21V238.787C547.778 239.371 547.343 239.866 546.761 239.964H546.157C545.876 239.919 545.619 239.776 545.433 239.56C545.247 239.344 545.143 239.069 545.141 238.784ZM559.789 234.543C560.278 232.154 560.119 229.678 559.33 227.371L570.884 234.545H559.792L559.789 234.543ZM533.496 227.564C532.759 229.817 532.623 232.224 533.102 234.545H522.254L533.496 227.564ZM524.75 278.045H522.031V250.858H524.75V278.045ZM538.344 278.045H532.906V250.858H560.094V278.045H554.656V260.754C554.656 259.803 553.868 259.014 552.916 259.014H540.057C539.105 259.014 538.344 259.775 538.344 260.727V278.045ZM568.25 250.858H570.969V278.045H568.25V250.858Z" fill="#2C3E50"/>
<path d="M512.44 300.97H518.29V302.77H512.44V300.97ZM515.8 308.41H524.23V310.21H515.8V308.41ZM511.63 324.52H528.76V326.5H511.63V324.52ZM525.73 300.67L527.02 301.9C525.82 302.86 524.44 303.79 523.36 304.45L522.4 303.49C523.42 302.77 524.92 301.48 525.73 300.67ZM527.56 303.79L528.88 305.11C527.65 306.07 526.24 307.06 525.13 307.72L524.17 306.67C525.19 305.95 526.75 304.66 527.56 303.79ZM523.03 319.21L525.16 319.72C524.53 321.37 523.84 323.2 523.24 324.43L521.44 323.92C521.98 322.63 522.73 320.59 523.03 319.21ZM515.08 319.72L517 319.24C517.72 320.65 518.38 322.57 518.59 323.86L516.58 324.46C516.4 323.17 515.77 321.22 515.08 319.72ZM515.77 313.93V317.2H524.2V313.93H515.77ZM513.7 312.13H526.36V319H513.7V312.13ZM511.99 305.02L513.25 303.76C514.42 304.57 515.77 305.77 516.4 306.64L515.05 308.08C514.45 307.18 513.13 305.89 511.99 305.02ZM517.48 300.97H517.84L518.2 300.88L519.49 301.39C518.23 306.58 515.29 310.48 511.9 312.49C511.63 311.98 511.06 311.2 510.61 310.78C513.67 309.19 516.49 305.56 517.48 301.33V300.97ZM522.16 299.89C523.33 304.42 525.79 308.5 529.3 310.27C528.79 310.66 528.16 311.47 527.83 312.01C524.08 309.85 521.59 305.47 520.27 300.31L522.16 299.89ZM502.63 308.89H510.73V310.69H502.63V308.89ZM502.78 300.88H510.61V302.68H502.78V300.88ZM502.63 312.91H510.73V314.71H502.63V312.91ZM501.34 304.81H511.6V306.67H501.34V304.81ZM503.68 316.96H510.73V325.69H503.68V323.83H508.84V318.82H503.68V316.96ZM502.57 316.96H504.49V327.1H502.57V316.96ZM533.59 310.87H560.35V312.94H533.59V310.87ZM535.51 305.44H558.58V307.45H535.51V305.44ZM538.78 316.21H553.24V318.28H538.78V316.21ZM550.45 306.22C552.34 311.32 556.21 315.76 560.95 317.74C560.44 318.16 559.75 319.03 559.45 319.6C554.47 317.23 550.6 312.52 548.47 306.79L550.45 306.22ZM537.4 301.09L539.32 300.37C540.43 301.75 541.6 303.67 542.08 304.93L540.04 305.74C539.62 304.48 538.48 302.53 537.4 301.09ZM553.99 300.28L556.18 301.03C555.22 302.71 554.02 304.54 553.03 305.77L551.11 305.05C552.07 303.76 553.3 301.72 553.99 300.28ZM552.61 316.21H554.89C554.89 316.21 554.86 316.87 554.83 317.2C554.41 323.23 553.99 325.63 553.15 326.5C552.61 327.1 552.04 327.28 551.14 327.37C550.33 327.43 548.74 327.4 547.09 327.31C547.06 326.68 546.79 325.78 546.43 325.21C548.02 325.36 549.58 325.36 550.15 325.36C550.69 325.36 550.99 325.33 551.26 325.06C551.86 324.49 552.25 322.27 552.61 316.54V316.21ZM544.21 316.84H546.55C545.83 322 544 325.63 537.01 327.49C536.8 326.92 536.17 326.02 535.72 325.57C542.14 324.1 543.61 321.04 544.21 316.84ZM545.47 299.77L547.84 300.19C545.92 308.41 542.29 315.73 534.43 319.72C534.1 319.21 533.47 318.37 532.99 317.92C540.49 314.26 543.97 307.36 545.47 299.77ZM565.84 302.65H591.79V304.72H565.84V302.65ZM577.54 299.83H579.85V303.85H577.54V299.83ZM567.13 307.9H589.78V309.91H569.26V327.37H567.13V307.9ZM588.58 307.9H590.74V324.64C590.74 325.96 590.44 326.68 589.48 327.04C588.49 327.37 586.84 327.43 584.35 327.43C584.26 326.83 583.9 325.81 583.6 325.21C585.55 325.3 587.35 325.27 587.89 325.24C588.43 325.24 588.58 325.09 588.58 324.64V307.9ZM574.69 309.37H576.73C576.43 313.3 575.17 315.34 570.55 316.45C570.34 315.97 569.83 315.19 569.44 314.83C573.49 314.02 574.45 312.52 574.69 309.37ZM580.27 309.37H582.25V312.88C582.25 313.45 582.37 313.51 583.12 313.51C583.51 313.51 585.28 313.51 585.76 313.51C586.39 313.51 586.51 313.33 586.6 311.53C586.99 311.83 587.8 312.1 588.34 312.22C588.16 314.65 587.62 315.25 586.03 315.25C585.58 315.25 583.33 315.25 582.91 315.25C580.75 315.25 580.27 314.77 580.27 312.91V309.37ZM573.22 316.81H575.23V326.02H573.22V316.81ZM574.42 316.81H584.62V324.19H574.42V322.42H582.58V318.58H574.42V316.81ZM571.6 304.72L573.79 304.27C574.48 305.41 575.17 306.94 575.47 307.93L573.19 308.47C572.92 307.45 572.26 305.89 571.6 304.72ZM583.69 304.18L586.15 304.63C585.43 306.07 584.68 307.48 584.05 308.47L581.86 308.02C582.49 306.97 583.27 305.29 583.69 304.18Z" fill="black"/>
<path d="M747.294 200.471C748.107 200.308 748.633 199.518 748.471 198.706L745.823 185.468C745.661 184.656 744.871 184.129 744.058 184.291C743.246 184.454 742.719 185.244 742.882 186.056L745.235 197.823L733.468 200.177C732.656 200.339 732.129 201.129 732.291 201.942C732.454 202.754 733.244 203.281 734.056 203.118L747.294 200.471ZM611.168 110.248L746.168 200.248L747.832 197.752L612.832 107.752L611.168 110.248Z" fill="#B4C7DD"/>
<path d="M737.061 268.061C737.646 267.475 737.646 266.525 737.061 265.939L727.515 256.393C726.929 255.808 725.979 255.808 725.393 256.393C724.808 256.979 724.808 257.929 725.393 258.515L733.879 267L725.393 275.485C724.808 276.071 724.808 277.021 725.393 277.607C725.979 278.192 726.929 278.192 727.515 277.607L737.061 268.061ZM612 268.5H736V265.5H612V268.5Z" fill="#B4C7DD"/>
<path d="M717.393 345.557C717.7 344.788 717.326 343.915 716.557 343.607L704.023 338.594C703.253 338.286 702.381 338.66 702.073 339.429C701.765 340.198 702.139 341.071 702.908 341.379L714.05 345.836L709.594 356.977C709.286 357.747 709.66 358.619 710.429 358.927C711.198 359.235 712.071 358.861 712.379 358.092L717.393 345.557ZM464.591 454.379L716.591 346.379L715.409 343.621L463.409 451.621L464.591 454.379Z" fill="#B4C7DD"/>
<path d="M637.379 104.414L644.73 109.762L643.706 111.169L636.355 105.821L637.379 104.414ZM639.971 100.698L648.243 106.716L641.802 115.571L633.529 109.553L634.553 108.146L641.103 112.911L645.48 106.894L638.929 102.129L639.971 100.698ZM639.17 100.116L640.844 101.333L633.503 111.426L631.829 110.208L639.17 100.116ZM639.595 90.1484L646.339 95.0544L645.368 96.3888L638.624 91.4828L639.595 90.1484ZM650.779 98.2839L657.644 103.278L656.674 104.612L649.808 99.6183L650.779 98.2839ZM659.398 99.2861L661.218 100.61L647.488 119.484C646.641 120.649 645.933 121.061 644.927 120.812C643.939 120.538 642.611 119.61 640.573 118.127C640.871 117.565 641.198 116.504 641.301 115.8C642.728 116.95 644.226 118.002 644.68 118.295C645.117 118.613 645.368 118.573 645.668 118.161L659.398 99.2861ZM642.246 86.8093L650.009 92.4565L643.939 100.802L636.175 95.1549L637.199 93.7478L643.24 98.142L647.263 92.6107L641.222 88.2165L642.246 86.8093ZM660.296 99.9391L659.272 101.346L652.916 96.7225L648.857 102.302L655.213 106.926L654.207 108.309L646.104 102.415L652.193 94.0448L660.296 99.9391ZM641.203 86.0505L642.998 87.3564L627.504 108.657L625.708 107.351L641.203 86.0505ZM680.317 112.908L682.161 114.249L679.743 117.573L677.9 116.232L680.317 112.908ZM672.679 111.321L686.168 121.133L685.021 122.71L671.532 112.898L672.679 111.321ZM667.579 116.292L682.718 127.304L681.553 128.906L666.415 117.894L667.579 116.292ZM673.654 114.776L675.46 115.607C675.041 117.306 674.267 119.339 673.605 120.453L671.655 119.665C672.359 118.545 673.193 116.48 673.654 114.776ZM681.124 119.653L682.725 121.226C681.174 122.286 679.392 123.513 678.089 124.234L676.73 122.837C678.045 122.05 679.95 120.654 681.124 119.653ZM664.789 120.384L679.709 131.237L678.562 132.814L663.642 121.961L664.789 120.384ZM672.409 121.586L673.964 123.274C670.697 125.164 666.398 127.453 663.537 128.785L662.349 127.104C665.132 125.827 669.418 123.454 672.409 121.586ZM663.815 127.689L665.783 127.228C668.687 130.936 671.837 136.194 672.954 139.604L670.784 140.14C669.752 136.867 666.716 131.505 663.815 127.689ZM674.383 128.92L675.959 130.476C670.86 135.039 665.824 134.974 657.604 130.516C657.853 129.918 657.997 129.058 657.988 128.458C665.487 132.837 669.898 132.892 674.383 128.92ZM656.761 115.508C659.079 116.453 662.674 117.732 666.137 118.99L665.173 120.774C661.928 119.675 658.503 118.519 655.867 117.604L656.761 115.508ZM662.997 107.802L670.396 113.185L669.161 114.883L661.762 109.501L662.997 107.802ZM669.843 105.326L671.59 106.597L656.978 126.684C656.219 127.728 655.63 128.078 654.788 127.911C653.928 127.767 652.898 127.092 651.321 125.945C651.583 125.431 651.923 124.454 652.051 123.768C653.107 124.611 654.126 125.352 654.435 125.539C654.75 125.769 654.967 125.778 655.231 125.414L669.843 105.326ZM705.012 134.804L703.176 137.327L707.349 140.362L709.185 137.839L705.012 134.804ZM699.359 130.692L697.524 133.215L701.6 136.18L703.435 133.657L699.359 130.692ZM693.852 126.686L692.017 129.209L695.971 132.085L697.806 129.562L693.852 126.686ZM693.195 124.019L711.997 137.696L708.061 143.106L689.26 129.429L693.195 124.019ZM688.363 137.495L687.057 139.29L699.333 148.22L700.639 146.425L688.363 137.495ZM686.157 140.528L684.816 142.371L697.092 151.301L698.433 149.457L686.157 140.528ZM690.569 134.463L689.246 136.282L701.521 145.212L702.845 143.392L690.569 134.463ZM689.685 131.853L705.673 143.483L698.049 153.963L682.061 142.334L689.685 131.853ZM691.06 150.771L693.197 150.842C695.356 153.637 697.57 156.917 698.814 159.083L696.191 158.659C695.155 156.718 693.19 153.656 691.06 150.771ZM686.1 145.605L687.202 147.557C684.33 147.323 680.396 146.204 677.469 145.077C677.443 144.501 677.282 143.346 677.099 142.73C680.034 144.049 683.623 145.287 686.1 145.605ZM717.738 142.094L738.505 157.201L737.569 158.487L716.802 143.38L717.738 142.094ZM717.612 145.787L735.273 158.634L734.391 159.847L716.729 147L717.612 145.787ZM727.379 158.011L726.197 159.637L730.37 162.672L731.552 161.047L727.379 158.011ZM721.799 153.952L720.617 155.578L724.693 158.543L725.875 156.917L721.799 153.952ZM716.341 149.982L715.158 151.607L719.089 154.466L720.271 152.841L716.341 149.982ZM715.52 147.641L734.104 161.159L731.245 165.09L712.662 151.572L715.52 147.641ZM728.086 147.656L729.881 148.962L726.722 153.304L724.927 151.999L728.086 147.656ZM712.641 158.383L711.67 159.717L723.873 168.594L724.844 167.259L712.641 158.383ZM710.894 160.784L709.906 162.143L722.109 171.02L723.097 169.661L710.894 160.784ZM714.353 156.029L713.418 157.315L725.62 166.192L726.556 164.906L714.353 156.029ZM713.411 153.601L729.205 165.089L723.134 173.435L707.341 161.946L713.411 153.601ZM716.109 170.291L718.308 170.481C720.602 173.04 723.063 175.98 724.442 177.91L721.685 177.315C720.555 175.603 718.458 172.927 716.109 170.291ZM711.302 165.273L712.349 167.148C709.669 166.497 705.915 165.028 703.172 163.7C703.128 163.148 702.956 162.059 702.755 161.467C705.574 162.998 708.988 164.629 711.302 165.273Z" fill="black"/>
<path d="M616.71 241.19H625.8V242.93H616.71V241.19ZM616.62 236.66H626.85V247.61H616.62V245.87H624.72V238.43H616.62V236.66ZM615.63 236.66H617.7V249.14H615.63V236.66ZM610.11 228.35H618.45V230H610.11V228.35ZM623.94 228.35H632.43V230H623.94V228.35ZM631.5 224.09H633.75V247.43C633.75 248.87 633.42 249.62 632.46 250.01C631.5 250.37 629.88 250.4 627.36 250.4C627.27 249.77 626.91 248.72 626.58 248.09C628.41 248.18 630.24 248.15 630.78 248.12C631.32 248.12 631.5 247.94 631.5 247.43V224.09ZM610.29 224.09H619.89V234.41H610.29V232.67H617.76V225.83H610.29V224.09ZM632.61 224.09V225.83H624.75V232.73H632.61V234.44H622.59V224.09H632.61ZM609 224.09H611.22V250.43H609V224.09ZM656.43 222.8H658.71V226.91H656.43V222.8ZM649.32 226.01H666V227.96H649.32V226.01ZM648.12 233.03H666.84V235.01H648.12V233.03ZM652.14 228.23L654.09 227.84C654.75 229.46 655.32 231.56 655.44 232.85L653.4 233.36C653.31 232.04 652.77 229.88 652.14 228.23ZM661.05 227.78L663.27 228.11C662.64 229.88 661.92 231.92 661.29 233.27L659.37 232.94C659.97 231.53 660.69 229.28 661.05 227.78ZM648.27 237.98H666.72V239.93H648.27V237.98ZM655.14 234.47L657.39 234.92C655.86 238.37 653.73 242.75 652.2 245.51L650.25 244.85C651.75 242.18 653.82 237.74 655.14 234.47ZM651.78 244.46L653.1 242.93C657.63 244.22 663.27 246.62 666.18 248.72L664.74 250.43C661.98 248.39 656.37 245.84 651.78 244.46ZM661.05 239.24L663.24 239.57C661.8 246.26 657.69 249.17 648.42 250.4C648.27 249.77 647.88 248.99 647.52 248.51C656.16 247.64 659.76 245.09 661.05 239.24ZM638.91 238.76C641.34 238.16 645 237.08 648.54 236.06L648.81 238.07C645.54 239.09 642.09 240.17 639.42 240.98L638.91 238.76ZM639.42 228.86H648.57V230.96H639.42V228.86ZM643.5 222.83H645.66V247.67C645.66 248.96 645.39 249.59 644.61 249.95C643.83 250.34 642.6 250.4 640.65 250.4C640.56 249.83 640.26 248.84 639.96 248.21C641.31 248.27 642.57 248.27 642.93 248.24C643.32 248.24 643.5 248.12 643.5 247.67V222.83ZM689.28 225.98V229.1H694.44V225.98H689.28ZM682.29 225.98V229.1H687.33V225.98H682.29ZM675.48 225.98V229.1H680.37V225.98H675.48ZM673.38 224.21H696.63V230.9H673.38V224.21ZM677.4 237.95V240.17H692.58V237.95H677.4ZM677.4 241.7V243.98H692.58V241.7H677.4ZM677.4 234.2V236.45H692.58V234.2H677.4ZM675.15 232.61H694.92V245.57H675.15V232.61ZM687.39 247.1L689.16 245.9C692.55 246.89 696.27 248.24 698.55 249.26L696.18 250.46C694.2 249.5 690.81 248.18 687.39 247.1ZM680.34 245.84L682.38 246.77C679.92 248.27 676.08 249.68 673.05 250.49C672.69 250.04 671.88 249.2 671.37 248.81C674.52 248.15 678.15 247.04 680.34 245.84ZM703.86 224.39H729.54V225.98H703.86V224.39ZM705.93 227.45H727.77V228.95H705.93V227.45ZM721.02 231.59V233.6H726.18V231.59H721.02ZM714.12 231.59V233.6H719.16V231.59H714.12ZM707.37 231.59V233.6H712.23V231.59H707.37ZM705.33 230.18H728.31V235.04H705.33V230.18ZM715.5 222.8H717.72V228.17H715.5V222.8ZM709.32 240.56V242.21H724.41V240.56H709.32ZM709.32 243.53V245.21H724.41V243.53H709.32ZM709.32 237.65V239.24H724.41V237.65H709.32ZM707.13 236.24H726.66V246.56H707.13V236.24ZM719.13 248.15L721.02 247.01C724.38 247.73 728.1 248.66 730.35 249.41L727.77 250.55C725.85 249.83 722.58 248.9 719.13 248.15ZM712.29 246.92L714.24 247.82C711.69 248.87 707.79 249.89 704.79 250.43C704.43 250.01 703.65 249.23 703.14 248.87C706.32 248.45 710.04 247.76 712.29 246.92Z" fill="black"/>
<path d="M525.496 417.314L547.188 407.045L548.099 408.971L526.407 419.239L525.496 417.314ZM514.06 399.327L537.895 388.044L538.781 389.915L514.946 401.198L514.06 399.327ZM517.781 403.54L519.787 402.59L528.118 420.188L526.111 421.138L517.781 403.54ZM526.842 404.661L527.907 406.912L538.292 401.996L537.227 399.745L526.842 404.661ZM528.6 408.376L529.666 410.627L540.051 405.711L538.985 403.46L528.6 408.376ZM525.109 401.001L526.149 403.197L536.534 398.281L535.494 396.085L525.109 401.001ZM522.425 400.379L536.796 393.576L542.816 406.294L528.445 413.096L522.425 400.379ZM524.054 391.41L526.463 390.469C527.398 393.146 528.389 396.361 528.908 398.439L526.825 399.226C526.2 397.066 525.025 393.672 524.054 391.41ZM556.495 376.153L558.556 375.177L560.315 378.892L558.254 379.868L556.495 376.153ZM551.443 382.096L566.519 374.96L567.353 376.722L552.277 383.859L551.443 382.096ZM553.361 388.955L570.281 380.945L571.129 382.735L554.209 390.744L553.361 388.955ZM554.941 382.896L556.537 381.709C557.827 382.891 559.24 384.545 559.901 385.66L558.275 386.994C557.629 385.839 556.217 384.118 554.941 382.896ZM562.802 378.677L564.95 378.026C565.138 379.895 565.36 382.047 565.368 383.537L563.491 384.06C563.43 382.529 563.118 380.187 562.802 378.677ZM555.615 393.364L572.291 385.471L573.125 387.233L556.449 395.127L555.615 393.364ZM560.323 387.253L562.549 386.697C562.642 390.47 562.591 395.34 562.389 398.489L560.344 398.727C560.557 395.672 560.529 390.773 560.323 387.253ZM561.56 397.72L562.098 395.772C566.745 395 572.869 394.756 576.398 395.409L575.828 397.571C572.461 396.908 566.299 397.003 561.56 397.72ZM567.705 389.035L569.826 388.397C571.387 395.059 568.917 399.448 561.064 404.526C560.659 404.021 559.973 403.483 559.442 403.203C566.879 398.72 569.042 394.875 567.705 389.035ZM547.489 398.074C549.428 396.492 552.274 393.95 555.037 391.514L556.141 393.215C553.622 395.536 550.966 397.988 548.899 399.862L547.489 398.074ZM543.714 388.908L551.984 384.993L552.883 386.891L544.612 390.806L543.714 388.908ZM544.822 381.712L546.774 380.788L557.402 403.239C557.954 404.405 557.979 405.09 557.428 405.749C556.89 406.436 555.804 407.016 554.042 407.85C553.716 407.374 553.022 406.607 552.481 406.166C553.727 405.643 554.866 405.104 555.178 404.923C555.531 404.756 555.642 404.57 555.449 404.164L544.822 381.712ZM587.547 364.972L588.882 367.792L593.546 365.584L592.211 362.764L587.547 364.972ZM581.23 367.963L582.564 370.783L587.12 368.626L585.785 365.806L581.23 367.963ZM575.074 370.876L576.409 373.696L580.829 371.604L579.494 368.784L575.074 370.876ZM572.419 370.175L593.433 360.227L596.296 366.274L575.281 376.222L572.419 370.175ZM581.931 380.874L582.881 382.88L596.601 376.386L595.652 374.379L581.931 380.874ZM583.536 384.263L584.511 386.324L598.232 379.829L597.256 377.769L583.536 384.263ZM580.327 377.484L581.289 379.518L595.01 373.023L594.047 370.99L580.327 377.484ZM577.613 377.01L595.482 368.551L601.027 380.265L583.158 388.724L577.613 377.01ZM594.875 384.87L595.962 383.028C599.449 382.472 603.389 382.101 605.887 382.047L604.258 384.146C602.058 384.125 598.429 384.383 594.875 384.87ZM587.964 386.747L590.206 386.715C588.624 389.123 585.757 392.041 583.365 394.069C582.847 393.817 581.755 393.404 581.127 393.27C583.692 391.325 586.498 388.769 587.964 386.747ZM600.045 357.297L623.256 346.309L623.936 347.747L600.726 358.734L600.045 357.297ZM603.225 359.177L622.966 349.833L623.607 351.188L603.867 360.533L603.225 359.177ZM618.636 356.462L619.496 358.279L624.16 356.071L623.3 354.255L618.636 356.462ZM612.399 359.415L613.259 361.231L617.815 359.075L616.955 357.258L612.399 359.415ZM606.298 362.303L607.158 364.119L611.551 362.04L610.691 360.223L606.298 362.303ZM603.851 361.901L624.622 352.069L626.701 356.462L605.931 366.294L603.851 361.901ZM609.886 350.879L611.892 349.93L614.19 354.783L612.183 355.733L609.886 350.879ZM611.899 369.576L612.605 371.067L626.244 364.611L625.538 363.12L611.899 369.576ZM613.169 372.26L613.888 373.779L627.527 367.322L626.808 365.804L613.169 372.26ZM610.654 366.946L611.334 368.383L624.973 361.926L624.293 360.489L610.654 366.946ZM608.071 366.608L625.723 358.252L630.139 367.58L612.486 375.936L608.071 366.608ZM624.013 372.239L625.233 370.4C628.578 369.613 632.339 368.862 634.693 368.577L632.849 370.711C630.805 370.882 627.452 371.441 624.013 372.239ZM617.304 374.054L619.452 374.033C617.596 376.073 614.508 378.663 612.027 380.435C611.522 380.209 610.483 379.838 609.868 379.731C612.563 377.991 615.63 375.776 617.304 374.054Z" fill="black"/>
<path d="M485.061 259.061C485.646 258.475 485.646 257.525 485.061 256.939L475.515 247.393C474.929 246.808 473.979 246.808 473.393 247.393C472.808 247.979 472.808 248.929 473.393 249.515L481.879 258L473.393 266.485C472.808 267.071 472.808 268.021 473.393 268.607C473.979 269.192 474.929 269.192 475.515 268.607L485.061 259.061ZM429 259.5H484V256.5H429V259.5Z" fill="#B4C7DD"/>
<path d="M485.061 70.0607C485.646 69.4749 485.646 68.5251 485.061 67.9393L475.515 58.3934C474.929 57.8076 473.979 57.8076 473.393 58.3934C472.808 58.9792 472.808 59.9289 473.393 60.5147L481.879 69L473.393 77.4853C472.808 78.0711 472.808 79.0208 473.393 79.6066C473.979 80.1924 474.929 80.1924 475.515 79.6066L485.061 70.0607ZM429 70.5L484 70.5V67.5L429 67.5V70.5Z" fill="#B4C7DD"/>
<defs>
<clipPath id="clip0_599_5747">
<rect width="213" height="213" fill="white" transform="translate(747 116)"/>
</clipPath>
</defs>
</svg>
