<svg width="339" height="304" viewBox="0 0 339 304" fill="none" xmlns="http://www.w3.org/2000/svg">
<rect x="144" y="48.9492" width="15" height="220" fill="#77BE6B"/>
<rect x="112" y="86.9492" width="80" height="144" fill="#77BE6B"/>
<rect x="32" y="48.9492" width="15" height="220" fill="#F17064"/>
<rect y="86.9492" width="80" height="144" fill="#F17064"/>
<path d="M190.939 47.8886C190.354 48.4743 190.354 49.4241 190.939 50.0099L200.485 59.5558C201.071 60.1416 202.021 60.1416 202.607 59.5558C203.192 58.97 203.192 58.0203 202.607 57.4345L194.121 48.9492L202.607 40.4639C203.192 39.8782 203.192 38.9284 202.607 38.3426C202.021 37.7568 201.071 37.7568 200.485 38.3426L190.939 47.8886ZM307 47.4492L192 47.4492V50.4492L307 50.4492V47.4492Z" fill="black"/>
<path d="M214.5 14.9292V17.0592H229.56V14.9292H214.5ZM214.5 11.3292V13.3992H229.56V11.3292H214.5ZM212.31 9.70922H231.78V18.6492H212.31V9.70922ZM208.74 20.3292H235.17V22.1892H208.74V20.3292ZM222.06 24.0792H232.74V25.9092H222.06V24.0792ZM212.64 24.2592H220.05V25.9392H212.64V24.2592ZM212.64 28.0392H220.05V29.7192H212.64V28.0392ZM225.21 25.7592C226.95 30.0492 230.79 33.3192 235.89 34.5792C235.41 34.9992 234.81 35.8092 234.51 36.3492C229.23 34.7892 225.36 31.2192 223.38 26.2992L225.21 25.7592ZM232.05 24.0792H232.47L232.86 23.9892L234.24 24.5592C232.26 30.6492 227.43 34.3992 222.21 36.1992C221.97 35.6592 221.4 34.8492 220.98 34.4292C225.78 32.9892 230.4 29.4792 232.05 24.4392V24.0792ZM208.47 32.6292C211.41 32.3892 215.76 31.9092 219.99 31.4292V33.2892C215.94 33.7692 211.77 34.2792 208.68 34.6392L208.47 32.6292ZM218.85 20.9292H221.01V36.3492H218.85V20.9292ZM211.32 20.9592H213.42V33.1692H211.32V20.9592ZM240.75 11.6292H266.82V13.5792H240.75V11.6292ZM252.48 8.74922H254.79V12.5592H252.48V8.74922ZM242.07 23.3592H264.36V25.2792H244.26V36.3792H242.07V23.3592ZM263.43 23.3592H265.68V33.6792C265.68 34.9092 265.41 35.5692 264.45 35.9592C263.49 36.2892 261.87 36.3192 259.38 36.3192C259.29 35.6892 258.96 34.7892 258.63 34.1892C260.61 34.2492 262.29 34.2492 262.8 34.1892C263.31 34.1892 263.43 34.0392 263.43 33.6192V23.3592ZM248.07 27.2292H250.08V35.0892H248.07V27.2292ZM249.15 27.2292H259.53V33.5592H249.15V31.9392H257.49V28.8492H249.15V27.2292ZM247.89 16.9092V19.8192H259.62V16.9092H247.89ZM245.73 15.2592H261.9V21.4692H245.73V15.2592ZM279.84 10.2792H299.1V12.0192H279.84V10.2792ZM282.57 15.2892V18.1692H296.1V15.2892H282.57ZM280.56 13.7892H298.2V19.6392H280.56V13.7892ZM285.75 10.8492H287.61V18.7392H285.75V10.8492ZM290.94 10.8492H292.8V18.7392H290.94V10.8492ZM283.29 25.6392V27.3492H295.65V25.6392H283.29ZM283.29 28.7592V30.5292H295.65V28.7592H283.29ZM283.29 22.5192V24.2292H295.65V22.5192H283.29ZM281.19 21.0792H297.84V31.9692H281.19V21.0792ZM290.94 33.4692L292.41 32.1792C295.02 33.0492 297.93 34.2192 299.67 35.1192L297.72 36.4392C296.19 35.5392 293.52 34.3692 290.94 33.4692ZM286.02 32.1492L287.64 33.2892C285.81 34.6092 282.84 35.7492 280.17 36.4092C279.87 35.9592 279.33 35.2692 278.91 34.8792C281.52 34.2792 284.43 33.1692 286.02 32.1492ZM277.56 8.92922L279.66 9.49922C277.95 14.6892 275.28 19.9692 272.31 23.4792C272.1 22.9392 271.5 21.7392 271.11 21.1692C273.75 18.1692 276.12 13.5492 277.56 8.92922ZM275.16 16.2792L277.23 14.2092L277.29 14.2692V36.3492H275.16V16.2792Z" fill="black"/>
<path d="M19.68 13.4992H37.8V15.3592H19.68V13.4992ZM22.98 17.4892H35.31V19.3492H22.98V17.4892ZM24.18 14.1892L26.1 14.6392C24.75 18.0292 22.41 20.9992 19.8 22.9192C19.5 22.5292 18.78 21.8392 18.33 21.4792C20.88 19.7992 23.07 17.1892 24.18 14.1892ZM26.52 18.1792L28.35 18.6892C26.7 22.4392 23.85 25.6792 20.85 27.7792C20.58 27.3892 19.92 26.6392 19.53 26.3092C22.44 24.4492 25.08 21.5092 26.52 18.1792ZM30.93 18.2092L32.79 18.6592C31.59 22.6192 29.43 26.0692 26.82 28.2892C26.52 27.9592 25.77 27.2992 25.35 26.9692C27.9 24.9592 29.91 21.8092 30.93 18.2092ZM34.71 17.4892H36.81C36.81 17.4892 36.78 18.0892 36.75 18.4192C36.36 24.4492 35.97 26.7292 35.22 27.5392C34.77 28.0492 34.29 28.2292 33.6 28.3192C33 28.3792 31.95 28.3792 30.87 28.3192C30.84 27.7192 30.63 26.9392 30.36 26.3992C31.35 26.4892 32.28 26.5192 32.67 26.5192C33.06 26.5192 33.27 26.4892 33.48 26.2192C33.99 25.6792 34.38 23.5492 34.71 17.8492V17.4892ZM24.42 7.61922V9.98922H33.21V7.61922H24.42ZM24.42 3.65922V5.99922H33.21V3.65922H24.42ZM22.32 1.97922H35.37V11.6992H22.32V1.97922ZM11.4 2.06922H18.48V4.10922H13.44V28.3792H11.4V2.06922ZM17.79 2.06922H18.18L18.54 1.97922L19.98 2.84922C19.11 5.30922 18 8.39922 16.98 10.7992C19.2 13.2892 19.68 15.3892 19.68 17.2492C19.68 18.8692 19.35 20.1292 18.51 20.7292C18.09 20.9992 17.55 21.1792 16.95 21.2692C16.35 21.3292 15.6 21.3292 14.91 21.2992C14.88 20.7592 14.7 19.8892 14.37 19.3192C15.06 19.3792 15.63 19.4092 16.11 19.3492C16.47 19.3492 16.8 19.2592 17.04 19.0792C17.52 18.7492 17.67 17.9392 17.67 17.0392C17.67 15.4192 17.13 13.3792 14.97 11.0392C16.05 8.30922 17.16 4.73922 17.79 2.66922V2.06922ZM67.59 15.7792L69.39 17.0992C67.77 18.5692 65.73 20.2492 64.17 21.2992L62.79 20.2192C64.29 19.0792 66.39 17.1292 67.59 15.7792ZM60.15 0.719218L62.64 1.19922C61.92 2.63922 61.08 4.19922 60.39 5.18922L58.5 4.70922C59.07 3.59922 59.79 1.91922 60.15 0.719218ZM56.07 10.0192V12.6292H66.18V10.0192H56.07ZM56.07 5.66922V8.27922H66.18V5.66922H56.07ZM54 3.86922H68.34V14.4592H54V3.86922ZM60.06 13.4692H62.1V25.9492C62.1 27.0892 61.89 27.6592 61.14 27.9892C60.36 28.3192 59.16 28.3492 57.27 28.3492C57.21 27.7792 56.94 26.9392 56.67 26.3692C58.02 26.3992 59.22 26.3992 59.58 26.3692C59.97 26.3692 60.06 26.2792 60.06 25.9492V13.4692ZM52.86 17.0692H57.87V18.9592H52.86V17.0692ZM57.36 17.0692H57.75L58.14 17.0092L59.37 17.5192C58.29 22.2892 55.92 25.4392 52.92 27.1492C52.65 26.6692 51.96 25.9192 51.51 25.5892C54.33 24.1192 56.49 21.3592 57.36 17.4292V17.0692ZM61.83 13.6192C62.67 17.8492 64.83 23.0092 70.08 25.2892C69.66 25.7092 69 26.5492 68.7 27.1192C63.57 24.4792 61.41 19.0492 60.6 15.1492L61.83 13.6192ZM46.68 0.779217L48.66 1.52922C47.52 3.74922 46.11 6.44922 44.94 8.09922L43.41 7.43922C44.49 5.69922 45.9 2.75922 46.68 0.779217ZM50.04 4.19922L51.93 5.06922C49.86 8.39922 46.95 12.6592 44.7 15.2692L43.32 14.4892C45.57 11.8192 48.39 7.34922 50.04 4.19922ZM41.88 7.01922L43.08 5.57922C44.7 7.04922 46.53 9.05922 47.31 10.4392L46.02 12.1192C45.27 10.6792 43.47 8.54922 41.88 7.01922ZM48.87 11.0692L50.49 10.3792C51.75 12.3592 52.98 14.9392 53.4 16.5892L51.63 17.3992C51.24 15.7192 50.07 13.0492 48.87 11.0692ZM41.64 14.0392C44.25 13.9192 48 13.7392 51.78 13.5292V15.4192C48.21 15.6592 44.61 15.8692 41.88 16.0492L41.64 14.0392ZM49.65 18.3292L51.3 17.8192C52.08 19.5292 52.71 21.7492 52.89 23.1892L51.15 23.7292C51 22.2892 50.37 20.0392 49.65 18.3292ZM43.44 17.9092L45.33 18.2392C44.94 21.0892 44.25 23.9692 43.29 25.8892C42.93 25.6492 42.03 25.2592 41.58 25.0492C42.54 23.2192 43.11 20.5192 43.44 17.9092ZM46.62 14.9092H48.6V28.3492H46.62V14.9092Z" fill="#F17064"/>
<path d="M135.73 7.13922H144.67V8.84922H135.73V7.13922ZM133.21 10.7992H144.85V12.5092H133.21V10.7992ZM133.48 15.3592H147.52V17.0692H133.48V15.3592ZM131.8 19.4992H149.47V21.2392H131.8V19.4992ZM140.05 2.72922C138.25 5.21922 134.89 8.06922 131.38 9.80922C131.17 9.29922 130.69 8.51922 130.3 8.06922C133.87 6.44922 137.26 3.53922 138.97 0.869218H140.95C143.23 3.77922 146.77 6.44922 150.07 7.82922C149.62 8.27922 149.17 9.08922 148.87 9.65922C145.72 8.09922 142.09 5.33922 140.05 2.72922ZM144.25 10.7992H144.55L144.91 10.6792L146.38 11.1892C145.75 12.7792 145 14.3692 144.25 15.7192L142.3 15.1492C143.05 13.8292 143.83 12.0892 144.25 11.0692V10.7992ZM131.17 25.6792C134.95 25.5592 141.07 25.2592 146.98 24.9292L146.92 26.6992C141.37 27.0592 135.52 27.4192 131.53 27.6292L131.17 25.6792ZM136.93 20.0992L139.09 20.9392C138.01 22.8892 136.75 25.2292 135.7 26.7292L133.99 25.9792C135.01 24.4192 136.27 21.8992 136.93 20.0992ZM142.51 22.3192L144.25 21.3592C146.14 23.1592 148.18 25.6492 149.08 27.3892L147.25 28.4692C146.41 26.7592 144.37 24.1492 142.51 22.3192ZM123.4 2.06922H130.48V4.10922H125.44V28.3792H123.4V2.06922ZM129.79 2.06922H130.18L130.54 1.97922L131.98 2.84922C131.11 5.30922 130 8.39922 128.98 10.7992C131.2 13.2892 131.68 15.3892 131.68 17.2492C131.68 18.8692 131.35 20.1292 130.51 20.7292C130.09 20.9992 129.55 21.1792 128.95 21.2692C128.35 21.3292 127.6 21.3292 126.91 21.2992C126.88 20.7592 126.7 19.8892 126.37 19.3192C127.06 19.3792 127.63 19.4092 128.11 19.3492C128.47 19.3492 128.8 19.2592 129.04 19.0792C129.52 18.7492 129.67 17.9392 129.67 17.0392C129.67 15.4192 129.13 13.3792 126.97 11.0392C128.05 8.30922 129.16 4.73922 129.79 2.66922V2.06922ZM179.59 15.7792L181.39 17.0992C179.77 18.5692 177.73 20.2492 176.17 21.2992L174.79 20.2192C176.29 19.0792 178.39 17.1292 179.59 15.7792ZM172.15 0.719218L174.64 1.19922C173.92 2.63922 173.08 4.19922 172.39 5.18922L170.5 4.70922C171.07 3.59922 171.79 1.91922 172.15 0.719218ZM168.07 10.0192V12.6292H178.18V10.0192H168.07ZM168.07 5.66922V8.27922H178.18V5.66922H168.07ZM166 3.86922H180.34V14.4592H166V3.86922ZM172.06 13.4692H174.1V25.9492C174.1 27.0892 173.89 27.6592 173.14 27.9892C172.36 28.3192 171.16 28.3492 169.27 28.3492C169.21 27.7792 168.94 26.9392 168.67 26.3692C170.02 26.3992 171.22 26.3992 171.58 26.3692C171.97 26.3692 172.06 26.2792 172.06 25.9492V13.4692ZM164.86 17.0692H169.87V18.9592H164.86V17.0692ZM169.36 17.0692H169.75L170.14 17.0092L171.37 17.5192C170.29 22.2892 167.92 25.4392 164.92 27.1492C164.65 26.6692 163.96 25.9192 163.51 25.5892C166.33 24.1192 168.49 21.3592 169.36 17.4292V17.0692ZM173.83 13.6192C174.67 17.8492 176.83 23.0092 182.08 25.2892C181.66 25.7092 181 26.5492 180.7 27.1192C175.57 24.4792 173.41 19.0492 172.6 15.1492L173.83 13.6192ZM158.68 0.779217L160.66 1.52922C159.52 3.74922 158.11 6.44922 156.94 8.09922L155.41 7.43922C156.49 5.69922 157.9 2.75922 158.68 0.779217ZM162.04 4.19922L163.93 5.06922C161.86 8.39922 158.95 12.6592 156.7 15.2692L155.32 14.4892C157.57 11.8192 160.39 7.34922 162.04 4.19922ZM153.88 7.01922L155.08 5.57922C156.7 7.04922 158.53 9.05922 159.31 10.4392L158.02 12.1192C157.27 10.6792 155.47 8.54922 153.88 7.01922ZM160.87 11.0692L162.49 10.3792C163.75 12.3592 164.98 14.9392 165.4 16.5892L163.63 17.3992C163.24 15.7192 162.07 13.0492 160.87 11.0692ZM153.64 14.0392C156.25 13.9192 160 13.7392 163.78 13.5292V15.4192C160.21 15.6592 156.61 15.8692 153.88 16.0492L153.64 14.0392ZM161.65 18.3292L163.3 17.8192C164.08 19.5292 164.71 21.7492 164.89 23.1892L163.15 23.7292C163 22.2892 162.37 20.0392 161.65 18.3292ZM155.44 17.9092L157.33 18.2392C156.94 21.0892 156.25 23.9692 155.29 25.8892C154.93 25.6492 154.03 25.2592 153.58 25.0492C154.54 23.2192 155.11 20.5192 155.44 17.9092ZM158.62 14.9092H160.6V28.3492H158.62V14.9092Z" fill="#77BE6B"/>
<path d="M222.939 229.889C222.354 230.474 222.354 231.424 222.939 232.01L232.485 241.556C233.071 242.142 234.021 242.142 234.607 241.556C235.192 240.97 235.192 240.02 234.607 239.434L226.121 230.949L234.607 222.464C235.192 221.878 235.192 220.928 234.607 220.343C234.021 219.757 233.071 219.757 232.485 220.343L222.939 229.889ZM339 229.449H224V232.449H339V229.449Z" fill="black"/>
<path d="M246.5 196.929V199.059H261.56V196.929H246.5ZM246.5 193.329V195.399H261.56V193.329H246.5ZM244.31 191.709H263.78V200.649H244.31V191.709ZM240.74 202.329H267.17V204.189H240.74V202.329ZM254.06 206.079H264.74V207.909H254.06V206.079ZM244.64 206.259H252.05V207.939H244.64V206.259ZM244.64 210.039H252.05V211.719H244.64V210.039ZM257.21 207.759C258.95 212.049 262.79 215.319 267.89 216.579C267.41 216.999 266.81 217.809 266.51 218.349C261.23 216.789 257.36 213.219 255.38 208.299L257.21 207.759ZM264.05 206.079H264.47L264.86 205.989L266.24 206.559C264.26 212.649 259.43 216.399 254.21 218.199C253.97 217.659 253.4 216.849 252.98 216.429C257.78 214.989 262.4 211.479 264.05 206.439V206.079ZM240.47 214.629C243.41 214.389 247.76 213.909 251.99 213.429V215.289C247.94 215.769 243.77 216.279 240.68 216.639L240.47 214.629ZM250.85 202.929H253.01V218.349H250.85V202.929ZM243.32 202.959H245.42V215.169H243.32V202.959ZM296.39 191.769L298.13 193.479C294.14 194.739 288.14 195.669 282.98 196.239C282.89 195.729 282.59 194.919 282.35 194.409C287.33 193.869 293.15 192.849 296.39 191.769ZM281.72 193.809L283.91 194.529V212.139H281.72V193.809ZM279.71 211.749C282.56 211.299 286.76 210.579 290.87 209.799L290.99 211.839C287.18 212.559 283.19 213.309 280.19 213.849L279.71 211.749ZM282.98 201.279H299.57V203.349H282.98V201.279ZM289.91 194.439H292.19C292.22 205.779 294.74 215.019 297.32 214.989C297.92 214.989 298.22 213.789 298.34 210.849C298.82 211.329 299.6 211.779 300.14 211.989C299.81 216.069 299.03 217.209 297.11 217.209C292.58 217.209 290.15 206.499 289.91 194.439ZM280.61 215.559H293.39V217.569H280.61V215.559ZM278.72 190.869L280.85 191.529C278.87 196.629 275.78 201.699 272.54 205.059C272.3 204.549 271.67 203.349 271.25 202.839C274.22 199.929 277.04 195.429 278.72 190.869ZM275.6 198.609L277.7 196.479L277.76 196.509V218.319H275.6V198.609ZM311.84 192.279H331.1V194.019H311.84V192.279ZM314.57 197.289V200.169H328.1V197.289H314.57ZM312.56 195.789H330.2V201.639H312.56V195.789ZM317.75 192.849H319.61V200.739H317.75V192.849ZM322.94 192.849H324.8V200.739H322.94V192.849ZM315.29 207.639V209.349H327.65V207.639H315.29ZM315.29 210.759V212.529H327.65V210.759H315.29ZM315.29 204.519V206.229H327.65V204.519H315.29ZM313.19 203.079H329.84V213.969H313.19V203.079ZM322.94 215.469L324.41 214.179C327.02 215.049 329.93 216.219 331.67 217.119L329.72 218.439C328.19 217.539 325.52 216.369 322.94 215.469ZM318.02 214.149L319.64 215.289C317.81 216.609 314.84 217.749 312.17 218.409C311.87 217.959 311.33 217.269 310.91 216.879C313.52 216.279 316.43 215.169 318.02 214.149ZM309.56 190.929L311.66 191.499C309.95 196.689 307.28 201.969 304.31 205.479C304.1 204.939 303.5 203.739 303.11 203.169C305.75 200.169 308.12 195.549 309.56 190.929ZM307.16 198.279L309.23 196.209L309.29 196.269V218.349H307.16V198.279Z" fill="black"/>
<path d="M217.939 87.8886C217.354 88.4743 217.354 89.4241 217.939 90.0099L227.485 99.5558C228.071 100.142 229.021 100.142 229.607 99.5558C230.192 98.97 230.192 98.0203 229.607 97.4345L221.121 88.9492L229.607 80.4639C230.192 79.8782 230.192 78.9284 229.607 78.3426C229.021 77.7568 228.071 77.7568 227.485 78.3426L217.939 87.8886ZM334 87.4492L219 87.4492V90.4492L334 90.4492V87.4492Z" fill="black"/>
<path d="M242.53 102.039H257.41V103.899H242.53V102.039ZM241.96 107.169H258.04V109.089H241.96V107.169ZM251.95 102.639H253.99V115.809H251.95V102.639ZM245.8 102.729H247.75V108.189C247.75 110.019 247.03 113.949 243.64 116.229C243.34 115.809 242.65 115.179 242.14 114.879C245.17 113.019 245.8 109.839 245.8 108.189V102.729ZM238.81 94.2092H247.24V95.8292H238.81V94.2092ZM252.64 94.2092H261.13V95.8292H252.64V94.2092ZM260.26 90.0392H262.48V113.439C262.48 114.789 262.18 115.509 261.28 115.899C260.38 116.289 258.88 116.319 256.6 116.319C256.51 115.719 256.21 114.669 255.88 114.039C257.53 114.099 259.15 114.099 259.63 114.069C260.11 114.069 260.26 113.889 260.26 113.439V90.0392ZM238.99 90.0392H248.62V100.149H238.99V98.4392H246.49V91.7792H238.99V90.0392ZM261.34 90.0392V91.7792H253.42V98.4692H261.34V100.179H251.26V90.0392H261.34ZM237.64 90.0392H239.86V116.379H237.64V90.0392ZM271.6 90.9392H279.43V92.5892H271.6V90.9392ZM274.87 88.7192L276.88 89.0192C276.31 90.1592 275.8 91.1792 275.35 91.9892L273.64 91.6592C274.06 90.8192 274.6 89.5592 274.87 88.7192ZM270.73 90.9392H272.59V96.5192C272.59 99.6692 272.05 103.959 269.2 106.839C268.93 106.479 268.18 105.819 267.76 105.579C270.37 102.939 270.73 99.3092 270.73 96.4892V90.9392ZM284.59 89.8592H290.62V91.5392H284.59V89.8592ZM282.52 97.5692H292.06V99.2192H282.52V97.5692ZM283.75 89.8592H285.58V92.0192C285.58 93.8492 285.01 96.0392 282.58 97.5692C282.34 97.1792 281.65 96.3992 281.29 96.1292C283.39 94.8992 283.75 93.3392 283.75 91.9892V89.8592ZM278.47 90.9392H280.36V103.869C280.36 104.919 280.18 105.459 279.46 105.789C278.77 106.089 277.63 106.119 275.98 106.119C275.89 105.579 275.65 104.829 275.38 104.289C276.64 104.349 277.69 104.349 278.02 104.319C278.38 104.319 278.47 104.199 278.47 103.869V90.9392ZM268 97.5692C271.45 97.4492 276.67 97.2092 281.77 96.9392L281.71 98.6792C276.76 98.9492 271.66 99.2192 268.12 99.3992L268 97.5692ZM273.76 93.7592L275.17 93.2492C275.83 94.1792 276.52 95.4392 276.82 96.2192L275.35 96.8192C275.05 96.0092 274.39 94.7192 273.76 93.7592ZM274.51 99.8192H276.04V103.959H274.51V99.8192ZM289.6 89.8592H291.46V94.2692C291.46 94.7792 291.52 94.8392 291.97 94.8392C292.18 94.8392 293.02 94.8392 293.29 94.8392C293.74 94.8392 293.83 94.6292 293.89 92.5892C294.28 92.8892 295.03 93.1292 295.54 93.2492C295.36 95.8592 294.88 96.5192 293.56 96.5192C293.2 96.5192 292.03 96.5192 291.7 96.5192C290.05 96.5192 289.6 96.0392 289.6 94.2692V89.8592ZM291.46 97.5692H291.91L292.3 97.5092L293.47 98.0192C291.61 102.819 287.38 105.129 282.28 106.269C282.07 105.789 281.53 104.949 281.17 104.589C285.97 103.689 289.93 101.739 291.46 97.8392V97.5692ZM285.22 99.0692C286.93 102.129 290.8 104.109 295.72 104.739C295.27 105.189 294.7 105.969 294.46 106.509C289.3 105.579 285.37 103.269 283.42 99.5792L285.22 99.0692ZM268.15 113.649H295.45V115.479H268.15V113.649ZM271.69 106.869H291.91V114.579H289.69V108.669H285.76V114.579H283.66V108.669H279.76V114.579H277.66V108.669H273.79V114.579H271.69V106.869ZM307.84 90.2792H327.1V92.0192H307.84V90.2792ZM310.57 95.2892V98.1692H324.1V95.2892H310.57ZM308.56 93.7892H326.2V99.6392H308.56V93.7892ZM313.75 90.8492H315.61V98.7392H313.75V90.8492ZM318.94 90.8492H320.8V98.7392H318.94V90.8492ZM311.29 105.639V107.349H323.65V105.639H311.29ZM311.29 108.759V110.529H323.65V108.759H311.29ZM311.29 102.519V104.229H323.65V102.519H311.29ZM309.19 101.079H325.84V111.969H309.19V101.079ZM318.94 113.469L320.41 112.179C323.02 113.049 325.93 114.219 327.67 115.119L325.72 116.439C324.19 115.539 321.52 114.369 318.94 113.469ZM314.02 112.149L315.64 113.289C313.81 114.609 310.84 115.749 308.17 116.409C307.87 115.959 307.33 115.269 306.91 114.879C309.52 114.279 312.43 113.169 314.02 112.149ZM305.56 88.9292L307.66 89.4992C305.95 94.6892 303.28 99.9692 300.31 103.479C300.1 102.939 299.5 101.739 299.11 101.169C301.75 98.1692 304.12 93.5492 305.56 88.9292ZM303.16 96.2792L305.23 94.2092L305.29 94.2692V116.349H303.16V96.2792Z" fill="black"/>
<path d="M63.1 236.629H80.9V238.149H63.1V236.629ZM70.8 237.829H72.38V253.529H70.8V237.829ZM71.68 242.569L72.66 241.409C75.06 242.569 78.22 244.389 79.82 245.589L78.76 246.949C77.22 245.709 74.1 243.809 71.68 242.569ZM84.1 242.469H95.5V243.669H84.1V242.469ZM89.14 241.049H90.52V243.129H89.14V241.049ZM86.96 245.909V247.769H92.82V245.909H86.96ZM85.64 244.849H94.2V248.829H85.64V244.849ZM86.82 239.029V240.269H92.94V239.029H86.82ZM86.82 236.869V238.109H92.94V236.869H86.82ZM85.46 235.909H94.34V241.229H85.46V235.909ZM89.14 248.089H90.52V252.129C90.52 252.809 90.38 253.149 89.86 253.349C89.34 253.549 88.6 253.549 87.48 253.549C87.4 253.189 87.14 252.709 86.92 252.349C87.84 252.389 88.58 252.389 88.84 252.369C89.08 252.369 89.14 252.309 89.14 252.109V248.089ZM86.24 249.329L87.54 249.669C86.96 250.909 86.02 252.169 85.12 252.989C84.88 252.769 84.34 252.409 84.02 252.209C84.92 251.469 85.76 250.409 86.24 249.329ZM91.78 249.929L92.92 249.349C93.7 250.189 94.62 251.329 95.06 252.069L93.88 252.709C93.46 251.969 92.56 250.789 91.78 249.929ZM100.12 235.509L101.54 236.089C100.2 237.849 98.12 239.589 96.28 240.669C96.02 240.349 95.56 239.889 95.2 239.609C96.94 238.689 99 237.049 100.12 235.509ZM100.66 241.049L102.06 241.629C100.62 243.489 98.36 245.289 96.38 246.429C96.12 246.109 95.66 245.649 95.28 245.369C97.18 244.389 99.42 242.669 100.66 241.049ZM101.18 246.709L102.64 247.229C101.08 249.909 98.44 252.169 95.54 253.529C95.3 253.169 94.86 252.649 94.48 252.329C97.2 251.149 99.82 249.069 101.18 246.709ZM122.26 245.169L123.46 246.049C122.38 247.029 121.02 248.149 119.98 248.849L119.06 248.129C120.06 247.369 121.46 246.069 122.26 245.169ZM117.3 235.129L118.96 235.449C118.48 236.409 117.92 237.449 117.46 238.109L116.2 237.789C116.58 237.049 117.06 235.929 117.3 235.129ZM114.58 241.329V243.069H121.32V241.329H114.58ZM114.58 238.429V240.169H121.32V238.429H114.58ZM113.2 237.229H122.76V244.289H113.2V237.229ZM117.24 243.629H118.6V251.949C118.6 252.709 118.46 253.089 117.96 253.309C117.44 253.529 116.64 253.549 115.38 253.549C115.34 253.169 115.16 252.609 114.98 252.229C115.88 252.249 116.68 252.249 116.92 252.229C117.18 252.229 117.24 252.169 117.24 251.949V243.629ZM112.44 246.029H115.78V247.289H112.44V246.029ZM115.44 246.029H115.7L115.96 245.989L116.78 246.329C116.06 249.509 114.48 251.609 112.48 252.749C112.3 252.429 111.84 251.929 111.54 251.709C113.42 250.729 114.86 248.889 115.44 246.269V246.029ZM118.42 243.729C118.98 246.549 120.42 249.989 123.92 251.509C123.64 251.789 123.2 252.349 123 252.729C119.58 250.969 118.14 247.349 117.6 244.749L118.42 243.729ZM108.32 235.169L109.64 235.669C108.88 237.149 107.94 238.949 107.16 240.049L106.14 239.609C106.86 238.449 107.8 236.489 108.32 235.169ZM110.56 237.449L111.82 238.029C110.44 240.249 108.5 243.089 107 244.829L106.08 244.309C107.58 242.529 109.46 239.549 110.56 237.449ZM105.12 239.329L105.92 238.369C107 239.349 108.22 240.689 108.74 241.609L107.88 242.729C107.38 241.769 106.18 240.349 105.12 239.329ZM109.78 242.029L110.86 241.569C111.7 242.889 112.52 244.609 112.8 245.709L111.62 246.249C111.36 245.129 110.58 243.349 109.78 242.029ZM104.96 244.009C106.7 243.929 109.2 243.809 111.72 243.669V244.929C109.34 245.089 106.94 245.229 105.12 245.349L104.96 244.009ZM110.3 246.869L111.4 246.529C111.92 247.669 112.34 249.149 112.46 250.109L111.3 250.469C111.2 249.509 110.78 248.009 110.3 246.869ZM106.16 246.589L107.42 246.809C107.16 248.709 106.7 250.629 106.06 251.909C105.82 251.749 105.22 251.489 104.92 251.349C105.56 250.129 105.94 248.329 106.16 246.589ZM108.28 244.589H109.6V253.549H108.28V244.589Z" fill="black"/>
<path d="M71.4 59.6292H79.62V61.1292H71.4V59.6292ZM63.02 69.1092H80.98V70.6092H63.02V69.1092ZM70.54 53.4492H72.12V69.9092H70.54V53.4492ZM84.1 60.4692H95.5V61.6692H84.1V60.4692ZM89.14 59.0492H90.52V61.1292H89.14V59.0492ZM86.96 63.9092V65.7692H92.82V63.9092H86.96ZM85.64 62.8492H94.2V66.8292H85.64V62.8492ZM86.82 57.0292V58.2692H92.94V57.0292H86.82ZM86.82 54.8692V56.1092H92.94V54.8692H86.82ZM85.46 53.9092H94.34V59.2292H85.46V53.9092ZM89.14 66.0892H90.52V70.1292C90.52 70.8092 90.38 71.1492 89.86 71.3492C89.34 71.5492 88.6 71.5492 87.48 71.5492C87.4 71.1892 87.14 70.7092 86.92 70.3492C87.84 70.3892 88.58 70.3892 88.84 70.3692C89.08 70.3692 89.14 70.3092 89.14 70.1092V66.0892ZM86.24 67.3292L87.54 67.6692C86.96 68.9092 86.02 70.1692 85.12 70.9892C84.88 70.7692 84.34 70.4092 84.02 70.2092C84.92 69.4692 85.76 68.4092 86.24 67.3292ZM91.78 67.9292L92.92 67.3492C93.7 68.1892 94.62 69.3292 95.06 70.0692L93.88 70.7092C93.46 69.9692 92.56 68.7892 91.78 67.9292ZM100.12 53.5092L101.54 54.0892C100.2 55.8492 98.12 57.5892 96.28 58.6692C96.02 58.3492 95.56 57.8892 95.2 57.6092C96.94 56.6892 99 55.0492 100.12 53.5092ZM100.66 59.0492L102.06 59.6292C100.62 61.4892 98.36 63.2892 96.38 64.4292C96.12 64.1092 95.66 63.6492 95.28 63.3692C97.18 62.3892 99.42 60.6692 100.66 59.0492ZM101.18 64.7092L102.64 65.2292C101.08 67.9092 98.44 70.1692 95.54 71.5292C95.3 71.1692 94.86 70.6492 94.48 70.3292C97.2 69.1492 99.82 67.0692 101.18 64.7092ZM122.26 63.1692L123.46 64.0492C122.38 65.0292 121.02 66.1492 119.98 66.8492L119.06 66.1292C120.06 65.3692 121.46 64.0692 122.26 63.1692ZM117.3 53.1292L118.96 53.4492C118.48 54.4092 117.92 55.4492 117.46 56.1092L116.2 55.7892C116.58 55.0492 117.06 53.9292 117.3 53.1292ZM114.58 59.3292V61.0692H121.32V59.3292H114.58ZM114.58 56.4292V58.1692H121.32V56.4292H114.58ZM113.2 55.2292H122.76V62.2892H113.2V55.2292ZM117.24 61.6292H118.6V69.9492C118.6 70.7092 118.46 71.0892 117.96 71.3092C117.44 71.5292 116.64 71.5492 115.38 71.5492C115.34 71.1692 115.16 70.6092 114.98 70.2292C115.88 70.2492 116.68 70.2492 116.92 70.2292C117.18 70.2292 117.24 70.1692 117.24 69.9492V61.6292ZM112.44 64.0292H115.78V65.2892H112.44V64.0292ZM115.44 64.0292H115.7L115.96 63.9892L116.78 64.3292C116.06 67.5092 114.48 69.6092 112.48 70.7492C112.3 70.4292 111.84 69.9292 111.54 69.7092C113.42 68.7292 114.86 66.8892 115.44 64.2692V64.0292ZM118.42 61.7292C118.98 64.5492 120.42 67.9892 123.92 69.5092C123.64 69.7892 123.2 70.3492 123 70.7292C119.58 68.9692 118.14 65.3492 117.6 62.7492L118.42 61.7292ZM108.32 53.1692L109.64 53.6692C108.88 55.1492 107.94 56.9492 107.16 58.0492L106.14 57.6092C106.86 56.4492 107.8 54.4892 108.32 53.1692ZM110.56 55.4492L111.82 56.0292C110.44 58.2492 108.5 61.0892 107 62.8292L106.08 62.3092C107.58 60.5292 109.46 57.5492 110.56 55.4492ZM105.12 57.3292L105.92 56.3692C107 57.3492 108.22 58.6892 108.74 59.6092L107.88 60.7292C107.38 59.7692 106.18 58.3492 105.12 57.3292ZM109.78 60.0292L110.86 59.5692C111.7 60.8892 112.52 62.6092 112.8 63.7092L111.62 64.2492C111.36 63.1292 110.58 61.3492 109.78 60.0292ZM104.96 62.0092C106.7 61.9292 109.2 61.8092 111.72 61.6692V62.9292C109.34 63.0892 106.94 63.2292 105.12 63.3492L104.96 62.0092ZM110.3 64.8692L111.4 64.5292C111.92 65.6692 112.34 67.1492 112.46 68.1092L111.3 68.4692C111.2 67.5092 110.78 66.0092 110.3 64.8692ZM106.16 64.5892L107.42 64.8092C107.16 66.7092 106.7 68.6292 106.06 69.9092C105.82 69.7492 105.22 69.4892 104.92 69.3492C105.56 68.1292 105.94 66.3292 106.16 64.5892ZM108.28 62.5892H109.6V71.5492H108.28V62.5892Z" fill="black"/>
<path d="M190.939 267.889C190.354 268.474 190.354 269.424 190.939 270.01L200.485 279.556C201.071 280.142 202.021 280.142 202.607 279.556C203.192 278.97 203.192 278.02 202.607 277.434L194.121 268.949L202.607 260.464C203.192 259.878 203.192 258.928 202.607 258.343C202.021 257.757 201.071 257.757 200.485 258.343L190.939 267.889ZM307 267.449H192V270.449H307V267.449Z" fill="black"/>
<path d="M209.02 288.249C211.33 287.709 214.78 286.749 218.2 285.819L218.47 287.829C215.41 288.789 212.23 289.779 209.77 290.499L209.02 288.249ZM217.21 268.899H219.4V296.349H217.21V268.899ZM211.06 272.229H213.22V288.519H211.06V272.229ZM224.23 274.329H236.89V276.459H224.23V274.329ZM225.04 268.749L227.35 269.199C226.03 274.719 223.9 279.909 221.14 283.299C220.78 282.849 219.85 282.039 219.31 281.679C221.98 278.619 223.93 273.759 225.04 268.749ZM232.99 275.349L235.24 275.709C233.14 285.999 229.03 292.509 220.99 296.439C220.78 295.929 220.09 294.909 219.67 294.429C227.38 290.979 231.16 284.889 232.99 275.349ZM225.04 276.069C226.78 284.619 230.53 291.639 237.25 294.519C236.74 294.969 236.02 295.839 235.69 296.439C228.7 293.079 224.98 285.819 223 276.459L225.04 276.069ZM244.6 270.939H252.43V272.589H244.6V270.939ZM247.87 268.719L249.88 269.019C249.31 270.159 248.8 271.179 248.35 271.989L246.64 271.659C247.06 270.819 247.6 269.559 247.87 268.719ZM243.73 270.939H245.59V276.519C245.59 279.669 245.05 283.959 242.2 286.839C241.93 286.479 241.18 285.819 240.76 285.579C243.37 282.939 243.73 279.309 243.73 276.489V270.939ZM257.59 269.859H263.62V271.539H257.59V269.859ZM255.52 277.569H265.06V279.219H255.52V277.569ZM256.75 269.859H258.58V272.019C258.58 273.849 258.01 276.039 255.58 277.569C255.34 277.179 254.65 276.399 254.29 276.129C256.39 274.899 256.75 273.339 256.75 271.989V269.859ZM251.47 270.939H253.36V283.869C253.36 284.919 253.18 285.459 252.46 285.789C251.77 286.089 250.63 286.119 248.98 286.119C248.89 285.579 248.65 284.829 248.38 284.289C249.64 284.349 250.69 284.349 251.02 284.319C251.38 284.319 251.47 284.199 251.47 283.869V270.939ZM241 277.569C244.45 277.449 249.67 277.209 254.77 276.939L254.71 278.679C249.76 278.949 244.66 279.219 241.12 279.399L241 277.569ZM246.76 273.759L248.17 273.249C248.83 274.179 249.52 275.439 249.82 276.219L248.35 276.819C248.05 276.009 247.39 274.719 246.76 273.759ZM247.51 279.819H249.04V283.959H247.51V279.819ZM262.6 269.859H264.46V274.269C264.46 274.779 264.52 274.839 264.97 274.839C265.18 274.839 266.02 274.839 266.29 274.839C266.74 274.839 266.83 274.629 266.89 272.589C267.28 272.889 268.03 273.129 268.54 273.249C268.36 275.859 267.88 276.519 266.56 276.519C266.2 276.519 265.03 276.519 264.7 276.519C263.05 276.519 262.6 276.039 262.6 274.269V269.859ZM264.46 277.569H264.91L265.3 277.509L266.47 278.019C264.61 282.819 260.38 285.129 255.28 286.269C255.07 285.789 254.53 284.949 254.17 284.589C258.97 283.689 262.93 281.739 264.46 277.839V277.569ZM258.22 279.069C259.93 282.129 263.8 284.109 268.72 284.739C268.27 285.189 267.7 285.969 267.46 286.509C262.3 285.579 258.37 283.269 256.42 279.579L258.22 279.069ZM241.15 293.649H268.45V295.479H241.15V293.649ZM244.69 286.869H264.91V294.579H262.69V288.669H258.76V294.579H256.66V288.669H252.76V294.579H250.66V288.669H246.79V294.579H244.69V286.869ZM280.84 270.279H300.1V272.019H280.84V270.279ZM283.57 275.289V278.169H297.1V275.289H283.57ZM281.56 273.789H299.2V279.639H281.56V273.789ZM286.75 270.849H288.61V278.739H286.75V270.849ZM291.94 270.849H293.8V278.739H291.94V270.849ZM284.29 285.639V287.349H296.65V285.639H284.29ZM284.29 288.759V290.529H296.65V288.759H284.29ZM284.29 282.519V284.229H296.65V282.519H284.29ZM282.19 281.079H298.84V291.969H282.19V281.079ZM291.94 293.469L293.41 292.179C296.02 293.049 298.93 294.219 300.67 295.119L298.72 296.439C297.19 295.539 294.52 294.369 291.94 293.469ZM287.02 292.149L288.64 293.289C286.81 294.609 283.84 295.749 281.17 296.409C280.87 295.959 280.33 295.269 279.91 294.879C282.52 294.279 285.43 293.169 287.02 292.149ZM278.56 268.929L280.66 269.499C278.95 274.689 276.28 279.969 273.31 283.479C273.1 282.939 272.5 281.739 272.11 281.169C274.75 278.169 277.12 273.549 278.56 268.929ZM276.16 276.279L278.23 274.209L278.29 274.269V296.349H276.16V276.279Z" fill="black"/>
</svg>
