<svg width="339" height="311" viewBox="0 0 339 311" fill="none" xmlns="http://www.w3.org/2000/svg">
<rect x="144" y="49" width="15" height="220" fill="#77BE6B"/>
<rect x="112" y="87" width="80" height="144" fill="#77BE6B"/>
<rect x="32" y="49" width="15" height="220" fill="#F17064"/>
<rect y="87" width="80" height="144" fill="#F17064"/>
<path d="M190.939 47.9393C190.354 48.5251 190.354 49.4749 190.939 50.0607L200.485 59.6066C201.071 60.1924 202.021 60.1924 202.607 59.6066C203.192 59.0208 203.192 58.0711 202.607 57.4853L194.121 49L202.607 40.5147C203.192 39.9289 203.192 38.9792 202.607 38.3934C202.021 37.8076 201.071 37.8076 200.485 38.3934L190.939 47.9393ZM307 47.5L192 47.5V50.5L307 50.5V47.5Z" fill="black"/>
<path d="M214.5 14.98V17.11H229.56V14.98H214.5ZM214.5 11.38V13.45H229.56V11.38H214.5ZM212.31 9.76H231.78V18.7H212.31V9.76ZM208.74 20.38H235.17V22.24H208.74V20.38ZM222.06 24.13H232.74V25.96H222.06V24.13ZM212.64 24.31H220.05V25.99H212.64V24.31ZM212.64 28.09H220.05V29.77H212.64V28.09ZM225.21 25.81C226.95 30.1 230.79 33.37 235.89 34.63C235.41 35.05 234.81 35.86 234.51 36.4C229.23 34.84 225.36 31.27 223.38 26.35L225.21 25.81ZM232.05 24.13H232.47L232.86 24.04L234.24 24.61C232.26 30.7 227.43 34.45 222.21 36.25C221.97 35.71 221.4 34.9 220.98 34.48C225.78 33.04 230.4 29.53 232.05 24.49V24.13ZM208.47 32.68C211.41 32.44 215.76 31.96 219.99 31.48V33.34C215.94 33.82 211.77 34.33 208.68 34.69L208.47 32.68ZM218.85 20.98H221.01V36.4H218.85V20.98ZM211.32 21.01H213.42V33.22H211.32V21.01ZM240.75 11.68H266.82V13.63H240.75V11.68ZM252.48 8.8H254.79V12.61H252.48V8.8ZM242.07 23.41H264.36V25.33H244.26V36.43H242.07V23.41ZM263.43 23.41H265.68V33.73C265.68 34.96 265.41 35.62 264.45 36.01C263.49 36.34 261.87 36.37 259.38 36.37C259.29 35.74 258.96 34.84 258.63 34.24C260.61 34.3 262.29 34.3 262.8 34.24C263.31 34.24 263.43 34.09 263.43 33.67V23.41ZM248.07 27.28H250.08V35.14H248.07V27.28ZM249.15 27.28H259.53V33.61H249.15V31.99H257.49V28.9H249.15V27.28ZM247.89 16.96V19.87H259.62V16.96H247.89ZM245.73 15.31H261.9V21.52H245.73V15.31ZM279.84 10.33H299.1V12.07H279.84V10.33ZM282.57 15.34V18.22H296.1V15.34H282.57ZM280.56 13.84H298.2V19.69H280.56V13.84ZM285.75 10.9H287.61V18.79H285.75V10.9ZM290.94 10.9H292.8V18.79H290.94V10.9ZM283.29 25.69V27.4H295.65V25.69H283.29ZM283.29 28.81V30.58H295.65V28.81H283.29ZM283.29 22.57V24.28H295.65V22.57H283.29ZM281.19 21.13H297.84V32.02H281.19V21.13ZM290.94 33.52L292.41 32.23C295.02 33.1 297.93 34.27 299.67 35.17L297.72 36.49C296.19 35.59 293.52 34.42 290.94 33.52ZM286.02 32.2L287.64 33.34C285.81 34.66 282.84 35.8 280.17 36.46C279.87 36.01 279.33 35.32 278.91 34.93C281.52 34.33 284.43 33.22 286.02 32.2ZM277.56 8.98L279.66 9.55C277.95 14.74 275.28 20.02 272.31 23.53C272.1 22.99 271.5 21.79 271.11 21.22C273.75 18.22 276.12 13.6 277.56 8.98ZM275.16 16.33L277.23 14.26L277.29 14.32V36.4H275.16V16.33Z" fill="black"/>
<path d="M19.68 13.55H37.8V15.41H19.68V13.55ZM22.98 17.54H35.31V19.4H22.98V17.54ZM24.18 14.24L26.1 14.69C24.75 18.08 22.41 21.05 19.8 22.97C19.5 22.58 18.78 21.89 18.33 21.53C20.88 19.85 23.07 17.24 24.18 14.24ZM26.52 18.23L28.35 18.74C26.7 22.49 23.85 25.73 20.85 27.83C20.58 27.44 19.92 26.69 19.53 26.36C22.44 24.5 25.08 21.56 26.52 18.23ZM30.93 18.26L32.79 18.71C31.59 22.67 29.43 26.12 26.82 28.34C26.52 28.01 25.77 27.35 25.35 27.02C27.9 25.01 29.91 21.86 30.93 18.26ZM34.71 17.54H36.81C36.81 17.54 36.78 18.14 36.75 18.47C36.36 24.5 35.97 26.78 35.22 27.59C34.77 28.1 34.29 28.28 33.6 28.37C33 28.43 31.95 28.43 30.87 28.37C30.84 27.77 30.63 26.99 30.36 26.45C31.35 26.54 32.28 26.57 32.67 26.57C33.06 26.57 33.27 26.54 33.48 26.27C33.99 25.73 34.38 23.6 34.71 17.9V17.54ZM24.42 7.67V10.04H33.21V7.67H24.42ZM24.42 3.71V6.05H33.21V3.71H24.42ZM22.32 2.03H35.37V11.75H22.32V2.03ZM11.4 2.12H18.48V4.16H13.44V28.43H11.4V2.12ZM17.79 2.12H18.18L18.54 2.03L19.98 2.9C19.11 5.36 18 8.45 16.98 10.85C19.2 13.34 19.68 15.44 19.68 17.3C19.68 18.92 19.35 20.18 18.51 20.78C18.09 21.05 17.55 21.23 16.95 21.32C16.35 21.38 15.6 21.38 14.91 21.35C14.88 20.81 14.7 19.94 14.37 19.37C15.06 19.43 15.63 19.46 16.11 19.4C16.47 19.4 16.8 19.31 17.04 19.13C17.52 18.8 17.67 17.99 17.67 17.09C17.67 15.47 17.13 13.43 14.97 11.09C16.05 8.36 17.16 4.79 17.79 2.72V2.12ZM67.59 15.83L69.39 17.15C67.77 18.62 65.73 20.3 64.17 21.35L62.79 20.27C64.29 19.13 66.39 17.18 67.59 15.83ZM60.15 0.769999L62.64 1.25C61.92 2.69 61.08 4.25 60.39 5.24L58.5 4.76C59.07 3.65 59.79 1.97 60.15 0.769999ZM56.07 10.07V12.68H66.18V10.07H56.07ZM56.07 5.72V8.33H66.18V5.72H56.07ZM54 3.92H68.34V14.51H54V3.92ZM60.06 13.52H62.1V26C62.1 27.14 61.89 27.71 61.14 28.04C60.36 28.37 59.16 28.4 57.27 28.4C57.21 27.83 56.94 26.99 56.67 26.42C58.02 26.45 59.22 26.45 59.58 26.42C59.97 26.42 60.06 26.33 60.06 26V13.52ZM52.86 17.12H57.87V19.01H52.86V17.12ZM57.36 17.12H57.75L58.14 17.06L59.37 17.57C58.29 22.34 55.92 25.49 52.92 27.2C52.65 26.72 51.96 25.97 51.51 25.64C54.33 24.17 56.49 21.41 57.36 17.48V17.12ZM61.83 13.67C62.67 17.9 64.83 23.06 70.08 25.34C69.66 25.76 69 26.6 68.7 27.17C63.57 24.53 61.41 19.1 60.6 15.2L61.83 13.67ZM46.68 0.829999L48.66 1.58C47.52 3.8 46.11 6.5 44.94 8.15L43.41 7.49C44.49 5.75 45.9 2.81 46.68 0.829999ZM50.04 4.25L51.93 5.12C49.86 8.45 46.95 12.71 44.7 15.32L43.32 14.54C45.57 11.87 48.39 7.4 50.04 4.25ZM41.88 7.07L43.08 5.63C44.7 7.1 46.53 9.11 47.31 10.49L46.02 12.17C45.27 10.73 43.47 8.6 41.88 7.07ZM48.87 11.12L50.49 10.43C51.75 12.41 52.98 14.99 53.4 16.64L51.63 17.45C51.24 15.77 50.07 13.1 48.87 11.12ZM41.64 14.09C44.25 13.97 48 13.79 51.78 13.58V15.47C48.21 15.71 44.61 15.92 41.88 16.1L41.64 14.09ZM49.65 18.38L51.3 17.87C52.08 19.58 52.71 21.8 52.89 23.24L51.15 23.78C51 22.34 50.37 20.09 49.65 18.38ZM43.44 17.96L45.33 18.29C44.94 21.14 44.25 24.02 43.29 25.94C42.93 25.7 42.03 25.31 41.58 25.1C42.54 23.27 43.11 20.57 43.44 17.96ZM46.62 14.96H48.6V28.4H46.62V14.96Z" fill="#F17064"/>
<path d="M135.73 7.19H144.67V8.9H135.73V7.19ZM133.21 10.85H144.85V12.56H133.21V10.85ZM133.48 15.41H147.52V17.12H133.48V15.41ZM131.8 19.55H149.47V21.29H131.8V19.55ZM140.05 2.78C138.25 5.27 134.89 8.12 131.38 9.86C131.17 9.35 130.69 8.57 130.3 8.12C133.87 6.5 137.26 3.59 138.97 0.919999H140.95C143.23 3.83 146.77 6.5 150.07 7.88C149.62 8.33 149.17 9.14 148.87 9.71C145.72 8.15 142.09 5.39 140.05 2.78ZM144.25 10.85H144.55L144.91 10.73L146.38 11.24C145.75 12.83 145 14.42 144.25 15.77L142.3 15.2C143.05 13.88 143.83 12.14 144.25 11.12V10.85ZM131.17 25.73C134.95 25.61 141.07 25.31 146.98 24.98L146.92 26.75C141.37 27.11 135.52 27.47 131.53 27.68L131.17 25.73ZM136.93 20.15L139.09 20.99C138.01 22.94 136.75 25.28 135.7 26.78L133.99 26.03C135.01 24.47 136.27 21.95 136.93 20.15ZM142.51 22.37L144.25 21.41C146.14 23.21 148.18 25.7 149.08 27.44L147.25 28.52C146.41 26.81 144.37 24.2 142.51 22.37ZM123.4 2.12H130.48V4.16H125.44V28.43H123.4V2.12ZM129.79 2.12H130.18L130.54 2.03L131.98 2.9C131.11 5.36 130 8.45 128.98 10.85C131.2 13.34 131.68 15.44 131.68 17.3C131.68 18.92 131.35 20.18 130.51 20.78C130.09 21.05 129.55 21.23 128.95 21.32C128.35 21.38 127.6 21.38 126.91 21.35C126.88 20.81 126.7 19.94 126.37 19.37C127.06 19.43 127.63 19.46 128.11 19.4C128.47 19.4 128.8 19.31 129.04 19.13C129.52 18.8 129.67 17.99 129.67 17.09C129.67 15.47 129.13 13.43 126.97 11.09C128.05 8.36 129.16 4.79 129.79 2.72V2.12ZM179.59 15.83L181.39 17.15C179.77 18.62 177.73 20.3 176.17 21.35L174.79 20.27C176.29 19.13 178.39 17.18 179.59 15.83ZM172.15 0.769999L174.64 1.25C173.92 2.69 173.08 4.25 172.39 5.24L170.5 4.76C171.07 3.65 171.79 1.97 172.15 0.769999ZM168.07 10.07V12.68H178.18V10.07H168.07ZM168.07 5.72V8.33H178.18V5.72H168.07ZM166 3.92H180.34V14.51H166V3.92ZM172.06 13.52H174.1V26C174.1 27.14 173.89 27.71 173.14 28.04C172.36 28.37 171.16 28.4 169.27 28.4C169.21 27.83 168.94 26.99 168.67 26.42C170.02 26.45 171.22 26.45 171.58 26.42C171.97 26.42 172.06 26.33 172.06 26V13.52ZM164.86 17.12H169.87V19.01H164.86V17.12ZM169.36 17.12H169.75L170.14 17.06L171.37 17.57C170.29 22.34 167.92 25.49 164.92 27.2C164.65 26.72 163.96 25.97 163.51 25.64C166.33 24.17 168.49 21.41 169.36 17.48V17.12ZM173.83 13.67C174.67 17.9 176.83 23.06 182.08 25.34C181.66 25.76 181 26.6 180.7 27.17C175.57 24.53 173.41 19.1 172.6 15.2L173.83 13.67ZM158.68 0.829999L160.66 1.58C159.52 3.8 158.11 6.5 156.94 8.15L155.41 7.49C156.49 5.75 157.9 2.81 158.68 0.829999ZM162.04 4.25L163.93 5.12C161.86 8.45 158.95 12.71 156.7 15.32L155.32 14.54C157.57 11.87 160.39 7.4 162.04 4.25ZM153.88 7.07L155.08 5.63C156.7 7.1 158.53 9.11 159.31 10.49L158.02 12.17C157.27 10.73 155.47 8.6 153.88 7.07ZM160.87 11.12L162.49 10.43C163.75 12.41 164.98 14.99 165.4 16.64L163.63 17.45C163.24 15.77 162.07 13.1 160.87 11.12ZM153.64 14.09C156.25 13.97 160 13.79 163.78 13.58V15.47C160.21 15.71 156.61 15.92 153.88 16.1L153.64 14.09ZM161.65 18.38L163.3 17.87C164.08 19.58 164.71 21.8 164.89 23.24L163.15 23.78C163 22.34 162.37 20.09 161.65 18.38ZM155.44 17.96L157.33 18.29C156.94 21.14 156.25 24.02 155.29 25.94C154.93 25.7 154.03 25.31 153.58 25.1C154.54 23.27 155.11 20.57 155.44 17.96ZM158.62 14.96H160.6V28.4H158.62V14.96Z" fill="#77BE6B"/>
<path d="M222.939 229.939C222.354 230.525 222.354 231.475 222.939 232.061L232.485 241.607C233.071 242.192 234.021 242.192 234.607 241.607C235.192 241.021 235.192 240.071 234.607 239.485L226.121 231L234.607 222.515C235.192 221.929 235.192 220.979 234.607 220.393C234.021 219.808 233.071 219.808 232.485 220.393L222.939 229.939ZM339 229.5H224V232.5H339V229.5Z" fill="black"/>
<path d="M246.5 196.98V199.11H261.56V196.98H246.5ZM246.5 193.38V195.45H261.56V193.38H246.5ZM244.31 191.76H263.78V200.7H244.31V191.76ZM240.74 202.38H267.17V204.24H240.74V202.38ZM254.06 206.13H264.74V207.96H254.06V206.13ZM244.64 206.31H252.05V207.99H244.64V206.31ZM244.64 210.09H252.05V211.77H244.64V210.09ZM257.21 207.81C258.95 212.1 262.79 215.37 267.89 216.63C267.41 217.05 266.81 217.86 266.51 218.4C261.23 216.84 257.36 213.27 255.38 208.35L257.21 207.81ZM264.05 206.13H264.47L264.86 206.04L266.24 206.61C264.26 212.7 259.43 216.45 254.21 218.25C253.97 217.71 253.4 216.9 252.98 216.48C257.78 215.04 262.4 211.53 264.05 206.49V206.13ZM240.47 214.68C243.41 214.44 247.76 213.96 251.99 213.48V215.34C247.94 215.82 243.77 216.33 240.68 216.69L240.47 214.68ZM250.85 202.98H253.01V218.4H250.85V202.98ZM243.32 203.01H245.42V215.22H243.32V203.01ZM296.39 191.82L298.13 193.53C294.14 194.79 288.14 195.72 282.98 196.29C282.89 195.78 282.59 194.97 282.35 194.46C287.33 193.92 293.15 192.9 296.39 191.82ZM281.72 193.86L283.91 194.58V212.19H281.72V193.86ZM279.71 211.8C282.56 211.35 286.76 210.63 290.87 209.85L290.99 211.89C287.18 212.61 283.19 213.36 280.19 213.9L279.71 211.8ZM282.98 201.33H299.57V203.4H282.98V201.33ZM289.91 194.49H292.19C292.22 205.83 294.74 215.07 297.32 215.04C297.92 215.04 298.22 213.84 298.34 210.9C298.82 211.38 299.6 211.83 300.14 212.04C299.81 216.12 299.03 217.26 297.11 217.26C292.58 217.26 290.15 206.55 289.91 194.49ZM280.61 215.61H293.39V217.62H280.61V215.61ZM278.72 190.92L280.85 191.58C278.87 196.68 275.78 201.75 272.54 205.11C272.3 204.6 271.67 203.4 271.25 202.89C274.22 199.98 277.04 195.48 278.72 190.92ZM275.6 198.66L277.7 196.53L277.76 196.56V218.37H275.6V198.66ZM311.84 192.33H331.1V194.07H311.84V192.33ZM314.57 197.34V200.22H328.1V197.34H314.57ZM312.56 195.84H330.2V201.69H312.56V195.84ZM317.75 192.9H319.61V200.79H317.75V192.9ZM322.94 192.9H324.8V200.79H322.94V192.9ZM315.29 207.69V209.4H327.65V207.69H315.29ZM315.29 210.81V212.58H327.65V210.81H315.29ZM315.29 204.57V206.28H327.65V204.57H315.29ZM313.19 203.13H329.84V214.02H313.19V203.13ZM322.94 215.52L324.41 214.23C327.02 215.1 329.93 216.27 331.67 217.17L329.72 218.49C328.19 217.59 325.52 216.42 322.94 215.52ZM318.02 214.2L319.64 215.34C317.81 216.66 314.84 217.8 312.17 218.46C311.87 218.01 311.33 217.32 310.91 216.93C313.52 216.33 316.43 215.22 318.02 214.2ZM309.56 190.98L311.66 191.55C309.95 196.74 307.28 202.02 304.31 205.53C304.1 204.99 303.5 203.79 303.11 203.22C305.75 200.22 308.12 195.6 309.56 190.98ZM307.16 198.33L309.23 196.26L309.29 196.32V218.4H307.16V198.33Z" fill="black"/>
<path d="M217.939 87.9393C217.354 88.5251 217.354 89.4749 217.939 90.0607L227.485 99.6066C228.071 100.192 229.021 100.192 229.607 99.6066C230.192 99.0208 230.192 98.0711 229.607 97.4853L221.121 89L229.607 80.5147C230.192 79.9289 230.192 78.9792 229.607 78.3934C229.021 77.8076 228.071 77.8076 227.485 78.3934L217.939 87.9393ZM334 87.5L219 87.5V90.5L334 90.5V87.5Z" fill="black"/>
<path d="M242.53 108.09H257.41V109.95H242.53V108.09ZM241.96 113.22H258.04V115.14H241.96V113.22ZM251.95 108.69H253.99V121.86H251.95V108.69ZM245.8 108.78H247.75V114.24C247.75 116.07 247.03 120 243.64 122.28C243.34 121.86 242.65 121.23 242.14 120.93C245.17 119.07 245.8 115.89 245.8 114.24V108.78ZM238.81 100.26H247.24V101.88H238.81V100.26ZM252.64 100.26H261.13V101.88H252.64V100.26ZM260.26 96.09H262.48V119.49C262.48 120.84 262.18 121.56 261.28 121.95C260.38 122.34 258.88 122.37 256.6 122.37C256.51 121.77 256.21 120.72 255.88 120.09C257.53 120.15 259.15 120.15 259.63 120.12C260.11 120.12 260.26 119.94 260.26 119.49V96.09ZM238.99 96.09H248.62V106.2H238.99V104.49H246.49V97.83H238.99V96.09ZM261.34 96.09V97.83H253.42V104.52H261.34V106.23H251.26V96.09H261.34ZM237.64 96.09H239.86V122.43H237.64V96.09ZM271.6 96.99H279.43V98.64H271.6V96.99ZM274.87 94.77L276.88 95.07C276.31 96.21 275.8 97.23 275.35 98.04L273.64 97.71C274.06 96.87 274.6 95.61 274.87 94.77ZM270.73 96.99H272.59V102.57C272.59 105.72 272.05 110.01 269.2 112.89C268.93 112.53 268.18 111.87 267.76 111.63C270.37 108.99 270.73 105.36 270.73 102.54V96.99ZM284.59 95.91H290.62V97.59H284.59V95.91ZM282.52 103.62H292.06V105.27H282.52V103.62ZM283.75 95.91H285.58V98.07C285.58 99.9 285.01 102.09 282.58 103.62C282.34 103.23 281.65 102.45 281.29 102.18C283.39 100.95 283.75 99.39 283.75 98.04V95.91ZM278.47 96.99H280.36V109.92C280.36 110.97 280.18 111.51 279.46 111.84C278.77 112.14 277.63 112.17 275.98 112.17C275.89 111.63 275.65 110.88 275.38 110.34C276.64 110.4 277.69 110.4 278.02 110.37C278.38 110.37 278.47 110.25 278.47 109.92V96.99ZM268 103.62C271.45 103.5 276.67 103.26 281.77 102.99L281.71 104.73C276.76 105 271.66 105.27 268.12 105.45L268 103.62ZM273.76 99.81L275.17 99.3C275.83 100.23 276.52 101.49 276.82 102.27L275.35 102.87C275.05 102.06 274.39 100.77 273.76 99.81ZM274.51 105.87H276.04V110.01H274.51V105.87ZM289.6 95.91H291.46V100.32C291.46 100.83 291.52 100.89 291.97 100.89C292.18 100.89 293.02 100.89 293.29 100.89C293.74 100.89 293.83 100.68 293.89 98.64C294.28 98.94 295.03 99.18 295.54 99.3C295.36 101.91 294.88 102.57 293.56 102.57C293.2 102.57 292.03 102.57 291.7 102.57C290.05 102.57 289.6 102.09 289.6 100.32V95.91ZM291.46 103.62H291.91L292.3 103.56L293.47 104.07C291.61 108.87 287.38 111.18 282.28 112.32C282.07 111.84 281.53 111 281.17 110.64C285.97 109.74 289.93 107.79 291.46 103.89V103.62ZM285.22 105.12C286.93 108.18 290.8 110.16 295.72 110.79C295.27 111.24 294.7 112.02 294.46 112.56C289.3 111.63 285.37 109.32 283.42 105.63L285.22 105.12ZM268.15 119.7H295.45V121.53H268.15V119.7ZM271.69 112.92H291.91V120.63H289.69V114.72H285.76V120.63H283.66V114.72H279.76V120.63H277.66V114.72H273.79V120.63H271.69V112.92ZM307.84 96.33H327.1V98.07H307.84V96.33ZM310.57 101.34V104.22H324.1V101.34H310.57ZM308.56 99.84H326.2V105.69H308.56V99.84ZM313.75 96.9H315.61V104.79H313.75V96.9ZM318.94 96.9H320.8V104.79H318.94V96.9ZM311.29 111.69V113.4H323.65V111.69H311.29ZM311.29 114.81V116.58H323.65V114.81H311.29ZM311.29 108.57V110.28H323.65V108.57H311.29ZM309.19 107.13H325.84V118.02H309.19V107.13ZM318.94 119.52L320.41 118.23C323.02 119.1 325.93 120.27 327.67 121.17L325.72 122.49C324.19 121.59 321.52 120.42 318.94 119.52ZM314.02 118.2L315.64 119.34C313.81 120.66 310.84 121.8 308.17 122.46C307.87 122.01 307.33 121.32 306.91 120.93C309.52 120.33 312.43 119.22 314.02 118.2ZM305.56 94.98L307.66 95.55C305.95 100.74 303.28 106.02 300.31 109.53C300.1 108.99 299.5 107.79 299.11 107.22C301.75 104.22 304.12 99.6 305.56 94.98ZM303.16 102.33L305.23 100.26L305.29 100.32V122.4H303.16V102.33Z" fill="black"/>
<path d="M63.1 236.68H80.9V238.2H63.1V236.68ZM70.8 237.88H72.38V253.58H70.8V237.88ZM71.68 242.62L72.66 241.46C75.06 242.62 78.22 244.44 79.82 245.64L78.76 247C77.22 245.76 74.1 243.86 71.68 242.62ZM84.1 242.52H95.5V243.72H84.1V242.52ZM89.14 241.1H90.52V243.18H89.14V241.1ZM86.96 245.96V247.82H92.82V245.96H86.96ZM85.64 244.9H94.2V248.88H85.64V244.9ZM86.82 239.08V240.32H92.94V239.08H86.82ZM86.82 236.92V238.16H92.94V236.92H86.82ZM85.46 235.96H94.34V241.28H85.46V235.96ZM89.14 248.14H90.52V252.18C90.52 252.86 90.38 253.2 89.86 253.4C89.34 253.6 88.6 253.6 87.48 253.6C87.4 253.24 87.14 252.76 86.92 252.4C87.84 252.44 88.58 252.44 88.84 252.42C89.08 252.42 89.14 252.36 89.14 252.16V248.14ZM86.24 249.38L87.54 249.72C86.96 250.96 86.02 252.22 85.12 253.04C84.88 252.82 84.34 252.46 84.02 252.26C84.92 251.52 85.76 250.46 86.24 249.38ZM91.78 249.98L92.92 249.4C93.7 250.24 94.62 251.38 95.06 252.12L93.88 252.76C93.46 252.02 92.56 250.84 91.78 249.98ZM100.12 235.56L101.54 236.14C100.2 237.9 98.12 239.64 96.28 240.72C96.02 240.4 95.56 239.94 95.2 239.66C96.94 238.74 99 237.1 100.12 235.56ZM100.66 241.1L102.06 241.68C100.62 243.54 98.36 245.34 96.38 246.48C96.12 246.16 95.66 245.7 95.28 245.42C97.18 244.44 99.42 242.72 100.66 241.1ZM101.18 246.76L102.64 247.28C101.08 249.96 98.44 252.22 95.54 253.58C95.3 253.22 94.86 252.7 94.48 252.38C97.2 251.2 99.82 249.12 101.18 246.76ZM122.26 245.22L123.46 246.1C122.38 247.08 121.02 248.2 119.98 248.9L119.06 248.18C120.06 247.42 121.46 246.12 122.26 245.22ZM117.3 235.18L118.96 235.5C118.48 236.46 117.92 237.5 117.46 238.16L116.2 237.84C116.58 237.1 117.06 235.98 117.3 235.18ZM114.58 241.38V243.12H121.32V241.38H114.58ZM114.58 238.48V240.22H121.32V238.48H114.58ZM113.2 237.28H122.76V244.34H113.2V237.28ZM117.24 243.68H118.6V252C118.6 252.76 118.46 253.14 117.96 253.36C117.44 253.58 116.64 253.6 115.38 253.6C115.34 253.22 115.16 252.66 114.98 252.28C115.88 252.3 116.68 252.3 116.92 252.28C117.18 252.28 117.24 252.22 117.24 252V243.68ZM112.44 246.08H115.78V247.34H112.44V246.08ZM115.44 246.08H115.7L115.96 246.04L116.78 246.38C116.06 249.56 114.48 251.66 112.48 252.8C112.3 252.48 111.84 251.98 111.54 251.76C113.42 250.78 114.86 248.94 115.44 246.32V246.08ZM118.42 243.78C118.98 246.6 120.42 250.04 123.92 251.56C123.64 251.84 123.2 252.4 123 252.78C119.58 251.02 118.14 247.4 117.6 244.8L118.42 243.78ZM108.32 235.22L109.64 235.72C108.88 237.2 107.94 239 107.16 240.1L106.14 239.66C106.86 238.5 107.8 236.54 108.32 235.22ZM110.56 237.5L111.82 238.08C110.44 240.3 108.5 243.14 107 244.88L106.08 244.36C107.58 242.58 109.46 239.6 110.56 237.5ZM105.12 239.38L105.92 238.42C107 239.4 108.22 240.74 108.74 241.66L107.88 242.78C107.38 241.82 106.18 240.4 105.12 239.38ZM109.78 242.08L110.86 241.62C111.7 242.94 112.52 244.66 112.8 245.76L111.62 246.3C111.36 245.18 110.58 243.4 109.78 242.08ZM104.96 244.06C106.7 243.98 109.2 243.86 111.72 243.72V244.98C109.34 245.14 106.94 245.28 105.12 245.4L104.96 244.06ZM110.3 246.92L111.4 246.58C111.92 247.72 112.34 249.2 112.46 250.16L111.3 250.52C111.2 249.56 110.78 248.06 110.3 246.92ZM106.16 246.64L107.42 246.86C107.16 248.76 106.7 250.68 106.06 251.96C105.82 251.8 105.22 251.54 104.92 251.4C105.56 250.18 105.94 248.38 106.16 246.64ZM108.28 244.64H109.6V253.6H108.28V244.64Z" fill="black"/>
<path d="M71.4 59.68H79.62V61.18H71.4V59.68ZM63.02 69.16H80.98V70.66H63.02V69.16ZM70.54 53.5H72.12V69.96H70.54V53.5ZM84.1 60.52H95.5V61.72H84.1V60.52ZM89.14 59.1H90.52V61.18H89.14V59.1ZM86.96 63.96V65.82H92.82V63.96H86.96ZM85.64 62.9H94.2V66.88H85.64V62.9ZM86.82 57.08V58.32H92.94V57.08H86.82ZM86.82 54.92V56.16H92.94V54.92H86.82ZM85.46 53.96H94.34V59.28H85.46V53.96ZM89.14 66.14H90.52V70.18C90.52 70.86 90.38 71.2 89.86 71.4C89.34 71.6 88.6 71.6 87.48 71.6C87.4 71.24 87.14 70.76 86.92 70.4C87.84 70.44 88.58 70.44 88.84 70.42C89.08 70.42 89.14 70.36 89.14 70.16V66.14ZM86.24 67.38L87.54 67.72C86.96 68.96 86.02 70.22 85.12 71.04C84.88 70.82 84.34 70.46 84.02 70.26C84.92 69.52 85.76 68.46 86.24 67.38ZM91.78 67.98L92.92 67.4C93.7 68.24 94.62 69.38 95.06 70.12L93.88 70.76C93.46 70.02 92.56 68.84 91.78 67.98ZM100.12 53.56L101.54 54.14C100.2 55.9 98.12 57.64 96.28 58.72C96.02 58.4 95.56 57.94 95.2 57.66C96.94 56.74 99 55.1 100.12 53.56ZM100.66 59.1L102.06 59.68C100.62 61.54 98.36 63.34 96.38 64.48C96.12 64.16 95.66 63.7 95.28 63.42C97.18 62.44 99.42 60.72 100.66 59.1ZM101.18 64.76L102.64 65.28C101.08 67.96 98.44 70.22 95.54 71.58C95.3 71.22 94.86 70.7 94.48 70.38C97.2 69.2 99.82 67.12 101.18 64.76ZM122.26 63.22L123.46 64.1C122.38 65.08 121.02 66.2 119.98 66.9L119.06 66.18C120.06 65.42 121.46 64.12 122.26 63.22ZM117.3 53.18L118.96 53.5C118.48 54.46 117.92 55.5 117.46 56.16L116.2 55.84C116.58 55.1 117.06 53.98 117.3 53.18ZM114.58 59.38V61.12H121.32V59.38H114.58ZM114.58 56.48V58.22H121.32V56.48H114.58ZM113.2 55.28H122.76V62.34H113.2V55.28ZM117.24 61.68H118.6V70C118.6 70.76 118.46 71.14 117.96 71.36C117.44 71.58 116.64 71.6 115.38 71.6C115.34 71.22 115.16 70.66 114.98 70.28C115.88 70.3 116.68 70.3 116.92 70.28C117.18 70.28 117.24 70.22 117.24 70V61.68ZM112.44 64.08H115.78V65.34H112.44V64.08ZM115.44 64.08H115.7L115.96 64.04L116.78 64.38C116.06 67.56 114.48 69.66 112.48 70.8C112.3 70.48 111.84 69.98 111.54 69.76C113.42 68.78 114.86 66.94 115.44 64.32V64.08ZM118.42 61.78C118.98 64.6 120.42 68.04 123.92 69.56C123.64 69.84 123.2 70.4 123 70.78C119.58 69.02 118.14 65.4 117.6 62.8L118.42 61.78ZM108.32 53.22L109.64 53.72C108.88 55.2 107.94 57 107.16 58.1L106.14 57.66C106.86 56.5 107.8 54.54 108.32 53.22ZM110.56 55.5L111.82 56.08C110.44 58.3 108.5 61.14 107 62.88L106.08 62.36C107.58 60.58 109.46 57.6 110.56 55.5ZM105.12 57.38L105.92 56.42C107 57.4 108.22 58.74 108.74 59.66L107.88 60.78C107.38 59.82 106.18 58.4 105.12 57.38ZM109.78 60.08L110.86 59.62C111.7 60.94 112.52 62.66 112.8 63.76L111.62 64.3C111.36 63.18 110.58 61.4 109.78 60.08ZM104.96 62.06C106.7 61.98 109.2 61.86 111.72 61.72V62.98C109.34 63.14 106.94 63.28 105.12 63.4L104.96 62.06ZM110.3 64.92L111.4 64.58C111.92 65.72 112.34 67.2 112.46 68.16L111.3 68.52C111.2 67.56 110.78 66.06 110.3 64.92ZM106.16 64.64L107.42 64.86C107.16 66.76 106.7 68.68 106.06 69.96C105.82 69.8 105.22 69.54 104.92 69.4C105.56 68.18 105.94 66.38 106.16 64.64ZM108.28 62.64H109.6V71.6H108.28V62.64Z" fill="black"/>
<path d="M190.939 267.939C190.354 268.525 190.354 269.475 190.939 270.061L200.485 279.607C201.071 280.192 202.021 280.192 202.607 279.607C203.192 279.021 203.192 278.071 202.607 277.485L194.121 269L202.607 260.515C203.192 259.929 203.192 258.979 202.607 258.393C202.021 257.808 201.071 257.808 200.485 258.393L190.939 267.939ZM307 267.5H192V270.5H307V267.5Z" fill="black"/>
<path d="M209.02 295.3C211.33 294.76 214.78 293.8 218.2 292.87L218.47 294.88C215.41 295.84 212.23 296.83 209.77 297.55L209.02 295.3ZM217.21 275.95H219.4V303.4H217.21V275.95ZM211.06 279.28H213.22V295.57H211.06V279.28ZM224.23 281.38H236.89V283.51H224.23V281.38ZM225.04 275.8L227.35 276.25C226.03 281.77 223.9 286.96 221.14 290.35C220.78 289.9 219.85 289.09 219.31 288.73C221.98 285.67 223.93 280.81 225.04 275.8ZM232.99 282.4L235.24 282.76C233.14 293.05 229.03 299.56 220.99 303.49C220.78 302.98 220.09 301.96 219.67 301.48C227.38 298.03 231.16 291.94 232.99 282.4ZM225.04 283.12C226.78 291.67 230.53 298.69 237.25 301.57C236.74 302.02 236.02 302.89 235.69 303.49C228.7 300.13 224.98 292.87 223 283.51L225.04 283.12ZM244.6 277.99H252.43V279.64H244.6V277.99ZM247.87 275.77L249.88 276.07C249.31 277.21 248.8 278.23 248.35 279.04L246.64 278.71C247.06 277.87 247.6 276.61 247.87 275.77ZM243.73 277.99H245.59V283.57C245.59 286.72 245.05 291.01 242.2 293.89C241.93 293.53 241.18 292.87 240.76 292.63C243.37 289.99 243.73 286.36 243.73 283.54V277.99ZM257.59 276.91H263.62V278.59H257.59V276.91ZM255.52 284.62H265.06V286.27H255.52V284.62ZM256.75 276.91H258.58V279.07C258.58 280.9 258.01 283.09 255.58 284.62C255.34 284.23 254.65 283.45 254.29 283.18C256.39 281.95 256.75 280.39 256.75 279.04V276.91ZM251.47 277.99H253.36V290.92C253.36 291.97 253.18 292.51 252.46 292.84C251.77 293.14 250.63 293.17 248.98 293.17C248.89 292.63 248.65 291.88 248.38 291.34C249.64 291.4 250.69 291.4 251.02 291.37C251.38 291.37 251.47 291.25 251.47 290.92V277.99ZM241 284.62C244.45 284.5 249.67 284.26 254.77 283.99L254.71 285.73C249.76 286 244.66 286.27 241.12 286.45L241 284.62ZM246.76 280.81L248.17 280.3C248.83 281.23 249.52 282.49 249.82 283.27L248.35 283.87C248.05 283.06 247.39 281.77 246.76 280.81ZM247.51 286.87H249.04V291.01H247.51V286.87ZM262.6 276.91H264.46V281.32C264.46 281.83 264.52 281.89 264.97 281.89C265.18 281.89 266.02 281.89 266.29 281.89C266.74 281.89 266.83 281.68 266.89 279.64C267.28 279.94 268.03 280.18 268.54 280.3C268.36 282.91 267.88 283.57 266.56 283.57C266.2 283.57 265.03 283.57 264.7 283.57C263.05 283.57 262.6 283.09 262.6 281.32V276.91ZM264.46 284.62H264.91L265.3 284.56L266.47 285.07C264.61 289.87 260.38 292.18 255.28 293.32C255.07 292.84 254.53 292 254.17 291.64C258.97 290.74 262.93 288.79 264.46 284.89V284.62ZM258.22 286.12C259.93 289.18 263.8 291.16 268.72 291.79C268.27 292.24 267.7 293.02 267.46 293.56C262.3 292.63 258.37 290.32 256.42 286.63L258.22 286.12ZM241.15 300.7H268.45V302.53H241.15V300.7ZM244.69 293.92H264.91V301.63H262.69V295.72H258.76V301.63H256.66V295.72H252.76V301.63H250.66V295.72H246.79V301.63H244.69V293.92ZM280.84 277.33H300.1V279.07H280.84V277.33ZM283.57 282.34V285.22H297.1V282.34H283.57ZM281.56 280.84H299.2V286.69H281.56V280.84ZM286.75 277.9H288.61V285.79H286.75V277.9ZM291.94 277.9H293.8V285.79H291.94V277.9ZM284.29 292.69V294.4H296.65V292.69H284.29ZM284.29 295.81V297.58H296.65V295.81H284.29ZM284.29 289.57V291.28H296.65V289.57H284.29ZM282.19 288.13H298.84V299.02H282.19V288.13ZM291.94 300.52L293.41 299.23C296.02 300.1 298.93 301.27 300.67 302.17L298.72 303.49C297.19 302.59 294.52 301.42 291.94 300.52ZM287.02 299.2L288.64 300.34C286.81 301.66 283.84 302.8 281.17 303.46C280.87 303.01 280.33 302.32 279.91 301.93C282.52 301.33 285.43 300.22 287.02 299.2ZM278.56 275.98L280.66 276.55C278.95 281.74 276.28 287.02 273.31 290.53C273.1 289.99 272.5 288.79 272.11 288.22C274.75 285.22 277.12 280.6 278.56 275.98ZM276.16 283.33L278.23 281.26L278.29 281.32V303.4H276.16V283.33Z" fill="black"/>
</svg>
