<svg width="16" height="16" viewBox="0 0 16 16" fill="none" xmlns="http://www.w3.org/2000/svg">
<path fill-rule="evenodd" clip-rule="evenodd" d="M8 10.0009C8.13261 10.0009 8.25979 9.94822 8.35355 9.85445C8.44732 9.76068 8.5 9.6335 8.5 9.50089V3.70789L10.646 5.85489C10.6925 5.90138 10.7477 5.93826 10.8084 5.96342C10.8692 5.98858 10.9343 6.00153 11 6.00153C11.0657 6.00153 11.1308 5.98858 11.1916 5.96342C11.2523 5.93826 11.3075 5.90138 11.354 5.85489C11.4005 5.80841 11.4374 5.75322 11.4625 5.69248C11.4877 5.63174 11.5006 5.56664 11.5006 5.50089C11.5006 5.43515 11.4877 5.37005 11.4625 5.30931C11.4374 5.24857 11.4005 5.19338 11.354 5.14689L8.354 2.14689C8.30755 2.10033 8.25238 2.06339 8.19163 2.03818C8.13089 2.01297 8.06577 2 8 2C7.93423 2 7.86911 2.01297 7.80837 2.03818C7.74762 2.06339 7.69245 2.10033 7.646 2.14689L4.646 5.14689C4.55211 5.24078 4.49937 5.36812 4.49937 5.50089C4.49937 5.63367 4.55211 5.76101 4.646 5.85489C4.73989 5.94878 4.86722 6.00153 5 6.00153C5.13278 6.00153 5.26011 5.94878 5.354 5.85489L7.5 3.70789V9.50089C7.5 9.6335 7.55268 9.76068 7.64645 9.85445C7.74021 9.94822 7.86739 10.0009 8 10.0009ZM1 12.5009C1 12.3683 1.05268 12.2411 1.14645 12.1473C1.24021 12.0536 1.36739 12.0009 1.5 12.0009H14.5C14.6326 12.0009 14.7598 12.0536 14.8536 12.1473C14.9473 12.2411 15 12.3683 15 12.5009C15 12.6335 14.9473 12.7607 14.8536 12.8544C14.7598 12.9482 14.6326 13.0009 14.5 13.0009H1.5C1.36739 13.0009 1.24021 12.9482 1.14645 12.8544C1.05268 12.7607 1 12.6335 1 12.5009Z" fill="white"/>
</svg>
