<svg width="144" height="87" viewBox="0 0 144 87" fill="none" xmlns="http://www.w3.org/2000/svg">
<rect x="7" y="44.5273" width="5" height="7" fill="#F58B82"/>
<rect x="14" y="41.5273" width="5" height="10" fill="#F58B82"/>
<rect x="21" y="37.5273" width="5" height="14" fill="#F58B82"/>
<rect x="28" y="33.5273" width="5" height="18" fill="#F58B82"/>
<path fill-rule="evenodd" clip-rule="evenodd" d="M0.999089 49.8662C0.968152 49.8208 0.905964 49.8096 0.861123 49.8414C0.837436 49.8581 0.822376 49.8845 0.820074 49.9135C0.798426 50.1858 0.782167 50.4597 0.77141 50.7351C0.345975 61.6287 8.68682 70.7988 19.4012 71.2173C30.1156 71.6357 39.1462 63.144 39.5717 52.2504C39.632 50.7056 39.516 49.1955 39.242 47.7401C39.2345 47.7001 39.1794 47.6957 39.1654 47.7339C39.1578 47.7547 39.1347 47.7655 39.1138 47.7578L35.1414 46.305C35.0029 46.2543 34.8481 46.3119 34.7763 46.4407L32.2093 51.0494L32.0711 51.2976C31.9701 51.4789 31.7199 51.5054 31.5832 51.3491L31.3962 51.1353L28.5967 47.9353C28.4721 47.793 28.2486 47.7999 28.1332 47.9498L25.8876 50.8659L25.6855 51.1284C25.5478 51.3072 25.2693 51.2756 25.1751 51.0704L25.037 50.7693L23.0662 46.4735C22.9756 46.2761 22.7118 46.2373 22.5683 46.4004L20.7962 48.4138L20.6556 48.5736C20.5413 48.7035 20.3411 48.71 20.2185 48.5878L20.0678 48.4375L15.963 44.3437C15.8338 44.2149 15.6205 44.2302 15.5111 44.3763L11.0862 50.2824L10.8846 50.5515C10.7482 50.7336 10.4667 50.7035 10.3719 50.4968L10.2316 50.1911L8.14198 45.6362C8.06454 45.4674 7.85392 45.4088 7.70043 45.5133L1.20971 49.9339C1.14763 49.9761 1.06303 49.9601 1.02075 49.898L0.999089 49.8662Z" fill="#2C3E50"/>
<path fill-rule="evenodd" clip-rule="evenodd" d="M3.84407 35.7353C3.85278 35.9917 4.16037 36.111 4.34324 35.931L9.56315 30.7925L9.73802 30.6203C9.87343 30.487 10.0971 30.5116 10.2003 30.6711L10.3337 30.8771L12.6635 34.4767C12.7896 34.6715 13.0797 34.6555 13.1836 34.4479L16.0871 28.6462L16.1944 28.4319C16.2781 28.2646 16.493 28.2139 16.6427 28.3263L16.8344 28.4701L21.1875 31.7367C21.3296 31.8434 21.5329 31.8038 21.6245 31.6515L23.0798 29.2339L23.245 28.9594C23.3594 28.7694 23.6333 28.7649 23.7538 28.9511L23.9279 29.22L26.2691 32.8372C26.3943 33.0306 26.6817 33.0166 26.7875 32.8119L28.1841 30.1098L28.3005 29.8847C28.3895 29.7124 28.6161 29.6686 28.763 29.7953L28.9549 29.9608L31.7982 32.4135C31.9589 32.552 32.2087 32.4846 32.2778 32.284L33.746 28.0233L33.8033 27.8572C33.8524 27.7148 33.9995 27.6308 34.1471 27.6611L34.3192 27.6964L37.7693 28.4037C38.0051 28.452 38.1976 28.2171 38.099 27.9976C34.846 20.7506 27.4862 16.128 19.5892 17.0906C10.31 18.2217 3.51639 26.0792 3.84407 35.7353Z" fill="#2C3E50"/>
<path d="M63.4457 34.228H68.3417V35.884H63.4457V34.228ZM62.3897 34.228H64.0217V42.844C64.0217 46.588 63.8057 51.892 62.1257 55.444C61.8137 55.156 61.0697 54.772 60.6617 54.604C62.2697 51.22 62.3897 46.42 62.3897 42.868V34.228ZM67.4777 34.228H69.1337V53.164C69.1337 54.076 68.9177 54.604 68.3417 54.916C67.7657 55.204 66.8537 55.228 65.3177 55.228C65.2457 54.796 65.0297 54.004 64.8137 53.548C65.8697 53.572 66.7817 53.572 67.0937 53.572C67.3577 53.548 67.4777 53.428 67.4777 53.116V34.228ZM72.9737 34.276H79.3817V35.956H72.9737V34.276ZM70.3337 43.948H80.5577V45.652H70.3337V43.948ZM80.1497 43.948H80.5097L80.8457 43.876L81.9977 44.332C80.1737 50.404 75.5897 53.812 70.4297 55.372C70.2377 54.916 69.8057 54.22 69.4457 53.836C74.2217 52.588 78.6377 49.324 80.1497 44.236V43.948ZM72.7817 45.268C74.4137 49.468 77.9897 52.636 82.8857 53.836C82.4537 54.22 81.9497 54.94 81.6857 55.396C76.6697 53.956 73.1177 50.5 71.2217 45.772L72.7817 45.268ZM72.6857 34.276H74.3417V36.94C74.3417 39.076 73.7177 41.644 70.7657 43.324C70.5497 42.988 69.9257 42.34 69.6137 42.076C72.2537 40.588 72.6857 38.62 72.6857 36.916V34.276ZM78.3497 34.276H80.0297V39.868C80.0297 40.54 80.0777 40.756 80.3897 40.756C80.6537 40.756 81.4697 40.756 81.7337 40.756C81.9977 40.756 82.4777 40.708 82.7657 40.636C82.7897 41.068 82.8617 41.74 82.9097 42.124C82.6217 42.22 82.1657 42.244 81.7577 42.244C81.4457 42.244 80.5577 42.244 80.2697 42.244C78.6857 42.244 78.3497 41.596 78.3497 39.844V34.276ZM63.8057 46.636C64.9817 46.18 66.6617 45.388 68.3897 44.548L68.7017 45.82C67.2617 46.684 65.8217 47.548 64.5737 48.316L63.8057 46.636ZM63.7337 39.82L64.8377 39.004C65.8937 39.94 67.1417 41.188 67.7417 42.004L66.5657 42.964C65.9657 42.124 64.7657 40.78 63.7337 39.82ZM96.2297 33.436L97.9337 33.964C96.3497 38.044 93.9017 42.1 91.2857 44.788C91.1177 44.38 90.5897 43.42 90.2777 43.012C92.6537 40.684 94.8857 37.084 96.2297 33.436ZM93.6857 39.628L95.3657 37.924L95.4137 37.948V55.396H93.6857V39.628ZM98.9897 45.268H111.422V55.324H109.574V46.996H100.79V55.42H98.9897V45.268ZM104.198 33.34H106.046V46.204H104.198V33.34ZM97.6217 38.62H112.886V40.348H97.6217V38.62ZM99.8537 52.684H110.606V54.388H99.8537V52.684ZM134.99 33.34H136.718V41.164H134.99V33.34ZM129.47 34.876H141.854V36.196H129.47V34.876ZM129.998 37.516H141.302V38.788H129.998V37.516ZM128.558 40.18H142.742V41.548H128.558V40.18ZM131.798 46.348V47.764H139.55V46.348H131.798ZM131.798 48.868V50.284H139.55V48.868H131.798ZM131.798 43.876V45.268H139.55V43.876H131.798ZM130.118 42.676H141.254V51.484H130.118V42.676ZM136.958 52.636L138.134 51.7C139.79 52.612 141.686 53.716 142.862 54.508L141.326 55.444C140.294 54.676 138.518 53.548 136.958 52.636ZM133.334 51.676L134.822 52.828C133.07 53.716 130.79 54.748 129.158 55.396C128.894 55.06 128.39 54.508 128.03 54.172C129.662 53.548 132.014 52.468 133.334 51.676ZM126.518 42.844L127.838 42.532C128.366 44.212 128.966 46.396 129.206 47.644L127.814 48.052C127.598 46.756 127.07 44.524 126.518 42.844ZM124.238 48.82L125.51 48.628C125.798 50.404 126.062 52.684 126.134 54.196L124.814 54.436C124.79 52.924 124.526 50.596 124.238 48.82ZM121.838 48.796L123.254 49.036C122.966 51.244 122.51 53.692 122.006 55.252C121.694 55.108 121.022 54.868 120.638 54.772C121.238 53.188 121.598 50.884 121.838 48.796ZM121.262 42.34C121.166 41.98 120.902 41.188 120.71 40.756C121.118 40.66 121.526 40.156 122.006 39.412C122.534 38.716 124.166 35.932 125.126 33.316L126.71 33.964C125.51 36.676 123.902 39.46 122.342 41.404V41.452C122.342 41.452 121.262 41.98 121.262 42.34ZM121.262 42.34L121.214 41.02L122.054 40.516L126.254 40.156C126.158 40.588 126.11 41.236 126.11 41.572C122.294 42.028 121.646 42.148 121.262 42.34ZM121.406 47.74C121.334 47.404 121.046 46.588 120.854 46.156C121.358 46.036 121.886 45.412 122.63 44.524C123.374 43.66 125.846 40.228 127.382 36.964L128.87 37.804C127.07 41.116 124.766 44.476 122.51 46.828V46.876C122.51 46.876 121.406 47.404 121.406 47.74ZM121.406 47.74L121.358 46.42L122.198 45.868L128.126 45.1C128.054 45.532 128.03 46.18 128.054 46.516C122.63 47.332 121.886 47.5 121.406 47.74ZM126.566 48.46L127.718 48.124C128.222 49.492 128.798 51.292 129.014 52.468L127.814 52.852C127.598 51.676 127.046 49.852 126.566 48.46Z" fill="#2C3E50"/>
</svg>
