<svg width="28" height="32" viewBox="0 0 28 32" fill="none" xmlns="http://www.w3.org/2000/svg">
<path d="M14 32C15.0609 32 16.0783 31.5786 16.8284 30.8285C17.5786 30.0784 18 29.061 18 28.0002H10C10 29.061 10.4214 30.0784 11.1716 30.8285C11.9217 31.5786 12.9391 32 14 32ZM15.99 2.19963C16.0179 1.92155 15.9872 1.64071 15.8999 1.37522C15.8126 1.10973 15.6707 0.865482 15.4832 0.65823C15.2957 0.450978 15.0668 0.285323 14.8113 0.17195C14.5559 0.0585757 14.2795 0 14 0C13.7205 0 13.4441 0.0585757 13.1887 0.17195C12.9332 0.285323 12.7043 0.450978 12.5168 0.65823C12.3293 0.865482 12.1874 1.10973 12.1001 1.37522C12.0128 1.64071 11.9821 1.92155 12.01 2.19963C9.74944 2.65941 7.71724 3.88626 6.25753 5.67244C4.79782 7.45862 4.00029 9.69437 4 12.0011C4 14.197 3 24.0004 0 26.0003H28C25 24.0004 24 14.197 24 12.0011C24 7.16136 20.56 3.12158 15.99 2.19963Z" fill="white"/>
</svg>
