<svg width="1440" height="1500" viewBox="0 0 1440 1500" fill="none" xmlns="http://www.w3.org/2000/svg">
<g clip-path="url(#clip0_1213_6294)">
<rect width="1440" height="1500" fill="#F3F3F3"/>
<g filter="url(#filter0_f_1213_6294)">
<rect x="1228" y="1328" width="424" height="424" rx="212" fill="#F58B82"/>
</g>
<g filter="url(#filter1_f_1213_6294)">
<rect x="364.273" y="294.006" width="424" height="424" rx="212" transform="rotate(131.15 364.273 294.006)" fill="#B4C7DD"/>
</g>
<path opacity="0.8" d="M-68 949.271L-54.4014 959.915C-40.8028 970.559 -13.6056 991.846 13.5916 974.315C40.7888 956.783 67.986 900.432 95.1832 830.154C122.38 759.876 149.578 675.67 176.775 622.437C203.972 569.203 231.169 546.942 258.366 619.269C285.564 691.597 312.761 858.514 339.958 853.651C367.155 848.789 394.352 672.148 421.55 653.195C448.747 634.243 475.944 772.978 503.141 826.806C530.338 880.633 557.535 849.551 584.733 789.942C611.93 730.333 639.127 642.196 666.324 619.065C693.521 595.935 720.719 637.811 747.916 693.239C775.113 748.667 802.31 817.647 829.507 836.241C856.705 854.835 883.902 823.044 911.099 776.572C938.296 730.1 965.493 668.947 992.691 653.254C1019.89 637.56 1047.09 667.325 1074.28 623.969C1101.48 580.612 1128.68 464.133 1155.87 398.651C1183.07 333.169 1210.27 318.683 1237.47 310.336C1264.66 301.988 1291.86 299.778 1319.06 354.982C1346.25 410.186 1373.45 522.803 1400.65 514.708C1427.85 506.613 1455.04 377.807 1468.64 313.403L1482.24 249" stroke="#F58B82" stroke-width="6"/>
<path opacity="0.8" d="M-26 861.835L-13.3091 867.593C-0.618299 873.351 24.7634 884.868 50.1451 875.383C75.5268 865.899 100.909 835.414 126.29 797.395C151.672 759.375 177.054 713.822 202.435 685.023C227.817 656.225 253.199 644.182 278.58 683.31C303.962 722.438 329.344 812.737 354.726 810.106C380.107 807.476 405.489 711.916 430.871 701.663C456.252 691.41 481.634 766.464 507.016 795.583C532.397 824.703 557.779 807.888 583.161 775.641C608.543 743.393 633.924 695.712 659.306 683.199C684.688 670.686 710.069 693.34 735.451 723.326C760.833 753.312 786.214 790.629 811.596 800.688C836.978 810.747 862.36 793.548 887.741 768.408C913.123 743.267 938.505 710.185 963.886 701.695C989.268 693.205 1014.65 709.307 1040.03 685.852C1065.41 662.397 1090.79 599.384 1116.18 563.959C1141.56 528.534 1166.94 520.698 1192.32 516.182C1217.7 511.666 1243.09 510.47 1268.47 540.334C1293.85 570.199 1319.23 631.123 1344.61 626.744C1369.99 622.365 1395.38 552.682 1408.07 517.841L1420.76 483" stroke="#57687C" stroke-width="2"/>
</g>
<defs>
<filter id="filter0_f_1213_6294" x="978" y="1078" width="924" height="924" filterUnits="userSpaceOnUse" color-interpolation-filters="sRGB">
<feFlood flood-opacity="0" result="BackgroundImageFix"/>
<feBlend mode="normal" in="SourceGraphic" in2="BackgroundImageFix" result="shape"/>
<feGaussianBlur stdDeviation="125" result="effect1_foregroundBlur_1213_6294"/>
</filter>
<filter id="filter1_f_1213_6294" x="-396.866" y="-147.867" width="924.006" height="924.008" filterUnits="userSpaceOnUse" color-interpolation-filters="sRGB">
<feFlood flood-opacity="0" result="BackgroundImageFix"/>
<feBlend mode="normal" in="SourceGraphic" in2="BackgroundImageFix" result="shape"/>
<feGaussianBlur stdDeviation="125" result="effect1_foregroundBlur_1213_6294"/>
</filter>
<clipPath id="clip0_1213_6294">
<rect width="1440" height="1500" fill="white"/>
</clipPath>
</defs>
</svg>
