<svg width="1440" height="3333" viewBox="0 0 1440 3333" fill="none" xmlns="http://www.w3.org/2000/svg">
<g clip-path="url(#clip0_1213_6294)">
<rect width="1440" height="3333" fill="#F3F3F3"/>
<g filter="url(#filter0_f_1213_6294)">
<rect x="364.273" y="294.006" width="424" height="424" rx="212" transform="rotate(131.15 364.273 294.006)" fill="#B4C7DD"/>
</g>
<path opacity="0.8" d="M-55 1057.27L-41.1316 1067.91C-27.2632 1078.56 0.473681 1099.85 28.2105 1082.31C55.9474 1064.78 83.6842 1008.43 111.421 938.154C139.158 867.876 166.895 783.67 194.632 730.437C222.368 677.203 250.105 654.942 277.842 727.269C305.579 799.597 333.316 966.514 361.053 961.651C388.789 956.789 416.526 780.148 444.263 761.195C472 742.243 499.737 880.978 527.474 934.806C555.211 988.633 582.947 957.551 610.684 897.942C638.421 838.333 666.158 750.196 693.895 727.065C721.632 703.935 749.368 745.811 777.105 801.239C804.842 856.667 832.579 925.647 860.316 944.241C888.053 962.835 915.789 931.044 943.526 884.572C971.263 838.1 999 776.947 1026.74 761.254C1054.47 745.56 1082.21 775.325 1109.95 731.969C1137.68 688.612 1165.42 572.133 1193.16 506.651C1220.89 441.169 1248.63 426.683 1276.37 418.336C1304.11 409.988 1331.84 407.778 1359.58 462.982C1387.32 518.186 1415.05 630.803 1442.79 622.708C1470.53 614.613 1498.26 485.807 1512.13 421.403L1526 357" stroke="#F58B82" stroke-width="6"/>
<path opacity="0.8" d="M-12.1665 969.835L0.776157 975.593C13.7188 981.351 39.6041 992.868 65.4895 983.383C91.3748 973.899 117.26 943.414 143.145 905.395C169.031 867.375 194.916 821.822 220.801 793.023C246.687 764.225 272.572 752.182 298.457 791.31C324.343 830.438 350.228 920.737 376.113 918.106C401.999 915.476 427.884 819.916 453.769 809.663C479.655 799.41 505.54 874.464 531.425 903.583C557.311 932.703 583.196 915.888 609.081 883.641C634.967 851.393 660.852 803.712 686.737 791.199C712.622 778.686 738.508 801.34 764.393 831.326C790.278 861.312 816.164 898.629 842.049 908.688C867.934 918.747 893.82 901.548 919.705 876.408C945.59 851.267 971.476 818.185 997.361 809.695C1023.25 801.205 1049.13 817.307 1075.02 793.852C1100.9 770.397 1126.79 707.384 1152.67 671.959C1178.56 636.534 1204.44 628.698 1230.33 624.182C1256.21 619.666 1282.1 618.47 1307.98 648.334C1333.87 678.199 1359.76 739.123 1385.64 734.744C1411.53 730.365 1437.41 660.682 1450.35 625.841L1463.3 591" stroke="#57687C" stroke-width="2"/>
</g>
<defs>
<filter id="filter0_f_1213_6294" x="-396.866" y="-147.867" width="924.006" height="924.008" filterUnits="userSpaceOnUse" color-interpolation-filters="sRGB">
<feFlood flood-opacity="0" result="BackgroundImageFix"/>
<feBlend mode="normal" in="SourceGraphic" in2="BackgroundImageFix" result="shape"/>
<feGaussianBlur stdDeviation="125" result="effect1_foregroundBlur_1213_6294"/>
</filter>
<clipPath id="clip0_1213_6294">
<rect width="1440" height="3333" fill="white"/>
</clipPath>
</defs>
</svg>
