<svg width="33" height="33" viewBox="0 0 33 33" fill="none" xmlns="http://www.w3.org/2000/svg">
<path d="M16.1751 0.78125C25.2631 0.78125 32.1431 8.23243 32.1431 16.7572C32.1431 26.644 24.0791 32.7813 16.1431 32.7813C13.5191 32.7813 10.6071 32.0762 8.27107 30.6981C7.45507 30.2014 6.76707 29.8328 5.88707 30.1213L2.65507 31.0827C1.83907 31.3391 1.10307 30.6981 1.34307 29.8328L2.41507 26.2434C2.59107 25.7467 2.55907 25.2179 2.30307 24.8013C0.927066 22.2695 0.143066 19.4973 0.143066 16.8053C0.143066 8.37664 6.87907 0.78125 16.1751 0.78125ZM23.4871 14.7702C22.3511 14.7702 21.4391 15.6836 21.4391 16.8213C21.4391 17.943 22.3511 18.8724 23.4871 18.8724C24.6231 18.8724 25.5351 17.943 25.5351 16.8213C25.5351 15.6836 24.6231 14.7702 23.4871 14.7702ZM16.1111 14.7702C14.9911 14.7542 14.0631 15.6836 14.0631 16.8053C14.0631 17.943 14.9751 18.8564 16.1111 18.8724C17.2471 18.8724 18.1591 17.943 18.1591 16.8213C18.1591 15.6836 17.2471 14.7702 16.1111 14.7702ZM8.73507 14.7702C7.59907 14.7702 6.68707 15.6836 6.68707 16.8213C6.68707 17.943 7.61507 18.8724 8.73507 18.8724C9.87107 18.8564 10.7831 17.943 10.7831 16.8213C10.7831 15.6836 9.87107 14.7702 8.73507 14.7702Z" fill="#BFBFBF"/>
</svg>
