<svg width="32" height="32" viewBox="0 0 32 32" fill="none" xmlns="http://www.w3.org/2000/svg">
<path d="M4 0C2.93913 0 1.92172 0.421427 1.17157 1.17157C0.421427 1.92172 0 2.93913 0 4L0 29.586C4.20298e-05 29.7839 0.0587852 29.9773 0.168795 30.1418C0.278804 30.3062 0.435134 30.4344 0.617999 30.5099C0.800863 30.5855 1.00204 30.6052 1.19607 30.5664C1.3901 30.5276 1.56826 30.4321 1.708 30.292L7.414 24.586C7.78899 24.2109 8.29761 24.0001 8.828 24H28C29.0609 24 30.0783 23.5786 30.8284 22.8284C31.5786 22.0783 32 21.0609 32 20V4C32 2.93913 31.5786 1.92172 30.8284 1.17157C30.0783 0.421427 29.0609 0 28 0L4 0Z" fill="#2C3E50"/>
</svg>
