<svg width="40" height="40" viewBox="0 0 40 40" fill="none" xmlns="http://www.w3.org/2000/svg">
<path fill-rule="evenodd" clip-rule="evenodd" d="M6.66667 28.3333C6.22464 28.3333 5.80072 28.1577 5.48816 27.8452C5.17559 27.5326 5 27.1087 5 26.6666C5 26.2246 5.17559 25.8007 5.48816 25.4881C5.80072 25.1756 6.22464 25 6.66667 25H10L15 20L10 15H6.66667C6.23753 14.9808 5.83234 14.7968 5.53546 14.4863C5.23858 14.1759 5.07289 13.7629 5.07289 13.3333C5.07289 12.9038 5.23858 12.4907 5.53546 12.1803C5.83234 11.8698 6.23753 11.6858 6.66667 11.6666H11.6667L18.3333 18.3333L25 11.6666H28.3333V8.33331L35 13.335L28.3333 18.3333V15H26.6667L21.6667 20L26.6667 25H28.3333V21.6666L35 26.6666L28.3333 31.6666V28.3333H25L18.3333 21.6666L11.6667 28.3333H6.66667Z" fill="#333333"/>
</svg>
