<svg width="44" height="43" viewBox="0 0 44 43" fill="none" xmlns="http://www.w3.org/2000/svg">
<path d="M22.1782 0C10.3012 0 0.678223 9.62298 0.678223 21.5C0.678223 33.377 10.3012 43 22.1782 43C34.0552 43 43.6782 33.377 43.6782 21.5C43.6782 9.62298 34.0552 0 22.1782 0ZM22.1782 8.32258C26.3915 8.32258 29.8073 11.7383 29.8073 15.9516C29.8073 20.1649 26.3915 23.5806 22.1782 23.5806C17.9649 23.5806 14.5492 20.1649 14.5492 15.9516C14.5492 11.7383 17.9649 8.32258 22.1782 8.32258ZM22.1782 38.1452C17.0893 38.1452 12.5292 35.8391 9.47762 32.2327C11.1075 29.1637 14.2978 27.0484 18.0169 27.0484C18.225 27.0484 18.4331 27.0831 18.6325 27.1438C19.7595 27.5079 20.9385 27.7419 22.1782 27.7419C23.4179 27.7419 24.6056 27.5079 25.724 27.1438C25.9234 27.0831 26.1314 27.0484 26.3395 27.0484C30.0587 27.0484 33.249 29.1637 34.8788 32.2327C31.8272 35.8391 27.2671 38.1452 22.1782 38.1452Z" fill="#2C3E50"/>
</svg>
