<svg width="32" height="32" viewBox="0 0 32 32" fill="none" xmlns="http://www.w3.org/2000/svg">
<g clip-path="url(#clip0_1047_6281)">
<path d="M16 32C24.8366 32 32 24.8366 32 16C32 7.16344 24.8366 0 16 0C7.16344 0 0 7.16344 0 16C0 24.8366 7.16344 32 16 32Z" fill="#FFDD67"/>
<path d="M26.5069 9.28021C26.8269 9.44021 26.6669 9.81354 26.4002 9.86688C24.9602 10.0802 23.4669 10.3469 21.9735 11.1469C24.1069 11.5202 25.8135 12.5869 26.7735 13.7069C26.9869 13.9735 26.7202 14.2935 26.5069 14.2402C23.9469 13.3335 21.3335 12.8002 18.0802 13.1735C17.8135 13.1735 17.6002 13.0669 17.6535 12.8002C18.5069 8.90688 23.4669 7.46688 26.5069 9.28021ZM5.49353 9.28021C5.17353 9.44021 5.33353 9.81354 5.6002 9.86688C7.0402 10.0802 8.53353 10.3469 10.0269 11.1469C7.89353 11.5202 6.18687 12.5869 5.22687 13.7069C5.01353 13.9735 5.2802 14.2935 5.49353 14.2402C8.05353 13.3335 10.6669 12.8002 13.9202 13.1735C14.1869 13.1735 14.4002 13.0669 14.3469 12.8002C13.4935 8.90688 8.53353 7.46688 5.49353 9.28021ZM25.4402 17.2802C25.2269 17.0135 24.8535 17.0669 24.4269 17.0669H7.57353C7.14687 17.0669 6.77353 17.0135 6.5602 17.2802C4.4802 19.9469 6.93353 27.7335 16.0002 27.7335C25.0669 27.7335 27.5202 19.9469 25.4402 17.2802Z" fill="#664E27"/>
<path d="M16.9592 21.1738C16.6392 21.1738 16.1592 21.4405 16.3725 22.2405C16.4792 22.6138 17.0125 23.0938 17.0125 23.7338C17.0125 25.0138 14.9859 25.0138 14.9859 23.7338C14.9859 23.0938 15.5192 22.6672 15.6259 22.2405C15.7859 21.4938 15.3059 21.1738 15.0392 21.1738C14.1859 21.1738 12.8525 22.0805 12.8525 23.6272C12.8525 25.3338 14.2925 26.7205 16.0525 26.7205C17.8125 26.7205 19.2525 25.3338 19.2525 23.6272C19.1992 22.1338 17.8125 21.2272 16.9592 21.1738Z" fill="#4C3526"/>
<path d="M11.8936 25.9731C13.0669 26.5064 14.4536 26.7731 16.0002 26.7731C17.5469 26.7731 18.9336 26.4531 20.1069 25.9731C18.9869 25.3864 17.6002 25.0664 16.0002 25.0664C14.4002 25.0664 13.0136 25.3864 11.8936 25.9731Z" fill="#FF717F"/>
<path d="M24.0005 18.1328H8.05382C6.93382 18.1328 6.93382 20.2661 8.00049 20.2661H24.0005C25.0672 20.2661 25.0672 18.1328 24.0005 18.1328Z" fill="white"/>
</g>
<defs>
<clipPath id="clip0_1047_6281">
<rect width="32" height="32" fill="white"/>
</clipPath>
</defs>
</svg>
