<svg width="32" height="32" viewBox="0 0 32 32" fill="none" xmlns="http://www.w3.org/2000/svg">
<g clip-path="url(#clip0_1047_6280)">
<path d="M31.4667 10.0797C28.16 7.09307 24.8533 4.05307 21.5467 1.06641C16.6933 8.42641 8.48 14.9864 0.693333 19.7331C0.48 20.7464 0.266667 21.7064 0 22.6664C3.41333 25.7597 6.82667 28.9064 10.24 31.9997C18.2933 27.5731 26.8267 21.2797 32 14.1331C31.84 12.7997 31.6267 11.4664 31.4667 10.0797Z" fill="#699635"/>
<path d="M10.8798 28.0533C7.5198 24.96 4.15981 21.8667 0.799805 18.8267C9.17314 14.08 16.2131 7.62667 21.3865 0C24.7465 3.09333 28.1065 6.13333 31.4665 9.22667C26.2931 16.8533 19.2531 23.3067 10.8798 28.0533Z" fill="#83BF4F"/>
<path d="M10.0266 26.0277C7.78664 24.001 5.54664 21.921 3.30664 19.8943C3.46664 19.7877 3.57331 19.7343 3.73331 19.6277C4.15997 19.361 4.26664 18.881 3.89331 18.5077L3.57331 18.1877C10.3466 14.0277 16.2133 8.69432 20.8 2.50766L21.12 2.82766C21.4933 3.14766 22.0266 3.09432 22.3466 2.72099C22.4533 2.61432 22.5066 2.45432 22.6133 2.34766C24.8533 4.37432 27.0933 6.45432 29.3333 8.48099C29.2266 8.58766 29.1733 8.74766 29.0666 8.85432C28.7466 9.28099 28.8 9.86766 29.1733 10.241L29.4933 10.561C24.9066 16.6943 19.04 22.0277 12.2666 26.1877L11.9466 25.8677C11.5733 25.5477 10.9333 25.4943 10.4533 25.761C10.2933 25.8677 10.1866 25.921 10.0266 26.0277ZM4.74664 19.9477C6.55997 21.601 8.37331 23.2543 10.24 24.961C10.9333 24.7477 11.7333 24.801 12.3733 25.121C18.56 21.1743 23.9466 16.2677 28.2666 10.561C27.8933 9.97432 27.84 9.22766 28.1066 8.58766C26.2933 6.93432 24.48 5.28099 22.6133 3.57432C22.1333 4.00099 21.44 4.05432 20.8533 3.73432C16.5333 9.49432 11.1466 14.401 4.95997 18.3477C5.27997 18.881 5.22664 19.521 4.74664 19.9477Z" fill="#699635"/>
<path d="M9.60003 18.8284C10.1867 18.6151 10.8267 18.6684 11.2534 19.0418C10.9867 19.2551 10.6667 19.4684 10.4 19.6818C10.2934 19.5751 10.0267 19.5751 9.92003 19.6818C9.76003 19.7884 9.70669 19.9484 9.86669 20.0551C9.97336 20.1618 10.24 20.1618 10.4 20.0551C11.04 19.6284 11.9467 19.5751 12.4267 20.0551C12.8 20.4284 12.8534 20.9618 12.48 21.3884C12.5867 21.4951 12.6934 21.5484 12.8 21.6551C12.5334 21.8151 12.2667 22.0284 12 22.1884C11.8934 22.0818 11.7867 21.9751 11.68 21.9218C11.0934 22.0818 10.4534 22.0284 10.08 21.6551C10.4 21.4418 10.6667 21.2818 10.9867 21.0684C11.0934 21.1751 11.36 21.1751 11.52 21.0684C11.68 20.9618 11.68 20.8018 11.5734 20.6951C11.4667 20.5884 11.2534 20.5884 11.0934 20.6951C10.72 20.9618 10.24 21.0684 9.81336 21.0151C9.49336 20.9618 9.22669 20.8551 9.01336 20.6951C8.64003 20.3218 8.64003 19.8418 8.96003 19.4151C8.85336 19.3618 8.80003 19.2551 8.69336 19.1484C8.96003 18.9884 9.22669 18.7751 9.49336 18.6151C9.44003 18.6684 9.54669 18.7218 9.60003 18.8284ZM21.9734 7.4151C22.4534 7.0951 23.04 7.0951 23.4134 7.46844L22.7734 8.26844C22.6667 8.16177 22.4534 8.16177 22.3467 8.32177C22.24 8.48177 22.24 8.6951 22.3467 8.80177C22.4534 8.90844 22.6667 8.90844 22.7734 8.74844C23.2534 8.16177 24.0534 8.0551 24.5334 8.48177C24.9067 8.8551 25.0134 9.44177 24.8 9.9751C24.9067 10.0818 25.0134 10.1351 25.12 10.2418C24.9067 10.5084 24.7467 10.7218 24.5334 10.9884C24.4267 10.8818 24.32 10.7751 24.2134 10.7218C23.7334 10.9884 23.2 10.9884 22.8267 10.6151C23.04 10.3484 23.3067 10.0818 23.52 9.8151C23.6267 9.92177 23.84 9.92177 23.9467 9.76177C24.0534 9.60177 24.0534 9.38844 23.9467 9.28177C23.84 9.1751 23.6267 9.1751 23.52 9.3351C23.2534 9.6551 22.8267 9.86844 22.4534 9.86844C22.1867 9.86844 21.92 9.76177 21.7067 9.60177C21.3334 9.22844 21.2267 8.6951 21.44 8.16177C21.3334 8.10844 21.28 8.00177 21.1734 7.8951C21.3867 7.68177 21.6 7.4151 21.76 7.14844C21.76 7.2551 21.8667 7.30844 21.9734 7.4151ZM20.3734 17.8684C18.6667 19.4151 15.7867 19.3618 14.1334 17.8684C12.48 16.3218 12.5867 13.9218 14.2934 12.3751C16 10.8284 18.6667 10.6684 20.32 12.2151C22.0267 13.7084 22.08 16.3218 20.3734 17.8684Z" fill="#699635"/>
<path d="M10.5596 12.0009L20.6396 21.2276C21.8129 20.2676 22.8796 19.2543 23.9462 18.1876L13.9196 8.96094C12.8529 9.97427 11.7329 10.9876 10.5596 12.0009Z" fill="#FFDD7D"/>
<path d="M20.6934 25.2795C21.8134 24.4261 22.9334 23.5195 24 22.6128V18.1328C22.9334 19.1995 21.8134 20.2128 20.6934 21.1728V25.2795Z" fill="#DBB471"/>
<path d="M5.38672 12.1076C5.97339 11.8943 6.45339 11.5743 6.93339 11.2009C7.41339 10.8276 7.84005 10.4543 8.32005 10.0276C8.80005 9.65426 9.28005 9.2276 9.81339 8.96093C10.3467 8.64093 11.0401 8.48093 11.6267 8.5876C11.0401 8.69426 10.5067 8.96093 10.0267 9.33426C9.54672 9.65426 9.12005 10.0809 8.64005 10.4543C8.16005 10.8276 7.68005 11.2543 7.14672 11.5743C6.61339 11.8943 5.97339 12.1076 5.38672 12.1076Z" fill="#8D9998"/>
<path d="M20.16 16.5876C20.16 16.5876 22.7733 17.3343 28.8533 15.7343C34.9333 14.1343 32.0533 31.6276 20.96 31.6276C19.7333 31.6276 19.68 30.081 23.0933 27.3076C23.0933 27.3076 18.2933 28.4276 20.3733 24.8543C20.3733 24.8543 16.96 25.441 18.5066 22.721C18.5066 22.721 19.2 20.6943 18.56 18.401C18.6133 18.401 18.9866 17.2276 20.16 16.5876Z" fill="#E8E8E8"/>
<path d="M31.7325 17.4395C31.8392 22.1328 28.1058 29.9195 20.6925 29.9195H20.5858C19.8925 31.0395 20.2125 31.6795 20.9592 31.6795C29.3858 31.6261 33.0658 21.5995 31.7325 17.4395Z" fill="#D1D1D1"/>
<path d="M27.8925 20C26.2925 25.76 19.8925 26.24 19.8925 26.24C19.6258 27.4667 20.1592 28 20.8525 28C23.1992 28.0533 27.5725 24.16 27.8925 20ZM23.4125 20C19.6258 25.3333 18.2925 23.36 18.2925 23.36C17.3325 25.4933 19.8392 25.4933 20.2658 25.0133C21.4925 23.68 23.4658 20.9067 23.4125 20Z" fill="#D1D1D1"/>
<path d="M20.5336 30.08C21.1736 29.2267 21.9736 28.5333 22.7736 27.84C23.5736 27.1467 24.3736 26.4533 25.1736 25.7067C25.9202 24.96 26.6669 24.1067 27.2002 23.1467C27.7336 22.1867 28.0002 21.0667 27.8936 20C27.7869 21.0667 27.4136 22.08 26.8269 22.9333C26.2402 23.7867 25.5469 24.5867 24.8002 25.3333C24.0536 26.08 23.2536 26.7733 22.5069 27.5733C21.7069 28.2667 21.0136 29.12 20.5336 30.08ZM19.8936 26.24C20.1069 25.6533 20.4269 25.1733 20.8002 24.6933C21.1736 24.2133 21.5469 23.7867 21.9736 23.3067C22.3469 22.8267 22.7736 22.3467 23.0402 21.8133C23.3602 21.28 23.5202 20.5867 23.4136 20C23.3069 20.5867 23.0402 21.12 22.6669 21.6C22.3469 22.08 21.9202 22.5067 21.5469 22.9867C21.1736 23.4667 20.7469 23.9467 20.4269 24.48C20.1069 25.0133 19.8936 25.6533 19.8936 26.24Z" fill="#8D9998"/>
<path d="M15.04 11.8409C15.04 11.8409 14.2933 9.22752 15.8933 3.14752C17.4933 -2.93248 0 -0.052477 0 11.0409C0 12.2675 1.54667 12.3209 4.32 8.90752C4.32 8.90752 3.2 13.7075 6.77333 11.6275C6.77333 11.6275 6.18667 15.0409 8.90667 13.4942C8.90667 13.4942 10.9333 12.8009 13.2267 13.4409C13.2267 13.3875 14.4 13.0142 15.04 11.8409Z" fill="#E8E8E8"/>
<path d="M14.1867 0.266588C9.49333 0.159921 1.70667 3.89326 1.70667 11.3066V11.4133C0.586667 12.0533 0 11.7866 0 11.0399C0 2.61326 10.0267 -1.06675 14.1867 0.266588Z" fill="#D1D1D1"/>
<path d="M11.6265 4.10742C5.86652 5.70742 5.38652 12.1074 5.38652 12.1074C4.15985 12.3741 3.62652 11.8408 3.62652 11.1474C3.57318 8.80075 7.46652 4.42742 11.6265 4.10742ZM11.6265 8.58742C6.29318 12.3741 8.26652 13.7074 8.26652 13.7074C6.13318 14.6674 6.13318 12.1608 6.61318 11.7341C7.94652 10.5074 10.7199 8.53409 11.6265 8.58742Z" fill="#D1D1D1"/>
<path d="M1.54688 11.4672C2.40021 10.8272 3.09354 10.0272 3.78688 9.22716C4.48021 8.42716 5.17354 7.62716 5.92021 6.82716C6.66688 6.0805 7.52021 5.33383 8.48021 4.8005C9.44021 4.26716 10.5602 4.0005 11.6269 4.10716C10.5602 4.21383 9.54688 4.58716 8.69354 5.17383C7.84021 5.7605 7.04021 6.45383 6.29354 7.2005C5.54688 7.94716 4.85354 8.74716 4.05354 9.49383C3.30688 10.2938 2.50688 10.9872 1.54688 11.4672Z" fill="#8D9998"/>
<path d="M5.38672 12.1076C5.97339 11.8943 6.45339 11.5743 6.93339 11.2009C7.41339 10.8276 7.84005 10.4543 8.32005 10.0276C8.80005 9.65426 9.28005 9.2276 9.81339 8.96093C10.3467 8.64093 11.0401 8.48093 11.6267 8.5876C11.0401 8.69426 10.5067 8.96093 10.0267 9.33426C9.54672 9.65426 9.12005 10.0809 8.64005 10.4543C8.16005 10.8276 7.68005 11.2543 7.14672 11.5743C6.61339 11.8943 5.97339 12.1076 5.38672 12.1076Z" fill="#8D9998"/>
</g>
<defs>
<clipPath id="clip0_1047_6280">
<rect width="32" height="31.9997" fill="white"/>
</clipPath>
</defs>
</svg>
