<svg width="32" height="32" viewBox="0 0 32 32" fill="none" xmlns="http://www.w3.org/2000/svg">
<g clip-path="url(#clip0_1047_6277)">
<path d="M16 32C24.8366 32 32 24.8366 32 16C32 7.16344 24.8366 0 16 0C7.16344 0 0 7.16344 0 16C0 24.8366 7.16344 32 16 32Z" fill="#FFDD67"/>
<path d="M15.9999 26.7186C18.0618 26.7186 19.7333 25.0471 19.7333 22.9853C19.7333 20.9234 18.0618 19.252 15.9999 19.252C13.9381 19.252 12.2666 20.9234 12.2666 22.9853C12.2666 25.0471 13.9381 26.7186 15.9999 26.7186Z" fill="#664E27"/>
<path d="M9.70664 14.6652C11.0321 14.6652 12.1066 13.5907 12.1066 12.2652C12.1066 10.9398 11.0321 9.86523 9.70664 9.86523C8.38116 9.86523 7.30664 10.9398 7.30664 12.2652C7.30664 13.5907 8.38116 14.6652 9.70664 14.6652Z" fill="#664E27"/>
<path d="M21.7066 14.6652C23.0321 14.6652 24.1066 13.5907 24.1066 12.2652C24.1066 10.9398 23.0321 9.86523 21.7066 9.86523C20.3812 9.86523 19.3066 10.9398 19.3066 12.2652C19.3066 13.5907 20.3812 14.6652 21.7066 14.6652Z" fill="#664E27"/>
</g>
<defs>
<clipPath id="clip0_1047_6277">
<rect width="32" height="32" fill="white"/>
</clipPath>
</defs>
</svg>
