<svg width="32" height="32" viewBox="0 0 32 32" fill="none" xmlns="http://www.w3.org/2000/svg">
<g clip-path="url(#clip0_1047_6279)">
<path d="M16 32C24.8366 32 32 24.8366 32 16C32 7.16344 24.8366 0 16 0C7.16344 0 0 7.16344 0 16C0 24.8366 7.16344 32 16 32Z" fill="#EF5350"/>
<path d="M20.7999 25.4393C17.7065 22.8793 14.2932 22.8793 11.1999 25.4393C10.8265 25.7593 10.5065 25.226 10.7732 24.746C11.7332 22.9326 13.5999 21.2793 15.9999 21.2793C18.3999 21.2793 20.3199 22.9326 21.2265 24.746C21.4932 25.1726 21.1732 25.706 20.7999 25.4393Z" fill="#302424"/>
<path d="M4.37321 12.2129C3.57321 14.7196 4.69321 17.5462 7.19988 18.6662C9.65321 19.8396 12.5332 18.9329 13.9732 16.6929L10.2932 12.5862L4.37321 12.2129Z" fill="white"/>
<path d="M6.50756 12.6942C5.76089 14.2408 6.45422 16.1075 8.00089 16.8008C9.54756 17.5475 11.4142 16.8542 12.1076 15.3075C12.6409 14.2942 6.98756 11.6808 6.50756 12.6942Z" fill="#302424"/>
<path d="M4.37402 12.2141C5.22736 11.6807 6.24069 11.4141 7.25402 11.4141C8.26736 11.4141 9.28069 11.6807 10.2407 12.1074C11.1474 12.5341 12.0007 13.1741 12.694 13.9207C13.334 14.7207 13.8674 15.6274 13.974 16.6407C13.2807 15.9474 12.5874 15.3607 11.8407 14.8274C11.094 14.2941 10.3474 13.8674 9.60069 13.5474C8.80069 13.1741 8.00069 12.9074 7.14736 12.6407C6.18736 12.4807 5.33402 12.3207 4.37402 12.2141Z" fill="#302424"/>
<path d="M27.6264 12.2129C28.4264 14.7196 27.3064 17.5462 24.7997 18.6662C22.3464 19.8396 19.4664 18.9329 18.0264 16.6929L21.7064 12.5862L27.6264 12.2129Z" fill="white"/>
<path d="M25.4929 12.6942C26.2395 14.2408 25.5462 16.1075 23.9995 16.8008C22.4529 17.5475 20.5862 16.8542 19.8929 15.3075C19.3595 14.2942 25.0129 11.6808 25.4929 12.6942Z" fill="#302424"/>
<path d="M27.6264 12.2141C26.773 11.6807 25.7597 11.4141 24.7464 11.4141C23.733 11.4141 22.7197 11.6807 21.7597 12.1074C20.853 12.5341 19.9997 13.1741 19.3064 13.9207C18.6664 14.7207 18.133 15.6274 18.0264 16.6407C18.7197 15.9474 19.413 15.3607 20.1597 14.8274C20.9064 14.2941 21.653 13.8674 22.3997 13.5474C23.1997 13.1741 23.9997 12.9074 24.853 12.6407C25.813 12.4807 26.6664 12.3207 27.6264 12.2141Z" fill="#302424"/>
</g>
<defs>
<clipPath id="clip0_1047_6279">
<rect width="32" height="32" fill="white"/>
</clipPath>
</defs>
</svg>
