<svg width="32" height="32" viewBox="0 0 32 32" fill="none" xmlns="http://www.w3.org/2000/svg">
<g clip-path="url(#clip0_1047_6278)">
<path d="M8.26725 31.6781C11.9492 31.6781 14.9339 31.32 14.9339 30.8781C14.9339 30.4363 11.9492 30.0781 8.26725 30.0781C4.58535 30.0781 1.60059 30.4363 1.60059 30.8781C1.60059 31.32 4.58535 31.6781 8.26725 31.6781Z" fill="#65B1EF"/>
<path d="M22.4008 31.9981C27.7027 31.9981 32.0008 31.5683 32.0008 31.0381C32.0008 30.5079 27.7027 30.0781 22.4008 30.0781C17.0988 30.0781 12.8008 30.5079 12.8008 31.0381C12.8008 31.5683 17.0988 31.9981 22.4008 31.9981Z" fill="#65B1EF"/>
<path d="M16 32C24.8366 32 32 24.8366 32 16C32 7.16344 24.8366 0 16 0C7.16344 0 0 7.16344 0 16C0 24.8366 7.16344 32 16 32Z" fill="#FFDD67"/>
<path d="M22.774 23.4676C22.0274 21.5476 20.214 20.2676 16.0007 20.2676C11.734 20.2676 9.97403 21.5476 9.22736 23.4676C8.85403 24.4809 9.38737 26.1342 9.38737 26.1342C10.0807 28.2142 9.97403 28.8009 16.0007 28.8009C22.0274 28.8009 21.9207 28.2142 22.614 26.1342C22.614 26.1342 23.2007 24.4809 22.774 23.4676Z" fill="#664E27"/>
<path d="M20.8002 22.934C20.8535 22.774 20.8002 22.614 20.6935 22.5073C20.6935 22.5073 19.6269 21.334 16.0002 21.334C12.3735 21.334 11.3069 22.5073 11.3069 22.5073C11.2002 22.5607 11.2002 22.774 11.2002 22.934L11.3069 23.254C11.3602 23.414 11.4669 23.5207 11.5735 23.5207H20.4269C20.5335 23.5207 20.6935 23.414 20.6935 23.254L20.8002 22.934Z" fill="white"/>
<path d="M22.6666 31.2H26.2933C30.6666 25.92 25.4933 20.5333 26.7733 15.3066C25.5466 15.3066 24.3199 16.64 23.1466 16.64C21.4399 21.7066 27.0399 25.92 22.6666 31.2ZM9.33327 31.2H5.7066C1.33327 25.92 6.5066 20.5333 5.2266 15.3066C6.45327 15.3066 7.67994 16.64 8.85327 16.64C10.5599 21.7066 4.95994 25.92 9.33327 31.2Z" fill="#65B1EF"/>
<path d="M20.6404 8.69213C22.2404 10.2921 24.4804 11.0921 26.7204 10.8788C27.0404 10.8255 27.2004 11.9988 26.827 12.0521C24.2137 12.2655 21.6537 11.3588 19.8404 9.49213C19.5204 9.22546 20.427 8.47879 20.6404 8.69213ZM5.33371 10.8788C7.57371 11.0921 9.81371 10.2921 11.4137 8.69213C11.627 8.47879 12.5337 9.22546 12.267 9.49213C10.4537 11.3588 7.84038 12.2655 5.28038 12.0521C4.80038 12.0521 5.01371 10.8788 5.33371 10.8788Z" fill="#917524"/>
<path d="M18.0798 15.0939C20.3198 19.3605 24.8532 19.3605 27.0932 15.0939C27.1998 14.8805 26.9332 14.7739 26.5598 14.5605C24.3198 16.3205 20.6398 16.1605 18.6132 14.5605C18.2932 14.7739 17.9732 14.8805 18.0798 15.0939ZM4.90651 15.0939C7.14651 19.3605 11.6798 19.3605 13.9198 15.0939C14.0265 14.8805 13.7598 14.7739 13.3865 14.5605C11.1465 16.3205 7.46651 16.1605 5.43985 14.5605C5.06651 14.7739 4.79985 14.8805 4.90651 15.0939Z" fill="#664E27"/>
</g>
<defs>
<clipPath id="clip0_1047_6278">
<rect width="32.0004" height="32" fill="white"/>
</clipPath>
</defs>
</svg>
